<svg width="15" height="4" viewBox="0 0 15 4" fill="none" xmlns="http://www.w3.org/2000/svg">
<path d="M3.33333 1.66667C3.33333 2.10869 3.15774 2.53262 2.84518 2.84518C2.53262 3.15774 2.10869 3.33333 1.66667 3.33333C1.22464 3.33333 0.800716 3.15774 0.488155 2.84518C0.175595 2.53262 0 2.10869 0 1.66667C0 1.22464 0.175595 0.800716 0.488155 0.488156C0.800716 0.175595 1.22464 0 1.66667 0C2.10869 0 2.53262 0.175595 2.84518 0.488156C3.15774 0.800716 3.33333 1.22464 3.33333 1.66667ZM9.16667 1.66667C9.16667 2.10869 8.99107 2.53262 8.67851 2.84518C8.36595 3.15774 7.94203 3.33333 7.5 3.33333C7.05797 3.33333 6.63405 3.15774 6.32149 2.84518C6.00893 2.53262 5.83333 2.10869 5.83333 1.66667C5.83333 1.22464 6.00893 0.800716 6.32149 0.488156C6.63405 0.175595 7.05797 0 7.5 0C7.94203 0 8.36595 0.175595 8.67851 0.488156C8.99107 0.800716 9.16667 1.22464 9.16667 1.66667ZM15 1.66667C15 2.10869 14.8244 2.53262 14.5118 2.84518C14.1993 3.15774 13.7754 3.33333 13.3333 3.33333C12.8913 3.33333 12.4674 3.15774 12.1548 2.84518C11.8423 2.53262 11.6667 2.10869 11.6667 1.66667C11.6667 1.22464 11.8423 0.800716 12.1548 0.488156C12.4674 0.175595 12.8913 0 13.3333 0C13.7754 0 14.1993 0.175595 14.5118 0.488156C14.8244 0.800716 15 1.22464 15 1.66667Z" fill="#4B4D51"/>
</svg>
