<svg width="24" height="24" viewBox="0 0 24 24" fill="none" xmlns="http://www.w3.org/2000/svg">
<path d="M10.9998 8.57092L7.04981 12.5209C6.86121 12.7031 6.60861 12.8039 6.34641 12.8016C6.08422 12.7993 5.8334 12.6941 5.648 12.5087C5.46259 12.3233 5.35742 12.0725 5.35514 11.8103C5.35286 11.5481 5.45366 11.2955 5.63581 11.1069L11.2928 5.44992C11.3855 5.35673 11.4956 5.28278 11.617 5.23232C11.7383 5.18186 11.8684 5.15588 11.9998 5.15588C12.1312 5.15588 12.2613 5.18186 12.3827 5.23232C12.504 5.28278 12.6142 5.35673 12.7068 5.44992L18.3638 11.1069C18.5415 11.2964 18.6384 11.5475 18.6342 11.8072C18.63 12.0669 18.5249 12.3147 18.3412 12.4983C18.1575 12.6819 17.9096 12.7868 17.6499 12.7908C17.3902 12.7949 17.1391 12.6977 16.9498 12.5199L12.9998 8.56992V18.1559C12.9998 18.4211 12.8945 18.6755 12.7069 18.863C12.5194 19.0506 12.265 19.1559 11.9998 19.1559C11.7346 19.1559 11.4802 19.0506 11.2927 18.863C11.1052 18.6755 10.9998 18.4211 10.9998 18.1559V8.57092Z" fill="white"/>
</svg>
