<svg width="466" height="300" viewBox="0 0 466 300" fill="none" xmlns="http://www.w3.org/2000/svg">
<g clip-path="url(#clip0_433_8029)">
<rect width="466" height="300" rx="8" fill="#E2E3E4"/>
<g opacity="0.6" filter="url(#filter0_f_433_8029)">
<rect x="-6" y="10" width="85" height="90" rx="6" fill="#E6EEFE"/>
<path d="M-0.806641 16.4043L0.310547 19.9082H0.35498L1.47852 16.4043H2.53223L0.945312 21H-0.279785L-1.87305 16.4043H-0.806641ZM2.57285 20.1875V19.4321L4.51523 16.4043H5.71494V19.4194H6.29893V20.1875H5.71494V21H4.80723V20.1875H2.57285ZM3.5377 19.4194H4.81992V17.4517H4.77549L3.5377 19.3813V19.4194ZM9.38643 21V21.7173H6.37129V21H9.38643ZM9.58574 21V16.4043H12.6707V17.1914H10.5379V18.3086H12.512V19.0957H10.5379V20.2129H12.6771V21H9.58574ZM14.1713 19.0068V21H13.2318V17.5532H14.1269V18.1562H14.1649C14.3205 17.7595 14.6886 17.5088 15.1996 17.5088C15.9201 17.5088 16.3898 18.0007 16.3866 18.8037V21H15.4535V18.9688C15.4503 18.5435 15.2218 18.2896 14.8314 18.2896C14.4411 18.2896 14.1713 18.553 14.1713 19.0068ZM18.5029 22.3647C17.5508 22.3647 16.9636 21.9363 16.9097 21.2856H17.8364C17.8872 21.5618 18.1475 21.6855 18.522 21.6855C18.9568 21.6855 19.2488 21.4983 19.252 21.019V20.3906H19.2075C19.0837 20.6699 18.7791 20.9524 18.2236 20.9492C17.446 20.9524 16.8208 20.4033 16.8208 19.2544C16.8208 18.0896 17.4619 17.5088 18.2236 17.5088C18.8013 17.5088 19.0806 17.8516 19.2075 18.1309H19.2456V17.5532H20.1787V21.0381C20.1755 21.9172 19.4836 22.3647 18.5029 22.3647ZM17.7856 19.2671C17.7825 19.8638 18.0396 20.2415 18.5156 20.2446C18.9854 20.2415 19.252 19.8796 19.252 19.2671C19.252 18.6545 18.9885 18.2578 18.5156 18.2578C18.0364 18.2578 17.7825 18.6736 17.7856 19.2671ZM20.7462 21V17.5532H21.6856V21H20.7462ZM20.7018 16.6265C20.7018 16.3599 20.9334 16.1472 21.2159 16.144C21.4952 16.1472 21.7269 16.3599 21.7237 16.6265C21.7269 16.8867 21.4952 17.1025 21.2159 17.1025C20.9334 17.1025 20.7018 16.8867 20.7018 16.6265ZM23.1926 19.0068V21H22.2531V17.5532H23.1481V18.1562H23.1862C23.3417 17.7595 23.7099 17.5088 24.2209 17.5088C24.9414 17.5088 25.4111 18.0007 25.4079 18.8037V21H24.4748V18.9688C24.4716 18.5435 24.2431 18.2896 23.8527 18.2896C23.4624 18.2896 23.1926 18.553 23.1926 19.0068ZM27.5369 21.0698C26.48 21.0667 25.8326 20.3843 25.8357 19.2925C25.8326 18.2292 26.4896 17.5088 27.4988 17.5088C28.4034 17.5088 29.1175 18.0801 29.1175 19.2544V19.521H26.7625C26.7625 20.0415 27.0704 20.3621 27.556 20.3652C27.8765 20.3621 28.105 20.2224 28.1971 20.0161H29.0921C28.9588 20.6541 28.3875 21.0667 27.5369 21.0698ZM26.7625 18.9307H28.2288C28.2256 18.5117 27.9368 18.2102 27.5179 18.2134C27.0862 18.2102 26.7815 18.5339 26.7625 18.9307Z" fill="#236BF6"/>
<path d="M67.9167 18.9998C67.9167 19.2209 67.8289 19.4328 67.6726 19.5891C67.5163 19.7454 67.3043 19.8332 67.0833 19.8332C66.8623 19.8332 66.6504 19.7454 66.4941 19.5891C66.3378 19.4328 66.25 19.2209 66.25 18.9998C66.25 18.7788 66.3378 18.5669 66.4941 18.4106C66.6504 18.2543 66.8623 18.1665 67.0833 18.1665C67.3043 18.1665 67.5163 18.2543 67.6726 18.4106C67.8289 18.5669 67.9167 18.7788 67.9167 18.9998ZM70.8333 18.9998C70.8333 19.2209 70.7455 19.4328 70.5893 19.5891C70.433 19.7454 70.221 19.8332 70 19.8332C69.779 19.8332 69.567 19.7454 69.4107 19.5891C69.2545 19.4328 69.1667 19.2209 69.1667 18.9998C69.1667 18.7788 69.2545 18.5669 69.4107 18.4106C69.567 18.2543 69.779 18.1665 70 18.1665C70.221 18.1665 70.433 18.2543 70.5893 18.4106C70.7455 18.5669 70.8333 18.7788 70.8333 18.9998ZM73.75 18.9998C73.75 19.2209 73.6622 19.4328 73.5059 19.5891C73.3496 19.7454 73.1377 19.8332 72.9167 19.8332C72.6957 19.8332 72.4837 19.7454 72.3274 19.5891C72.1711 19.4328 72.0833 19.2209 72.0833 18.9998C72.0833 18.7788 72.1711 18.5669 72.3274 18.4106C72.4837 18.2543 72.6957 18.1665 72.9167 18.1665C73.1377 18.1665 73.3496 18.2543 73.5059 18.4106C73.6622 18.5669 73.75 18.7788 73.75 18.9998Z" fill="#4B4D51"/>
<path d="M0.995605 29.8438V31.543H1.98438V29.2212H2.53369V35.2637H1.98438V32.019H0.995605V33.8428H-1.49463V29.8438H0.995605ZM-0.952637 33.3813H0.453613V30.3052H-0.952637V33.3813ZM3.28809 35.5933V29.082H3.84473V35.5933H3.28809ZM10.52 34.2749V34.7583H4.55811V34.2749H7.23877V32.6855H5.26123V29.6313H9.78027V32.6855H7.80273V34.2749H10.52ZM5.8252 32.2241H9.22363V30.0928H5.8252V32.2241ZM13.5845 29.8438V31.543H14.5732V29.2212H15.1226V35.2637H14.5732V32.019H13.5845V33.8428H11.0942V29.8438H13.5845ZM11.6362 33.3813H13.0425V30.3052H11.6362V33.3813ZM15.877 35.5933V29.082H16.4336V35.5933H15.877ZM23.1089 34.2749V34.7583H17.147V34.2749H19.8276V32.6855H17.8501V29.6313H22.3691V32.6855H20.3916V34.2749H23.1089ZM18.4141 32.2241H21.8125V30.0928H18.4141V32.2241ZM26.1733 29.8438V31.543H27.1621V29.2212H27.7114V35.2637H27.1621V32.019H26.1733V33.8428H23.6831V29.8438H26.1733ZM24.2251 33.3813H25.6313V30.3052H24.2251V33.3813ZM28.4658 35.5933V29.082H29.0225V35.5933H28.4658ZM35.6978 34.2749V34.7583H29.7358V34.2749H32.4165V32.6855H30.439V29.6313H34.958V32.6855H32.9805V34.2749H35.6978ZM31.0029 32.2241H34.4014V30.0928H31.0029V32.2241ZM38.7622 29.8438V31.543H39.751V29.2212H40.3003V35.2637H39.751V32.019H38.7622V33.8428H36.272V29.8438H38.7622ZM36.814 33.3813H38.2202V30.3052H36.814V33.3813ZM41.0547 35.5933V29.082H41.6113V35.5933H41.0547ZM48.2866 34.2749V34.7583H42.3247V34.2749H45.0054V32.6855H43.0278V29.6313H47.5469V32.6855H45.5693V34.2749H48.2866ZM43.5918 32.2241H46.9902V30.0928H43.5918V32.2241ZM51.3511 29.8438V31.543H52.3398V29.2212H52.8892V35.2637H52.3398V32.019H51.3511V33.8428H48.8608V29.8438H51.3511ZM49.4028 33.3813H50.8091V30.3052H49.4028V33.3813ZM53.6436 35.5933V29.082H54.2002V35.5933H53.6436ZM60.8755 34.2749V34.7583H54.9136V34.2749H57.5942V32.6855H55.6167V29.6313H60.1357V32.6855H58.1582V34.2749H60.8755ZM56.1807 32.2241H59.5791V30.0928H56.1807V32.2241ZM63.9399 29.8438V31.543H64.9287V29.2212H65.478V35.2637H64.9287V32.019H63.9399V33.8428H61.4497V29.8438H63.9399ZM61.9917 33.3813H63.3979V30.3052H61.9917V33.3813ZM66.2324 35.5933V29.082H66.7891V35.5933H66.2324ZM73.4644 34.2749V34.7583H67.5024V34.2749H70.1831V32.6855H68.2056V29.6313H72.7246V32.6855H70.7471V34.2749H73.4644ZM68.7695 32.2241H72.168V30.0928H68.7695V32.2241ZM0.995605 40.8438V42.543H1.98438V40.2212H2.53369V46.2637H1.98438V43.019H0.995605V44.8428H-1.49463V40.8438H0.995605ZM-0.952637 44.3813H0.453613V41.3052H-0.952637V44.3813ZM3.28809 46.5933V40.082H3.84473V46.5933H3.28809ZM10.52 45.2749V45.7583H4.55811V45.2749H7.23877V43.6855H5.26123V40.6313H9.78027V43.6855H7.80273V45.2749H10.52ZM5.8252 43.2241H9.22363V41.0928H5.8252V43.2241ZM13.5845 40.8438V42.543H14.5732V40.2212H15.1226V46.2637H14.5732V43.019H13.5845V44.8428H11.0942V40.8438H13.5845ZM11.6362 44.3813H13.0425V41.3052H11.6362V44.3813ZM15.877 46.5933V40.082H16.4336V46.5933H15.877ZM23.1089 45.2749V45.7583H17.147V45.2749H19.8276V43.6855H17.8501V40.6313H22.3691V43.6855H20.3916V45.2749H23.1089ZM18.4141 43.2241H21.8125V41.0928H18.4141V43.2241ZM26.1733 40.8438V42.543H27.1621V40.2212H27.7114V46.2637H27.1621V43.019H26.1733V44.8428H23.6831V40.8438H26.1733ZM24.2251 44.3813H25.6313V41.3052H24.2251V44.3813ZM28.4658 46.5933V40.082H29.0225V46.5933H28.4658ZM35.6978 45.2749V45.7583H29.7358V45.2749H32.4165V43.6855H30.439V40.6313H34.958V43.6855H32.9805V45.2749H35.6978ZM31.0029 43.2241H34.4014V41.0928H31.0029V43.2241ZM38.7622 40.8438V42.543H39.751V40.2212H40.3003V46.2637H39.751V43.019H38.7622V44.8428H36.272V40.8438H38.7622ZM36.814 44.3813H38.2202V41.3052H36.814V44.3813ZM41.0547 46.5933V40.082H41.6113V46.5933H41.0547ZM48.2866 45.2749V45.7583H42.3247V45.2749H45.0054V43.6855H43.0278V40.6313H47.5469V43.6855H45.5693V45.2749H48.2866ZM43.5918 43.2241H46.9902V41.0928H43.5918V43.2241ZM51.3511 40.8438V42.543H52.3398V40.2212H52.8892V46.2637H52.3398V43.019H51.3511V44.8428H48.8608V40.8438H51.3511ZM49.4028 44.3813H50.8091V41.3052H49.4028V44.3813ZM53.6436 46.5933V40.082H54.2002V46.5933H53.6436ZM60.8755 45.2749V45.7583H54.9136V45.2749H57.5942V43.6855H55.6167V40.6313H60.1357V43.6855H58.1582V45.2749H60.8755ZM56.1807 43.2241H59.5791V41.0928H56.1807V43.2241ZM63.9399 40.8438V42.543H64.9287V40.2212H65.478V46.2637H64.9287V43.019H63.9399V44.8428H61.4497V40.8438H63.9399ZM61.9917 44.3813H63.3979V41.3052H61.9917V44.3813ZM66.2324 46.5933V40.082H66.7891V46.5933H66.2324ZM73.4644 45.2749V45.7583H67.5024V45.2749H70.1831V43.6855H68.2056V40.6313H72.7246V43.6855H70.7471V45.2749H73.4644ZM68.7695 43.2241H72.168V41.0928H68.7695V43.2241ZM0.995605 51.8438V53.543H1.98438V51.2212H2.53369V57.2637H1.98438V54.019H0.995605V55.8428H-1.49463V51.8438H0.995605ZM-0.952637 55.3813H0.453613V52.3052H-0.952637V55.3813ZM3.28809 57.5933V51.082H3.84473V57.5933H3.28809ZM10.52 56.2749V56.7583H4.55811V56.2749H7.23877V54.6855H5.26123V51.6313H9.78027V54.6855H7.80273V56.2749H10.52ZM5.8252 54.2241H9.22363V52.0928H5.8252V54.2241ZM13.5845 51.8438V53.543H14.5732V51.2212H15.1226V57.2637H14.5732V54.019H13.5845V55.8428H11.0942V51.8438H13.5845ZM11.6362 55.3813H13.0425V52.3052H11.6362V55.3813ZM15.877 57.5933V51.082H16.4336V57.5933H15.877ZM23.1089 56.2749V56.7583H17.147V56.2749H19.8276V54.6855H17.8501V51.6313H22.3691V54.6855H20.3916V56.2749H23.1089ZM18.4141 54.2241H21.8125V52.0928H18.4141V54.2241ZM26.1733 51.8438V53.543H27.1621V51.2212H27.7114V57.2637H27.1621V54.019H26.1733V55.8428H23.6831V51.8438H26.1733ZM24.2251 55.3813H25.6313V52.3052H24.2251V55.3813ZM28.4658 57.5933V51.082H29.0225V57.5933H28.4658ZM35.6978 56.2749V56.7583H29.7358V56.2749H32.4165V54.6855H30.439V51.6313H34.958V54.6855H32.9805V56.2749H35.6978ZM31.0029 54.2241H34.4014V52.0928H31.0029V54.2241ZM38.7622 51.8438V53.543H39.751V51.2212H40.3003V57.2637H39.751V54.019H38.7622V55.8428H36.272V51.8438H38.7622ZM36.814 55.3813H38.2202V52.3052H36.814V55.3813ZM41.0547 57.5933V51.082H41.6113V57.5933H41.0547ZM48.2866 56.2749V56.7583H42.3247V56.2749H45.0054V54.6855H43.0278V51.6313H47.5469V54.6855H45.5693V56.2749H48.2866ZM43.5918 54.2241H46.9902V52.0928H43.5918V54.2241ZM51.3511 51.8438V53.543H52.3398V51.2212H52.8892V57.2637H52.3398V54.019H51.3511V55.8428H48.8608V51.8438H51.3511ZM49.4028 55.3813H50.8091V52.3052H49.4028V55.3813ZM53.6436 57.5933V51.082H54.2002V57.5933H53.6436ZM60.8755 56.2749V56.7583H54.9136V56.2749H57.5942V54.6855H55.6167V51.6313H60.1357V54.6855H58.1582V56.2749H60.8755ZM56.1807 54.2241H59.5791V52.0928H56.1807V54.2241ZM63.9399 51.8438V53.543H64.9287V51.2212H65.478V57.2637H64.9287V54.019H63.9399V55.8428H61.4497V51.8438H63.9399ZM61.9917 55.3813H63.3979V52.3052H61.9917V55.3813ZM66.2324 57.5933V51.082H66.7891V57.5933H66.2324ZM73.4644 56.2749V56.7583H67.5024V56.2749H70.1831V54.6855H68.2056V51.6313H72.7246V54.6855H70.7471V56.2749H73.4644ZM68.7695 54.2241H72.168V52.0928H68.7695V54.2241ZM0.995605 62.8438V64.543H1.98438V62.2212H2.53369V68.2637H1.98438V65.019H0.995605V66.8428H-1.49463V62.8438H0.995605ZM-0.952637 66.3813H0.453613V63.3052H-0.952637V66.3813ZM3.28809 68.5933V62.082H3.84473V68.5933H3.28809ZM10.52 67.2749V67.7583H4.55811V67.2749H7.23877V65.6855H5.26123V62.6313H9.78027V65.6855H7.80273V67.2749H10.52ZM5.8252 65.2241H9.22363V63.0928H5.8252V65.2241Z" fill="#18191A"/>
<path d="M-1.60156 94L-1.60742 93.6133L-0.160156 92.0898C0.34082 91.5566 0.581055 91.2695 0.583984 90.877C0.581055 90.4404 0.217773 90.1592 -0.259766 90.1562C-0.766602 90.1592 -1.08301 90.4785 -1.08594 90.9531H-1.58398C-1.58984 90.2031 -1.00977 89.6992 -0.242188 89.6992C0.52832 89.6992 1.07324 90.2178 1.07617 90.877C1.07324 91.3516 0.853516 91.7207 0.103516 92.4941L-0.869141 93.4961V93.5312H1.15234V94H-1.60156ZM3.15859 94.0586C2.21816 94.0586 1.67324 93.2676 1.67617 91.8789C1.67324 90.502 2.22402 89.6992 3.15859 89.6992C4.09023 89.6992 4.64102 90.502 4.64102 91.8789C4.64102 93.2676 4.09902 94.0586 3.15859 94.0586ZM2.18594 91.8789C2.18887 92.9775 2.54336 93.5898 3.15859 93.5898C3.7709 93.5898 4.12832 92.9775 4.12539 91.8789C4.12832 90.7803 3.76797 90.1592 3.15859 90.1562C2.54922 90.1592 2.18887 90.7803 2.18594 91.8789ZM5.19414 94L5.18828 93.6133L6.63555 92.0898C7.13652 91.5566 7.37676 91.2695 7.37969 90.877C7.37676 90.4404 7.01348 90.1592 6.53594 90.1562C6.0291 90.1592 5.7127 90.4785 5.70977 90.9531H5.21172C5.20586 90.2031 5.78594 89.6992 6.55352 89.6992C7.32402 89.6992 7.86895 90.2178 7.87187 90.877C7.86895 91.3516 7.64922 91.7207 6.89922 92.4941L5.92656 93.4961V93.5312H7.94805V94H5.19414ZM10.0422 94.0586C9.30684 94.0498 8.49531 93.6133 8.49531 92.043C8.49531 90.54 9.11055 89.6992 10.1066 89.6992C10.8537 89.6992 11.3752 90.1592 11.4836 90.8242H10.9621C10.8654 90.4492 10.5783 90.168 10.1066 90.168C9.40938 90.168 8.99043 90.7627 8.99336 91.7852H9.04609C9.28926 91.4307 9.67891 91.2227 10.1359 91.2227C10.8889 91.2227 11.5188 91.8086 11.5188 92.6289C11.5188 93.4287 10.9357 94.0674 10.0422 94.0586ZM9.06367 92.6406C9.0666 93.1387 9.47383 93.5928 10.0422 93.5957C10.59 93.5928 11.0061 93.1621 11.009 92.6348C11.0061 92.1133 10.6076 91.6885 10.0539 91.6855C9.49727 91.6885 9.06953 92.1396 9.06367 92.6406ZM12.2594 94.0352C12.0543 94.0322 11.8785 93.8623 11.8844 93.6543C11.8785 93.4492 12.0543 93.2793 12.2594 93.2793C12.4674 93.2793 12.6373 93.4492 12.6344 93.6543C12.6373 93.8623 12.4674 94.0322 12.2594 94.0352ZM14.5059 94.0586C13.5654 94.0586 13.0205 93.2676 13.0234 91.8789C13.0205 90.502 13.5713 89.6992 14.5059 89.6992C15.4375 89.6992 15.9883 90.502 15.9883 91.8789C15.9883 93.2676 15.4463 94.0586 14.5059 94.0586ZM13.5332 91.8789C13.5361 92.9775 13.8906 93.5898 14.5059 93.5898C15.1182 93.5898 15.4756 92.9775 15.4727 91.8789C15.4756 90.7803 15.1152 90.1592 14.5059 90.1562C13.8965 90.1592 13.5361 90.7803 13.5332 91.8789ZM16.5414 94L16.5355 93.6133L17.9828 92.0898C18.4838 91.5566 18.724 91.2695 18.727 90.877C18.724 90.4404 18.3607 90.1592 17.8832 90.1562C17.3764 90.1592 17.06 90.4785 17.057 90.9531H16.559C16.5531 90.2031 17.1332 89.6992 17.9008 89.6992C18.6713 89.6992 19.2162 90.2178 19.2191 90.877C19.2162 91.3516 18.9965 91.7207 18.2465 92.4941L17.2738 93.4961V93.5312H19.2953V94H16.5414ZM20.2762 94.0352C20.0711 94.0322 19.8953 93.8623 19.9012 93.6543C19.8953 93.4492 20.0711 93.2793 20.2762 93.2793C20.4842 93.2793 20.6541 93.4492 20.6512 93.6543C20.6541 93.8623 20.4842 94.0322 20.2762 94.0352ZM22.5227 94.0586C21.5822 94.0586 21.0373 93.2676 21.0402 91.8789C21.0373 90.502 21.5881 89.6992 22.5227 89.6992C23.4543 89.6992 24.0051 90.502 24.0051 91.8789C24.0051 93.2676 23.4631 94.0586 22.5227 94.0586ZM21.55 91.8789C21.5529 92.9775 21.9074 93.5898 22.5227 93.5898C23.135 93.5898 23.4924 92.9775 23.4895 91.8789C23.4924 90.7803 23.132 90.1592 22.5227 90.1562C21.9133 90.1592 21.5529 90.7803 21.55 91.8789ZM25.941 94.0586C25.1764 94.0586 24.5963 93.5869 24.5641 92.9336H25.0738C25.1119 93.3115 25.4811 93.5928 25.941 93.5957C26.4918 93.5928 26.8902 93.1914 26.8902 92.6582C26.8902 92.1074 26.4771 91.7002 25.9059 91.6973C25.5484 91.6914 25.2701 91.8027 25.1148 92.0781H24.6051L24.9039 89.7578H27.2008V90.2266H25.3434L25.1852 91.4688H25.2262C25.4166 91.3223 25.7008 91.2227 25.9996 91.2227C26.8082 91.2227 27.4029 91.8203 27.4059 92.6465C27.4029 93.4668 26.7877 94.0586 25.941 94.0586Z" fill="#4B4D51"/>
<rect x="85" y="10" width="85" height="90" rx="6" fill="#E6EEFE"/>
<path d="M93.0059 21H91.3872V16.4043H93.0249C94.4087 16.4043 95.2561 17.2644 95.2529 18.6958C95.2561 20.1335 94.4087 21 93.0059 21ZM92.3394 20.1812H92.9678C93.8438 20.1812 94.3008 19.7273 94.3008 18.6958C94.3008 17.6738 93.8438 17.2231 92.9741 17.2231H92.3394V20.1812ZM95.7633 21V17.5532H96.671V18.1499H96.7091C96.8329 17.7278 97.1534 17.5024 97.5406 17.5024C97.6358 17.5024 97.7564 17.5151 97.839 17.5342V18.3721C97.7501 18.3435 97.5692 18.3213 97.4391 18.3213C97.0138 18.3213 96.6996 18.6165 96.7027 19.0386V21H95.7633ZM99.5744 21.0698C98.5334 21.0667 97.8828 20.3525 97.8859 19.2861C97.8828 18.2229 98.5334 17.5088 99.5744 17.5088C100.619 17.5088 101.266 18.2229 101.269 19.2861C101.266 20.3525 100.619 21.0667 99.5744 21.0698ZM98.8381 19.2861C98.8381 19.8892 99.0888 20.3367 99.5808 20.3398C100.06 20.3367 100.314 19.8892 100.311 19.2861C100.314 18.6799 100.06 18.2261 99.5808 18.2261C99.0888 18.2261 98.8381 18.6799 98.8381 19.2861ZM102.637 19.0068V21H101.697V17.5532H102.592V18.1562H102.63C102.786 17.7595 103.154 17.5088 103.665 17.5088C104.385 17.5088 104.855 18.0007 104.852 18.8037V21H103.919V18.9688C103.916 18.5435 103.687 18.2896 103.297 18.2896C102.906 18.2896 102.637 18.553 102.637 19.0068ZM106.981 21.0698C105.924 21.0667 105.277 20.3843 105.28 19.2925C105.277 18.2292 105.933 17.5088 106.943 17.5088C107.847 17.5088 108.561 18.0801 108.561 19.2544V19.521H106.206C106.206 20.0415 106.514 20.3621 107 20.3652C107.32 20.3621 107.549 20.2224 107.641 20.0161H108.536C108.403 20.6541 107.831 21.0667 106.981 21.0698ZM106.206 18.9307H107.673C107.67 18.5117 107.381 18.2102 106.962 18.2134C106.53 18.2102 106.225 18.5339 106.206 18.9307Z" fill="#236BF6"/>
<path d="M156.917 18.9998C156.917 19.2209 156.829 19.4328 156.673 19.5891C156.516 19.7454 156.304 19.8332 156.083 19.8332C155.862 19.8332 155.65 19.7454 155.494 19.5891C155.338 19.4328 155.25 19.2209 155.25 18.9998C155.25 18.7788 155.338 18.5669 155.494 18.4106C155.65 18.2543 155.862 18.1665 156.083 18.1665C156.304 18.1665 156.516 18.2543 156.673 18.4106C156.829 18.5669 156.917 18.7788 156.917 18.9998ZM159.833 18.9998C159.833 19.2209 159.746 19.4328 159.589 19.5891C159.433 19.7454 159.221 19.8332 159 19.8332C158.779 19.8332 158.567 19.7454 158.411 19.5891C158.254 19.4328 158.167 19.2209 158.167 18.9998C158.167 18.7788 158.254 18.5669 158.411 18.4106C158.567 18.2543 158.779 18.1665 159 18.1665C159.221 18.1665 159.433 18.2543 159.589 18.4106C159.746 18.5669 159.833 18.7788 159.833 18.9998ZM162.75 18.9998C162.75 19.2209 162.662 19.4328 162.506 19.5891C162.35 19.7454 162.138 19.8332 161.917 19.8332C161.696 19.8332 161.484 19.7454 161.327 19.5891C161.171 19.4328 161.083 19.2209 161.083 18.9998C161.083 18.7788 161.171 18.5669 161.327 18.4106C161.484 18.2543 161.696 18.1665 161.917 18.1665C162.138 18.1665 162.35 18.2543 162.506 18.4106C162.662 18.5669 162.75 18.7788 162.75 18.9998Z" fill="#4B4D51"/>
<path d="M96.6323 28.082V34.6079H96.0537V28.082H96.6323ZM91.6445 33.0332V28.6387H92.2158V30.3599H94.1567V28.6387H94.7207V33.0332H91.6445ZM92.2158 32.5498H94.1567V30.8213H92.2158V32.5498ZM102.956 28.082V34.6079H102.385V31.019H101.008V30.543H102.385V28.082H102.956ZM97.8584 33.0332V28.6826H100.898V29.1587H98.437V30.5137H100.612V30.9824H98.437V32.5571C99.6309 32.5535 100.4 32.5205 101.293 32.3594L101.359 32.8354C100.411 32.9893 99.6162 33.0332 98.3564 33.0332H97.8584ZM110.916 28.082V34.6079H110.337V28.082H110.916ZM105.972 32.9893V28.7046H109.07V29.188H106.551V32.4912C107.818 32.4912 108.649 32.4546 109.627 32.2788L109.686 32.7622C108.675 32.9417 107.818 32.9856 106.5 32.9893H105.972ZM115.086 29.0415C115.09 30.1584 116.365 31.1509 117.496 31.3633L117.232 31.8467C116.247 31.6196 115.215 30.9202 114.793 29.9644C114.369 30.9202 113.34 31.616 112.354 31.8467L112.091 31.3633C113.219 31.1472 114.482 30.1621 114.486 29.0415V28.5435H115.086V29.0415ZM111.842 33.707V33.231H117.804V33.707H111.842ZM123.329 28.7485V29.5542C123.333 30.5137 123.333 31.3999 123.058 32.7183L122.479 32.667C122.626 32.0408 122.696 31.4988 122.732 30.9934L118.759 31.2095L118.678 30.7334L122.758 30.5649C122.769 30.2207 122.772 29.8875 122.772 29.5542V29.2319H118.854V28.7485H123.329ZM118.136 33.6777V33.1943H124.069V33.6777H118.136ZM129.47 28.082V30.7334H130.524V31.2168H129.47V34.5933H128.898V28.082H129.47ZM124.475 32.9014C126.156 32.0664 127.071 30.8103 127.203 29.2686H124.775V28.7852H127.785C127.781 30.6272 126.917 32.3081 124.797 33.3555L124.475 32.9014ZM137.95 28.082V32.9673H137.4V28.082H137.95ZM132.442 31.583C133.281 31.1875 133.793 30.2866 133.79 29.5176V28.5435H134.346V29.5176C134.346 30.2793 134.822 31.063 135.65 31.4146L135.328 31.8687C134.727 31.594 134.299 31.0923 134.075 30.5027C133.844 31.1509 133.387 31.7258 132.764 32.0298L132.442 31.583ZM133.68 34.4541V32.3667H134.251V33.9707H138.147V34.4541H133.68ZM135.086 30.2134V29.7373H136.111V28.2139H136.668V32.7842H136.111V30.2134H135.086ZM141.007 29.8325C141.003 31.0117 141.761 32.1982 142.706 32.6304L142.362 33.0991C141.622 32.7183 141.01 31.9419 140.721 31.0154C140.432 31.9895 139.82 32.8245 139.081 33.2163L138.707 32.7549C139.663 32.2861 140.417 31.0337 140.421 29.8325V28.646H141.007V29.8325ZM141.996 30.7773V30.3086H143.541V28.082H144.112V34.6079H143.541V30.7773H141.996ZM146.078 33.5093L145.507 35.5015H144.965L145.368 33.5093H146.078ZM150.131 28.7632C150.128 30.6418 149.487 32.363 147.143 33.5166L146.821 33.0771C148.044 32.4802 148.78 31.7258 149.176 30.8506L146.945 31.063L146.85 30.5576L149.351 30.3892C149.469 30.0229 149.534 29.6384 149.56 29.2393H147.18V28.7632H150.131ZM151.223 34.5933V28.082H151.794V30.7334H152.849V31.2168H151.794V34.5933H151.223ZM155.781 28.8438V30.543H156.77V28.2212H157.319V34.2637H156.77V31.019H155.781V32.8428H153.291V28.8438H155.781ZM153.833 32.3813H155.239V29.3052H153.833V32.3813ZM158.074 34.5933V28.082H158.63V34.5933H158.074ZM96.3027 39.082V41.6748H97.394V42.1582H96.3027V45.6079H95.7314V39.082H96.3027ZM91.52 40.166V39.6899H94.479V42.019H92.106V43.5425C93.3145 43.5461 94.1604 43.4985 95.1455 43.3154L95.2041 43.7915C94.1787 43.9783 93.3108 44.0259 92.0547 44.0332H91.5347V41.543H93.9077V40.166H91.52ZM105.215 44.2749V44.7583H99.2529V44.2749H101.934V42.6855H99.9561V39.6313H104.475V42.6855H102.498V44.2749H105.215ZM100.52 42.2241H103.918V40.0928H100.52V42.2241ZM110.777 40.8105V41.2793H106.338V39.3164H110.711V39.7925H106.917V40.8105H110.777ZM105.547 42.2754V41.8066H111.48V42.2754H109.898V42.9492H110.718V44.3994H106.851V45.0586H110.916V45.52H106.28V43.9746H110.154V43.3887H106.265V42.9492H107.181V42.2754H105.547ZM107.752 42.9492H109.327V42.2754H107.752V42.9492ZM114.808 39.1992C116.255 39.1992 117.104 39.5984 117.108 40.3198C117.104 41.0596 116.255 41.4587 114.808 41.4624C113.354 41.4587 112.501 41.0596 112.501 40.3198C112.501 39.5984 113.354 39.1992 114.808 39.1992ZM111.842 42.3706V41.9019H117.774V42.3706H111.842ZM112.56 43.374V42.9346H117.013V44.3921H113.146V45.0659H117.21V45.52H112.574V43.9673H116.449V43.374H112.56ZM113.102 40.3198C113.094 40.7739 113.728 41.0229 114.808 41.0229C115.888 41.0229 116.518 40.7739 116.522 40.3198C116.518 39.8914 115.888 39.635 114.808 39.6313C113.728 39.635 113.094 39.8914 113.102 40.3198ZM121.962 39.5581C122.984 39.5618 123.709 40.1843 123.713 41.0889C123.709 41.9971 122.984 42.616 121.962 42.6196C120.933 42.616 120.201 41.9971 120.205 41.0889C120.201 40.1843 120.933 39.5618 121.962 39.5581ZM119.868 43.6816C121.069 43.6853 122.728 43.6743 124.167 43.4619L124.211 43.8867C122.72 44.165 121.12 44.1724 119.948 44.1724L119.868 43.6816ZM120.769 41.0889C120.765 41.6968 121.267 42.1143 121.962 42.1143C122.651 42.1143 123.153 41.6968 123.149 41.0889C123.153 40.4846 122.651 40.0635 121.962 40.0635C121.267 40.0635 120.765 40.4846 120.769 41.0889ZM124.599 45.6079V39.082H125.17V45.6079H124.599ZM129.517 39.7266V43.96H126.506V39.7266H129.517ZM127.07 43.4912H128.953V40.188H127.07V43.4912ZM130.916 45.6079V39.082H131.494V45.6079H130.916ZM137.51 39.082V40.8179H138.492V41.3086H137.51V43.0078H136.939V39.082H137.51ZM132.435 40.2539V39.7778H134.09V39.0308H134.661V39.7778H136.316V40.2539H132.435ZM132.808 41.7334C132.804 41.0376 133.431 40.5762 134.375 40.5762C135.309 40.5762 135.936 41.0376 135.943 41.7334C135.936 42.4402 135.309 42.8979 134.375 42.8979C133.431 42.8979 132.804 42.4402 132.808 41.7334ZM133.357 41.7334C133.354 42.1765 133.76 42.4512 134.375 42.4585C134.983 42.4512 135.394 42.1765 135.401 41.7334C135.394 41.3086 134.983 41.0229 134.375 41.0229C133.76 41.0229 133.354 41.3086 133.357 41.7334ZM133.401 45.5054V43.3813H137.51V45.5054H133.401ZM133.965 45.0366H136.939V43.8428H133.965V45.0366Z" fill="#18191A"/>
<path d="M91.3984 94L91.3926 93.6133L92.8398 92.0898C93.3408 91.5566 93.5811 91.2695 93.584 90.877C93.5811 90.4404 93.2178 90.1592 92.7402 90.1562C92.2334 90.1592 91.917 90.4785 91.9141 90.9531H91.416C91.4102 90.2031 91.9902 89.6992 92.7578 89.6992C93.5283 89.6992 94.0732 90.2178 94.0762 90.877C94.0732 91.3516 93.8535 91.7207 93.1035 92.4941L92.1309 93.4961V93.5312H94.1523V94H91.3984ZM96.1586 94.0586C95.2182 94.0586 94.6732 93.2676 94.6762 91.8789C94.6732 90.502 95.224 89.6992 96.1586 89.6992C97.0902 89.6992 97.641 90.502 97.641 91.8789C97.641 93.2676 97.099 94.0586 96.1586 94.0586ZM95.1859 91.8789C95.1889 92.9775 95.5434 93.5898 96.1586 93.5898C96.7709 93.5898 97.1283 92.9775 97.1254 91.8789C97.1283 90.7803 96.768 90.1592 96.1586 90.1562C95.5492 90.1592 95.1889 90.7803 95.1859 91.8789ZM98.1941 94L98.1883 93.6133L99.6355 92.0898C100.137 91.5566 100.377 91.2695 100.38 90.877C100.377 90.4404 100.013 90.1592 99.5359 90.1562C99.0291 90.1592 98.7127 90.4785 98.7098 90.9531H98.2117C98.2059 90.2031 98.7859 89.6992 99.5535 89.6992C100.324 89.6992 100.869 90.2178 100.872 90.877C100.869 91.3516 100.649 91.7207 99.8992 92.4941L98.9266 93.4961V93.5312H100.948V94H98.1941ZM103.042 94.0586C102.307 94.0498 101.495 93.6133 101.495 92.043C101.495 90.54 102.111 89.6992 103.107 89.6992C103.854 89.6992 104.375 90.1592 104.484 90.8242H103.962C103.865 90.4492 103.578 90.168 103.107 90.168C102.409 90.168 101.99 90.7627 101.993 91.7852H102.046C102.289 91.4307 102.679 91.2227 103.136 91.2227C103.889 91.2227 104.519 91.8086 104.519 92.6289C104.519 93.4287 103.936 94.0674 103.042 94.0586ZM102.064 92.6406C102.067 93.1387 102.474 93.5928 103.042 93.5957C103.59 93.5928 104.006 93.1621 104.009 92.6348C104.006 92.1133 103.608 91.6885 103.054 91.6855C102.497 91.6885 102.07 92.1396 102.064 92.6406ZM105.259 94.0352C105.054 94.0322 104.879 93.8623 104.884 93.6543C104.879 93.4492 105.054 93.2793 105.259 93.2793C105.467 93.2793 105.637 93.4492 105.634 93.6543C105.637 93.8623 105.467 94.0322 105.259 94.0352ZM107.506 94.0586C106.565 94.0586 106.021 93.2676 106.023 91.8789C106.021 90.502 106.571 89.6992 107.506 89.6992C108.438 89.6992 108.988 90.502 108.988 91.8789C108.988 93.2676 108.446 94.0586 107.506 94.0586ZM106.533 91.8789C106.536 92.9775 106.891 93.5898 107.506 93.5898C108.118 93.5898 108.476 92.9775 108.473 91.8789C108.476 90.7803 108.115 90.1592 107.506 90.1562C106.896 90.1592 106.536 90.7803 106.533 91.8789ZM109.541 94L109.536 93.6133L110.983 92.0898C111.484 91.5566 111.724 91.2695 111.727 90.877C111.724 90.4404 111.361 90.1592 110.883 90.1562C110.376 90.1592 110.06 90.4785 110.057 90.9531H109.559C109.553 90.2031 110.133 89.6992 110.901 89.6992C111.671 89.6992 112.216 90.2178 112.219 90.877C112.216 91.3516 111.996 91.7207 111.246 92.4941L110.274 93.4961V93.5312H112.295V94H109.541ZM113.276 94.0352C113.071 94.0322 112.895 93.8623 112.901 93.6543C112.895 93.4492 113.071 93.2793 113.276 93.2793C113.484 93.2793 113.654 93.4492 113.651 93.6543C113.654 93.8623 113.484 94.0322 113.276 94.0352ZM115.523 94.0586C114.582 94.0586 114.037 93.2676 114.04 91.8789C114.037 90.502 114.588 89.6992 115.523 89.6992C116.454 89.6992 117.005 90.502 117.005 91.8789C117.005 93.2676 116.463 94.0586 115.523 94.0586ZM114.55 91.8789C114.553 92.9775 114.907 93.5898 115.523 93.5898C116.135 93.5898 116.492 92.9775 116.489 91.8789C116.492 90.7803 116.132 90.1592 115.523 90.1562C114.913 90.1592 114.553 90.7803 114.55 91.8789ZM118.941 94.0586C118.176 94.0586 117.596 93.5869 117.564 92.9336H118.074C118.112 93.3115 118.481 93.5928 118.941 93.5957C119.492 93.5928 119.89 93.1914 119.89 92.6582C119.89 92.1074 119.477 91.7002 118.906 91.6973C118.548 91.6914 118.27 91.8027 118.115 92.0781H117.605L117.904 89.7578H120.201V90.2266H118.343L118.185 91.4688H118.226C118.417 91.3223 118.701 91.2227 119 91.2227C119.808 91.2227 120.403 91.8203 120.406 92.6465C120.403 93.4668 119.788 94.0586 118.941 94.0586Z" fill="#4B4D51"/>
<rect x="176" y="10" width="85" height="90" rx="6" fill="#E6EEFE"/>
<path d="M182.387 21V16.4043H184.19C185.234 16.4043 185.834 16.9915 185.834 17.9023C185.834 18.5308 185.545 18.9878 185.021 19.2131L185.999 21H184.945L184.066 19.3687H183.339V21H182.387ZM183.339 18.5942H184.012C184.577 18.5942 184.853 18.3625 184.85 17.9023C184.853 17.439 184.577 17.1882 184.012 17.1851H183.339V18.5942ZM187.804 21.0698C186.763 21.0667 186.113 20.3525 186.116 19.2861C186.113 18.2229 186.763 17.5088 187.804 17.5088C188.848 17.5088 189.496 18.2229 189.499 19.2861C189.496 20.3525 188.848 21.0667 187.804 21.0698ZM187.068 19.2861C187.068 19.8892 187.319 20.3367 187.811 20.3398C188.29 20.3367 188.544 19.8892 188.541 19.2861C188.544 18.6799 188.29 18.2261 187.811 18.2261C187.319 18.2261 187.068 18.6799 187.068 19.2861ZM189.946 21V16.4043H190.885V18.1309H190.911C191.041 17.8516 191.314 17.5088 191.895 17.5088C192.656 17.5088 193.294 18.0991 193.298 19.2798C193.294 20.4319 192.682 21.0571 191.895 21.0571C191.333 21.0571 191.047 20.7334 190.911 20.4478H190.873V21H189.946ZM190.866 19.2734C190.863 19.8955 191.133 20.3049 191.596 20.3081C192.076 20.3049 192.336 19.8828 192.333 19.2734C192.336 18.6736 192.082 18.2578 191.596 18.2578C191.13 18.2578 190.863 18.6545 190.866 19.2734ZM195.287 21.0698C194.246 21.0667 193.595 20.3525 193.598 19.2861C193.595 18.2229 194.246 17.5088 195.287 17.5088C196.331 17.5088 196.979 18.2229 196.982 19.2861C196.979 20.3525 196.331 21.0667 195.287 21.0698ZM194.551 19.2861C194.551 19.8892 194.801 20.3367 195.293 20.3398C195.773 20.3367 196.026 19.8892 196.023 19.2861C196.026 18.6799 195.773 18.2261 195.293 18.2261C194.801 18.2261 194.551 18.6799 194.551 19.2861ZM199.225 17.5532V18.2578H198.578V19.9399C198.574 20.2161 198.711 20.2827 198.901 20.2891C198.996 20.2891 199.162 20.2795 199.276 20.27V21.0127C199.174 21.0286 199.006 21.0476 198.774 21.0444C198.095 21.0476 197.632 20.7429 197.638 20.0732V18.2578H197.162V17.5532H197.638V16.728H198.578V17.5532H199.225ZM204.061 17.8833C203.931 17.4517 203.585 17.1882 203.083 17.1851C202.372 17.1882 201.89 17.731 201.89 18.6958C201.89 19.667 202.356 20.2161 203.089 20.2192C203.746 20.2161 204.137 19.8447 204.15 19.2671H203.153V18.5498H205.07V19.1211C205.07 20.3271 204.242 21.0635 203.083 21.0635C201.795 21.0635 200.919 20.1621 200.919 18.7085C200.919 17.2168 201.852 16.3408 203.064 16.3408C204.102 16.3408 204.899 16.9788 205.025 17.8833H204.061ZM205.587 21V17.5532H206.494V18.1499H206.532C206.656 17.7278 206.977 17.5024 207.364 17.5024C207.459 17.5024 207.58 17.5151 207.662 17.5342V18.3721C207.573 18.3435 207.393 18.3213 207.262 18.3213C206.837 18.3213 206.523 18.6165 206.526 19.0386V21H205.587ZM207.957 21V17.5532H208.896V21H207.957ZM207.912 16.6265C207.912 16.3599 208.144 16.1472 208.427 16.144C208.706 16.1472 208.938 16.3599 208.934 16.6265C208.938 16.8867 208.706 17.1025 208.427 17.1025C208.144 17.1025 207.912 16.8867 207.912 16.6265ZM209.464 22.2949V17.5532H210.391V18.1309H210.429C210.559 17.8516 210.832 17.5088 211.413 17.5088C212.174 17.5088 212.812 18.0991 212.809 19.2798C212.812 20.4319 212.2 21.0571 211.413 21.0571C210.851 21.0571 210.562 20.7334 210.429 20.4478H210.403V22.2949H209.464ZM210.384 19.2734C210.381 19.8955 210.648 20.3049 211.114 20.3081C211.593 20.3049 211.854 19.8828 211.85 19.2734C211.854 18.6736 211.6 18.2578 211.114 18.2578C210.644 18.2578 210.381 18.6545 210.384 19.2734ZM213.256 22.2949V17.5532H214.183V18.1309H214.221C214.351 17.8516 214.624 17.5088 215.205 17.5088C215.966 17.5088 216.604 18.0991 216.601 19.2798C216.604 20.4319 215.992 21.0571 215.205 21.0571C214.643 21.0571 214.354 20.7334 214.221 20.4478H214.195V22.2949H213.256ZM214.176 19.2734C214.173 19.8955 214.44 20.3049 214.906 20.3081C215.385 20.3049 215.646 19.8828 215.643 19.2734C215.646 18.6736 215.392 18.2578 214.906 18.2578C214.437 18.2578 214.173 18.6545 214.176 19.2734ZM218.609 21.0698C217.553 21.0667 216.905 20.3843 216.908 19.2925C216.905 18.2292 217.562 17.5088 218.571 17.5088C219.476 17.5088 220.19 18.0801 220.19 19.2544V19.521H217.835C217.835 20.0415 218.143 20.3621 218.629 20.3652C218.949 20.3621 219.178 20.2224 219.27 20.0161H220.165C220.031 20.6541 219.46 21.0667 218.609 21.0698ZM217.835 18.9307H219.301C219.298 18.5117 219.009 18.2102 218.59 18.2134C218.159 18.2102 217.854 18.5339 217.835 18.9307ZM220.618 21V17.5532H221.526V18.1499H221.564C221.687 17.7278 222.008 17.5024 222.395 17.5024C222.49 17.5024 222.611 17.5151 222.694 17.5342V18.3721C222.605 18.3435 222.424 18.3213 222.294 18.3213C221.868 18.3213 221.554 18.6165 221.557 19.0386V21H220.618Z" fill="#236BF6"/>
<path d="M247.917 18.9998C247.917 19.2209 247.829 19.4328 247.673 19.5891C247.516 19.7454 247.304 19.8332 247.083 19.8332C246.862 19.8332 246.65 19.7454 246.494 19.5891C246.338 19.4328 246.25 19.2209 246.25 18.9998C246.25 18.7788 246.338 18.5669 246.494 18.4106C246.65 18.2543 246.862 18.1665 247.083 18.1665C247.304 18.1665 247.516 18.2543 247.673 18.4106C247.829 18.5669 247.917 18.7788 247.917 18.9998ZM250.833 18.9998C250.833 19.2209 250.746 19.4328 250.589 19.5891C250.433 19.7454 250.221 19.8332 250 19.8332C249.779 19.8332 249.567 19.7454 249.411 19.5891C249.254 19.4328 249.167 19.2209 249.167 18.9998C249.167 18.7788 249.254 18.5669 249.411 18.4106C249.567 18.2543 249.779 18.1665 250 18.1665C250.221 18.1665 250.433 18.2543 250.589 18.4106C250.746 18.5669 250.833 18.7788 250.833 18.9998ZM253.75 18.9998C253.75 19.2209 253.662 19.4328 253.506 19.5891C253.35 19.7454 253.138 19.8332 252.917 19.8332C252.696 19.8332 252.484 19.7454 252.327 19.5891C252.171 19.4328 252.083 19.2209 252.083 18.9998C252.083 18.7788 252.171 18.5669 252.327 18.4106C252.484 18.2543 252.696 18.1665 252.917 18.1665C253.138 18.1665 253.35 18.2543 253.506 18.4106C253.662 18.5669 253.75 18.7788 253.75 18.9998Z" fill="#4B4D51"/>
<path d="M184.996 28.8438V30.543H185.984V28.2212H186.534V34.2637H185.984V31.019H184.996V32.8428H182.505V28.8438H184.996ZM183.047 32.3813H184.454V29.3052H183.047V32.3813ZM187.288 34.5933V28.082H187.845V34.5933H187.288ZM194.52 33.2749V33.7583H188.558V33.2749H191.239V31.6855H189.261V28.6313H193.78V31.6855H191.803V33.2749H194.52ZM189.825 31.2241H193.224V29.0928H189.825V31.2241ZM197.584 28.8438V30.543H198.573V28.2212H199.123V34.2637H198.573V31.019H197.584V32.8428H195.094V28.8438H197.584ZM195.636 32.3813H197.042V29.3052H195.636V32.3813ZM199.877 34.5933V28.082H200.434V34.5933H199.877ZM207.109 33.2749V33.7583H201.147V33.2749H203.828V31.6855H201.85V28.6313H206.369V31.6855H204.392V33.2749H207.109ZM202.414 31.2241H205.812V29.0928H202.414V31.2241ZM210.173 28.8438V30.543H211.162V28.2212H211.711V34.2637H211.162V31.019H210.173V32.8428H207.683V28.8438H210.173ZM208.225 32.3813H209.631V29.3052H208.225V32.3813ZM212.466 34.5933V28.082H213.022V34.5933H212.466ZM219.698 33.2749V33.7583H213.736V33.2749H216.417V31.6855H214.439V28.6313H218.958V31.6855H216.98V33.2749H219.698ZM215.003 31.2241H218.401V29.0928H215.003V31.2241ZM222.762 28.8438V30.543H223.751V28.2212H224.3V34.2637H223.751V31.019H222.762V32.8428H220.272V28.8438H222.762ZM220.814 32.3813H222.22V29.3052H220.814V32.3813ZM225.055 34.5933V28.082H225.611V34.5933H225.055ZM232.287 33.2749V33.7583H226.325V33.2749H229.005V31.6855H227.028V28.6313H231.547V31.6855H229.569V33.2749H232.287ZM227.592 31.2241H230.99V29.0928H227.592V31.2241ZM235.351 28.8438V30.543H236.34V28.2212H236.889V34.2637H236.34V31.019H235.351V32.8428H232.861V28.8438H235.351ZM233.403 32.3813H234.809V29.3052H233.403V32.3813ZM237.644 34.5933V28.082H238.2V34.5933H237.644ZM244.875 33.2749V33.7583H238.914V33.2749H241.594V31.6855H239.617V28.6313H244.136V31.6855H242.158V33.2749H244.875ZM240.181 31.2241H243.579V29.0928H240.181V31.2241ZM247.94 28.8438V30.543H248.929V28.2212H249.478V34.2637H248.929V31.019H247.94V32.8428H245.45V28.8438H247.94ZM245.992 32.3813H247.398V29.3052H245.992V32.3813ZM250.232 34.5933V28.082H250.789V34.5933H250.232ZM188.226 44.2749V44.7583H182.264V44.2749H184.944V42.6855H182.967V39.6313H187.486V42.6855H185.508V44.2749H188.226ZM183.531 42.2241H186.929V40.0928H183.531V42.2241ZM191.29 39.8438V41.543H192.279V39.2212H192.828V45.2637H192.279V42.019H191.29V43.8428H188.8V39.8438H191.29ZM189.342 43.3813H190.748V40.3052H189.342V43.3813ZM193.583 45.5933V39.082H194.139V45.5933H193.583ZM200.814 44.2749V44.7583H194.853V44.2749H197.533V42.6855H195.556V39.6313H200.075V42.6855H198.097V44.2749H200.814ZM196.12 42.2241H199.518V40.0928H196.12V42.2241ZM203.879 39.8438V41.543H204.868V39.2212H205.417V45.2637H204.868V42.019H203.879V43.8428H201.389V39.8438H203.879ZM201.931 43.3813H203.337V40.3052H201.931V43.3813ZM206.171 45.5933V39.082H206.728V45.5933H206.171ZM213.403 44.2749V44.7583H207.441V44.2749H210.122V42.6855H208.145V39.6313H212.664V42.6855H210.686V44.2749H213.403ZM208.708 42.2241H212.107V40.0928H208.708V42.2241ZM216.468 39.8438V41.543H217.457V39.2212H218.006V45.2637H217.457V42.019H216.468V43.8428H213.978V39.8438H216.468ZM214.52 43.3813H215.926V40.3052H214.52V43.3813ZM218.76 45.5933V39.082H219.317V45.5933H218.76ZM225.992 44.2749V44.7583H220.03V44.2749H222.711V42.6855H220.733V39.6313H225.252V42.6855H223.275V44.2749H225.992ZM221.297 42.2241H224.696V40.0928H221.297V42.2241ZM229.057 39.8438V41.543H230.045V39.2212H230.595V45.2637H230.045V42.019H229.057V43.8428H226.566V39.8438H229.057ZM227.108 43.3813H228.515V40.3052H227.108V43.3813ZM231.349 45.5933V39.082H231.906V45.5933H231.349ZM238.581 44.2749V44.7583H232.619V44.2749H235.3V42.6855H233.322V39.6313H237.841V42.6855H235.864V44.2749H238.581ZM233.886 42.2241H237.285V40.0928H233.886V42.2241ZM241.646 39.8438V41.543H242.634V39.2212H243.184V45.2637H242.634V42.019H241.646V43.8428H239.155V39.8438H241.646ZM239.697 43.3813H241.104V40.3052H239.697V43.3813ZM243.938 45.5933V39.082H244.495V45.5933H243.938ZM251.17 44.2749V44.7583H245.208V44.2749H247.889V42.6855H245.911V39.6313H250.43V42.6855H248.453V44.2749H251.17ZM246.475 42.2241H249.874V40.0928H246.475V42.2241ZM184.996 50.8438V52.543H185.984V50.2212H186.534V56.2637H185.984V53.019H184.996V54.8428H182.505V50.8438H184.996ZM183.047 54.3813H184.454V51.3052H183.047V54.3813ZM187.288 56.5933V50.082H187.845V56.5933H187.288ZM194.52 55.2749V55.7583H188.558V55.2749H191.239V53.6855H189.261V50.6313H193.78V53.6855H191.803V55.2749H194.52ZM189.825 53.2241H193.224V51.0928H189.825V53.2241ZM197.584 50.8438V52.543H198.573V50.2212H199.123V56.2637H198.573V53.019H197.584V54.8428H195.094V50.8438H197.584ZM195.636 54.3813H197.042V51.3052H195.636V54.3813ZM199.877 56.5933V50.082H200.434V56.5933H199.877ZM207.109 55.2749V55.7583H201.147V55.2749H203.828V53.6855H201.85V50.6313H206.369V53.6855H204.392V55.2749H207.109ZM202.414 53.2241H205.812V51.0928H202.414V53.2241ZM210.173 50.8438V52.543H211.162V50.2212H211.711V56.2637H211.162V53.019H210.173V54.8428H207.683V50.8438H210.173ZM208.225 54.3813H209.631V51.3052H208.225V54.3813ZM212.466 56.5933V50.082H213.022V56.5933H212.466ZM219.698 55.2749V55.7583H213.736V55.2749H216.417V53.6855H214.439V50.6313H218.958V53.6855H216.98V55.2749H219.698ZM215.003 53.2241H218.401V51.0928H215.003V53.2241ZM222.762 50.8438V52.543H223.751V50.2212H224.3V56.2637H223.751V53.019H222.762V54.8428H220.272V50.8438H222.762ZM220.814 54.3813H222.22V51.3052H220.814V54.3813ZM225.055 56.5933V50.082H225.611V56.5933H225.055ZM232.287 55.2749V55.7583H226.325V55.2749H229.005V53.6855H227.028V50.6313H231.547V53.6855H229.569V55.2749H232.287ZM227.592 53.2241H230.99V51.0928H227.592V53.2241ZM235.351 50.8438V52.543H236.34V50.2212H236.889V56.2637H236.34V53.019H235.351V54.8428H232.861V50.8438H235.351ZM233.403 54.3813H234.809V51.3052H233.403V54.3813ZM237.644 56.5933V50.082H238.2V56.5933H237.644ZM244.875 55.2749V55.7583H238.914V55.2749H241.594V53.6855H239.617V50.6313H244.136V53.6855H242.158V55.2749H244.875ZM240.181 53.2241H243.579V51.0928H240.181V53.2241ZM247.94 50.8438V52.543H248.929V50.2212H249.478V56.2637H248.929V53.019H247.94V54.8428H245.45V50.8438H247.94ZM245.992 54.3813H247.398V51.3052H245.992V54.3813ZM250.232 56.5933V50.082H250.789V56.5933H250.232ZM188.226 66.2749V66.7583H182.264V66.2749H184.944V64.6855H182.967V61.6313H187.486V64.6855H185.508V66.2749H188.226ZM183.531 64.2241H186.929V62.0928H183.531V64.2241ZM191.29 61.8438V63.543H192.279V61.2212H192.828V67.2637H192.279V64.019H191.29V65.8428H188.8V61.8438H191.29ZM189.342 65.3813H190.748V62.3052H189.342V65.3813ZM193.583 67.5933V61.082H194.139V67.5933H193.583ZM200.814 66.2749V66.7583H194.853V66.2749H197.533V64.6855H195.556V61.6313H200.075V64.6855H198.097V66.2749H200.814ZM196.12 64.2241H199.518V62.0928H196.12V64.2241ZM203.879 61.8438V63.543H204.868V61.2212H205.417V67.2637H204.868V64.019H203.879V65.8428H201.389V61.8438H203.879ZM201.931 65.3813H203.337V62.3052H201.931V65.3813ZM206.171 67.5933V61.082H206.728V67.5933H206.171ZM213.403 66.2749V66.7583H207.441V66.2749H210.122V64.6855H208.145V61.6313H212.664V64.6855H210.686V66.2749H213.403ZM208.708 64.2241H212.107V62.0928H208.708V64.2241Z" fill="#18191A"/>
<path d="M182.398 94L182.393 93.6133L183.84 92.0898C184.341 91.5566 184.581 91.2695 184.584 90.877C184.581 90.4404 184.218 90.1592 183.74 90.1562C183.233 90.1592 182.917 90.4785 182.914 90.9531H182.416C182.41 90.2031 182.99 89.6992 183.758 89.6992C184.528 89.6992 185.073 90.2178 185.076 90.877C185.073 91.3516 184.854 91.7207 184.104 92.4941L183.131 93.4961V93.5312H185.152V94H182.398ZM187.159 94.0586C186.218 94.0586 185.673 93.2676 185.676 91.8789C185.673 90.502 186.224 89.6992 187.159 89.6992C188.09 89.6992 188.641 90.502 188.641 91.8789C188.641 93.2676 188.099 94.0586 187.159 94.0586ZM186.186 91.8789C186.189 92.9775 186.543 93.5898 187.159 93.5898C187.771 93.5898 188.128 92.9775 188.125 91.8789C188.128 90.7803 187.768 90.1592 187.159 90.1562C186.549 90.1592 186.189 90.7803 186.186 91.8789ZM189.194 94L189.188 93.6133L190.636 92.0898C191.137 91.5566 191.377 91.2695 191.38 90.877C191.377 90.4404 191.013 90.1592 190.536 90.1562C190.029 90.1592 189.713 90.4785 189.71 90.9531H189.212C189.206 90.2031 189.786 89.6992 190.554 89.6992C191.324 89.6992 191.869 90.2178 191.872 90.877C191.869 91.3516 191.649 91.7207 190.899 92.4941L189.927 93.4961V93.5312H191.948V94H189.194ZM194.042 94.0586C193.307 94.0498 192.495 93.6133 192.495 92.043C192.495 90.54 193.111 89.6992 194.107 89.6992C194.854 89.6992 195.375 90.1592 195.484 90.8242H194.962C194.865 90.4492 194.578 90.168 194.107 90.168C193.409 90.168 192.99 90.7627 192.993 91.7852H193.046C193.289 91.4307 193.679 91.2227 194.136 91.2227C194.889 91.2227 195.519 91.8086 195.519 92.6289C195.519 93.4287 194.936 94.0674 194.042 94.0586ZM193.064 92.6406C193.067 93.1387 193.474 93.5928 194.042 93.5957C194.59 93.5928 195.006 93.1621 195.009 92.6348C195.006 92.1133 194.608 91.6885 194.054 91.6855C193.497 91.6885 193.07 92.1396 193.064 92.6406ZM196.259 94.0352C196.054 94.0322 195.879 93.8623 195.884 93.6543C195.879 93.4492 196.054 93.2793 196.259 93.2793C196.467 93.2793 196.637 93.4492 196.634 93.6543C196.637 93.8623 196.467 94.0322 196.259 94.0352ZM198.506 94.0586C197.565 94.0586 197.021 93.2676 197.023 91.8789C197.021 90.502 197.571 89.6992 198.506 89.6992C199.438 89.6992 199.988 90.502 199.988 91.8789C199.988 93.2676 199.446 94.0586 198.506 94.0586ZM197.533 91.8789C197.536 92.9775 197.891 93.5898 198.506 93.5898C199.118 93.5898 199.476 92.9775 199.473 91.8789C199.476 90.7803 199.115 90.1592 198.506 90.1562C197.896 90.1592 197.536 90.7803 197.533 91.8789ZM200.541 94L200.536 93.6133L201.983 92.0898C202.484 91.5566 202.724 91.2695 202.727 90.877C202.724 90.4404 202.361 90.1592 201.883 90.1562C201.376 90.1592 201.06 90.4785 201.057 90.9531H200.559C200.553 90.2031 201.133 89.6992 201.901 89.6992C202.671 89.6992 203.216 90.2178 203.219 90.877C203.216 91.3516 202.996 91.7207 202.246 92.4941L201.274 93.4961V93.5312H203.295V94H200.541ZM204.276 94.0352C204.071 94.0322 203.895 93.8623 203.901 93.6543C203.895 93.4492 204.071 93.2793 204.276 93.2793C204.484 93.2793 204.654 93.4492 204.651 93.6543C204.654 93.8623 204.484 94.0322 204.276 94.0352ZM206.523 94.0586C205.582 94.0586 205.037 93.2676 205.04 91.8789C205.037 90.502 205.588 89.6992 206.523 89.6992C207.454 89.6992 208.005 90.502 208.005 91.8789C208.005 93.2676 207.463 94.0586 206.523 94.0586ZM205.55 91.8789C205.553 92.9775 205.907 93.5898 206.523 93.5898C207.135 93.5898 207.492 92.9775 207.489 91.8789C207.492 90.7803 207.132 90.1592 206.523 90.1562C205.913 90.1592 205.553 90.7803 205.55 91.8789ZM209.941 94.0586C209.176 94.0586 208.596 93.5869 208.564 92.9336H209.074C209.112 93.3115 209.481 93.5928 209.941 93.5957C210.492 93.5928 210.89 93.1914 210.89 92.6582C210.89 92.1074 210.477 91.7002 209.906 91.6973C209.548 91.6914 209.27 91.8027 209.115 92.0781H208.605L208.904 89.7578H211.201V90.2266H209.343L209.185 91.4688H209.226C209.417 91.3223 209.701 91.2227 210 91.2227C210.808 91.2227 211.403 91.8203 211.406 92.6465C211.403 93.4668 210.788 94.0586 209.941 94.0586Z" fill="#4B4D51"/>
<rect x="267" y="10" width="85" height="90" rx="6" fill="#E6EEFE"/>
<path d="M275.006 21H273.387V16.4043H275.025C276.409 16.4043 277.256 17.2644 277.253 18.6958C277.256 20.1335 276.409 21 275.006 21ZM274.339 20.1812H274.968C275.844 20.1812 276.301 19.7273 276.301 18.6958C276.301 17.6738 275.844 17.2231 274.974 17.2231H274.339V20.1812ZM277.763 21V17.5532H278.671V18.1499H278.709C278.833 17.7278 279.153 17.5024 279.541 17.5024C279.636 17.5024 279.756 17.5151 279.839 17.5342V18.3721C279.75 18.3435 279.569 18.3213 279.439 18.3213C279.014 18.3213 278.7 18.6165 278.703 19.0386V21H277.763ZM281.574 21.0698C280.533 21.0667 279.883 20.3525 279.886 19.2861C279.883 18.2229 280.533 17.5088 281.574 17.5088C282.619 17.5088 283.266 18.2229 283.269 19.2861C283.266 20.3525 282.619 21.0667 281.574 21.0698ZM280.838 19.2861C280.838 19.8892 281.089 20.3367 281.581 20.3398C282.06 20.3367 282.314 19.8892 282.311 19.2861C282.314 18.6799 282.06 18.2261 281.581 18.2261C281.089 18.2261 280.838 18.6799 280.838 19.2861ZM284.637 19.0068V21H283.697V17.5532H284.592V18.1562H284.63C284.786 17.7595 285.154 17.5088 285.665 17.5088C286.385 17.5088 286.855 18.0007 286.852 18.8037V21H285.919V18.9688C285.916 18.5435 285.687 18.2896 285.297 18.2896C284.906 18.2896 284.637 18.553 284.637 19.0068ZM288.981 21.0698C287.924 21.0667 287.277 20.3843 287.28 19.2925C287.277 18.2292 287.933 17.5088 288.943 17.5088C289.847 17.5088 290.561 18.0801 290.561 19.2544V19.521H288.206C288.206 20.0415 288.514 20.3621 289 20.3652C289.32 20.3621 289.549 20.2224 289.641 20.0161H290.536C290.403 20.6541 289.831 21.0667 288.981 21.0698ZM288.206 18.9307H289.673C289.67 18.5117 289.381 18.2102 288.962 18.2134C288.53 18.2102 288.225 18.5339 288.206 18.9307Z" fill="#236BF6"/>
<path d="M338.917 18.9998C338.917 19.2209 338.829 19.4328 338.673 19.5891C338.516 19.7454 338.304 19.8332 338.083 19.8332C337.862 19.8332 337.65 19.7454 337.494 19.5891C337.338 19.4328 337.25 19.2209 337.25 18.9998C337.25 18.7788 337.338 18.5669 337.494 18.4106C337.65 18.2543 337.862 18.1665 338.083 18.1665C338.304 18.1665 338.516 18.2543 338.673 18.4106C338.829 18.5669 338.917 18.7788 338.917 18.9998ZM341.833 18.9998C341.833 19.2209 341.746 19.4328 341.589 19.5891C341.433 19.7454 341.221 19.8332 341 19.8332C340.779 19.8332 340.567 19.7454 340.411 19.5891C340.254 19.4328 340.167 19.2209 340.167 18.9998C340.167 18.7788 340.254 18.5669 340.411 18.4106C340.567 18.2543 340.779 18.1665 341 18.1665C341.221 18.1665 341.433 18.2543 341.589 18.4106C341.746 18.5669 341.833 18.7788 341.833 18.9998ZM344.75 18.9998C344.75 19.2209 344.662 19.4328 344.506 19.5891C344.35 19.7454 344.138 19.8332 343.917 19.8332C343.696 19.8332 343.484 19.7454 343.327 19.5891C343.171 19.4328 343.083 19.2209 343.083 18.9998C343.083 18.7788 343.171 18.5669 343.327 18.4106C343.484 18.2543 343.696 18.1665 343.917 18.1665C344.138 18.1665 344.35 18.2543 344.506 18.4106C344.662 18.5669 344.75 18.7788 344.75 18.9998Z" fill="#4B4D51"/>
<path d="M275.996 28.8438V30.543H276.984V28.2212H277.534V34.2637H276.984V31.019H275.996V32.8428H273.505V28.8438H275.996ZM274.047 32.3813H275.454V29.3052H274.047V32.3813ZM278.288 34.5933V28.082H278.845V34.5933H278.288ZM285.52 33.2749V33.7583H279.558V33.2749H282.239V31.6855H280.261V28.6313H284.78V31.6855H282.803V33.2749H285.52ZM280.825 31.2241H284.224V29.0928H280.825V31.2241ZM288.584 28.8438V30.543H289.573V28.2212H290.123V34.2637H289.573V31.019H288.584V32.8428H286.094V28.8438H288.584ZM286.636 32.3813H288.042V29.3052H286.636V32.3813ZM290.877 34.5933V28.082H291.434V34.5933H290.877ZM298.109 33.2749V33.7583H292.147V33.2749H294.828V31.6855H292.85V28.6313H297.369V31.6855H295.392V33.2749H298.109ZM293.414 31.2241H296.812V29.0928H293.414V31.2241ZM301.173 28.8438V30.543H302.162V28.2212H302.711V34.2637H302.162V31.019H301.173V32.8428H298.683V28.8438H301.173ZM299.225 32.3813H300.631V29.3052H299.225V32.3813ZM303.466 34.5933V28.082H304.022V34.5933H303.466ZM310.698 33.2749V33.7583H304.736V33.2749H307.417V31.6855H305.439V28.6313H309.958V31.6855H307.98V33.2749H310.698ZM306.003 31.2241H309.401V29.0928H306.003V31.2241ZM313.762 28.8438V30.543H314.751V28.2212H315.3V34.2637H314.751V31.019H313.762V32.8428H311.272V28.8438H313.762ZM311.814 32.3813H313.22V29.3052H311.814V32.3813ZM316.055 34.5933V28.082H316.611V34.5933H316.055ZM323.287 33.2749V33.7583H317.325V33.2749H320.005V31.6855H318.028V28.6313H322.547V31.6855H320.569V33.2749H323.287ZM318.592 31.2241H321.99V29.0928H318.592V31.2241ZM326.351 28.8438V30.543H327.34V28.2212H327.889V34.2637H327.34V31.019H326.351V32.8428H323.861V28.8438H326.351ZM324.403 32.3813H325.809V29.3052H324.403V32.3813ZM328.644 34.5933V28.082H329.2V34.5933H328.644ZM335.875 33.2749V33.7583H329.914V33.2749H332.594V31.6855H330.617V28.6313H335.136V31.6855H333.158V33.2749H335.875ZM331.181 31.2241H334.579V29.0928H331.181V31.2241ZM338.94 28.8438V30.543H339.929V28.2212H340.478V34.2637H339.929V31.019H338.94V32.8428H336.45V28.8438H338.94ZM336.992 32.3813H338.398V29.3052H336.992V32.3813ZM341.232 34.5933V28.082H341.789V34.5933H341.232ZM279.226 44.2749V44.7583H273.264V44.2749H275.944V42.6855H273.967V39.6313H278.486V42.6855H276.508V44.2749H279.226ZM274.531 42.2241H277.929V40.0928H274.531V42.2241ZM282.29 39.8438V41.543H283.279V39.2212H283.828V45.2637H283.279V42.019H282.29V43.8428H279.8V39.8438H282.29ZM280.342 43.3813H281.748V40.3052H280.342V43.3813ZM284.583 45.5933V39.082H285.139V45.5933H284.583ZM291.814 44.2749V44.7583H285.853V44.2749H288.533V42.6855H286.556V39.6313H291.075V42.6855H289.097V44.2749H291.814ZM287.12 42.2241H290.518V40.0928H287.12V42.2241ZM294.879 39.8438V41.543H295.868V39.2212H296.417V45.2637H295.868V42.019H294.879V43.8428H292.389V39.8438H294.879ZM292.931 43.3813H294.337V40.3052H292.931V43.3813ZM297.171 45.5933V39.082H297.728V45.5933H297.171ZM304.403 44.2749V44.7583H298.441V44.2749H301.122V42.6855H299.145V39.6313H303.664V42.6855H301.686V44.2749H304.403ZM299.708 42.2241H303.107V40.0928H299.708V42.2241ZM307.468 39.8438V41.543H308.457V39.2212H309.006V45.2637H308.457V42.019H307.468V43.8428H304.978V39.8438H307.468ZM305.52 43.3813H306.926V40.3052H305.52V43.3813ZM309.76 45.5933V39.082H310.317V45.5933H309.76ZM316.992 44.2749V44.7583H311.03V44.2749H313.711V42.6855H311.733V39.6313H316.252V42.6855H314.275V44.2749H316.992ZM312.297 42.2241H315.696V40.0928H312.297V42.2241ZM320.057 39.8438V41.543H321.045V39.2212H321.595V45.2637H321.045V42.019H320.057V43.8428H317.566V39.8438H320.057ZM318.108 43.3813H319.515V40.3052H318.108V43.3813ZM322.349 45.5933V39.082H322.906V45.5933H322.349ZM329.581 44.2749V44.7583H323.619V44.2749H326.3V42.6855H324.322V39.6313H328.841V42.6855H326.864V44.2749H329.581ZM324.886 42.2241H328.285V40.0928H324.886V42.2241ZM332.646 39.8438V41.543H333.634V39.2212H334.184V45.2637H333.634V42.019H332.646V43.8428H330.155V39.8438H332.646ZM330.697 43.3813H332.104V40.3052H330.697V43.3813ZM334.938 45.5933V39.082H335.495V45.5933H334.938ZM342.17 44.2749V44.7583H336.208V44.2749H338.889V42.6855H336.911V39.6313H341.43V42.6855H339.453V44.2749H342.17ZM337.475 42.2241H340.874V40.0928H337.475V42.2241ZM275.996 50.8438V52.543H276.984V50.2212H277.534V56.2637H276.984V53.019H275.996V54.8428H273.505V50.8438H275.996ZM274.047 54.3813H275.454V51.3052H274.047V54.3813ZM278.288 56.5933V50.082H278.845V56.5933H278.288ZM285.52 55.2749V55.7583H279.558V55.2749H282.239V53.6855H280.261V50.6313H284.78V53.6855H282.803V55.2749H285.52ZM280.825 53.2241H284.224V51.0928H280.825V53.2241ZM288.584 50.8438V52.543H289.573V50.2212H290.123V56.2637H289.573V53.019H288.584V54.8428H286.094V50.8438H288.584ZM286.636 54.3813H288.042V51.3052H286.636V54.3813ZM290.877 56.5933V50.082H291.434V56.5933H290.877ZM298.109 55.2749V55.7583H292.147V55.2749H294.828V53.6855H292.85V50.6313H297.369V53.6855H295.392V55.2749H298.109ZM293.414 53.2241H296.812V51.0928H293.414V53.2241ZM301.173 50.8438V52.543H302.162V50.2212H302.711V56.2637H302.162V53.019H301.173V54.8428H298.683V50.8438H301.173ZM299.225 54.3813H300.631V51.3052H299.225V54.3813ZM303.466 56.5933V50.082H304.022V56.5933H303.466ZM310.698 55.2749V55.7583H304.736V55.2749H307.417V53.6855H305.439V50.6313H309.958V53.6855H307.98V55.2749H310.698ZM306.003 53.2241H309.401V51.0928H306.003V53.2241ZM313.762 50.8438V52.543H314.751V50.2212H315.3V56.2637H314.751V53.019H313.762V54.8428H311.272V50.8438H313.762ZM311.814 54.3813H313.22V51.3052H311.814V54.3813ZM316.055 56.5933V50.082H316.611V56.5933H316.055ZM323.287 55.2749V55.7583H317.325V55.2749H320.005V53.6855H318.028V50.6313H322.547V53.6855H320.569V55.2749H323.287ZM318.592 53.2241H321.99V51.0928H318.592V53.2241ZM326.351 50.8438V52.543H327.34V50.2212H327.889V56.2637H327.34V53.019H326.351V54.8428H323.861V50.8438H326.351ZM324.403 54.3813H325.809V51.3052H324.403V54.3813ZM328.644 56.5933V50.082H329.2V56.5933H328.644ZM335.875 55.2749V55.7583H329.914V55.2749H332.594V53.6855H330.617V50.6313H335.136V53.6855H333.158V55.2749H335.875ZM331.181 53.2241H334.579V51.0928H331.181V53.2241ZM338.94 50.8438V52.543H339.929V50.2212H340.478V56.2637H339.929V53.019H338.94V54.8428H336.45V50.8438H338.94ZM336.992 54.3813H338.398V51.3052H336.992V54.3813ZM341.232 56.5933V50.082H341.789V56.5933H341.232ZM279.226 66.2749V66.7583H273.264V66.2749H275.944V64.6855H273.967V61.6313H278.486V64.6855H276.508V66.2749H279.226ZM274.531 64.2241H277.929V62.0928H274.531V64.2241ZM282.29 61.8438V63.543H283.279V61.2212H283.828V67.2637H283.279V64.019H282.29V65.8428H279.8V61.8438H282.29ZM280.342 65.3813H281.748V62.3052H280.342V65.3813ZM284.583 67.5933V61.082H285.139V67.5933H284.583ZM291.814 66.2749V66.7583H285.853V66.2749H288.533V64.6855H286.556V61.6313H291.075V64.6855H289.097V66.2749H291.814ZM287.12 64.2241H290.518V62.0928H287.12V64.2241ZM294.879 61.8438V63.543H295.868V61.2212H296.417V67.2637H295.868V64.019H294.879V65.8428H292.389V61.8438H294.879ZM292.931 65.3813H294.337V62.3052H292.931V65.3813ZM297.171 67.5933V61.082H297.728V67.5933H297.171ZM304.403 66.2749V66.7583H298.441V66.2749H301.122V64.6855H299.145V61.6313H303.664V64.6855H301.686V66.2749H304.403ZM299.708 64.2241H303.107V62.0928H299.708V64.2241Z" fill="#18191A"/>
<path d="M273.398 94L273.393 93.6133L274.84 92.0898C275.341 91.5566 275.581 91.2695 275.584 90.877C275.581 90.4404 275.218 90.1592 274.74 90.1562C274.233 90.1592 273.917 90.4785 273.914 90.9531H273.416C273.41 90.2031 273.99 89.6992 274.758 89.6992C275.528 89.6992 276.073 90.2178 276.076 90.877C276.073 91.3516 275.854 91.7207 275.104 92.4941L274.131 93.4961V93.5312H276.152V94H273.398ZM278.159 94.0586C277.218 94.0586 276.673 93.2676 276.676 91.8789C276.673 90.502 277.224 89.6992 278.159 89.6992C279.09 89.6992 279.641 90.502 279.641 91.8789C279.641 93.2676 279.099 94.0586 278.159 94.0586ZM277.186 91.8789C277.189 92.9775 277.543 93.5898 278.159 93.5898C278.771 93.5898 279.128 92.9775 279.125 91.8789C279.128 90.7803 278.768 90.1592 278.159 90.1562C277.549 90.1592 277.189 90.7803 277.186 91.8789ZM280.194 94L280.188 93.6133L281.636 92.0898C282.137 91.5566 282.377 91.2695 282.38 90.877C282.377 90.4404 282.013 90.1592 281.536 90.1562C281.029 90.1592 280.713 90.4785 280.71 90.9531H280.212C280.206 90.2031 280.786 89.6992 281.554 89.6992C282.324 89.6992 282.869 90.2178 282.872 90.877C282.869 91.3516 282.649 91.7207 281.899 92.4941L280.927 93.4961V93.5312H282.948V94H280.194ZM285.042 94.0586C284.307 94.0498 283.495 93.6133 283.495 92.043C283.495 90.54 284.111 89.6992 285.107 89.6992C285.854 89.6992 286.375 90.1592 286.484 90.8242H285.962C285.865 90.4492 285.578 90.168 285.107 90.168C284.409 90.168 283.99 90.7627 283.993 91.7852H284.046C284.289 91.4307 284.679 91.2227 285.136 91.2227C285.889 91.2227 286.519 91.8086 286.519 92.6289C286.519 93.4287 285.936 94.0674 285.042 94.0586ZM284.064 92.6406C284.067 93.1387 284.474 93.5928 285.042 93.5957C285.59 93.5928 286.006 93.1621 286.009 92.6348C286.006 92.1133 285.608 91.6885 285.054 91.6855C284.497 91.6885 284.07 92.1396 284.064 92.6406ZM287.259 94.0352C287.054 94.0322 286.879 93.8623 286.884 93.6543C286.879 93.4492 287.054 93.2793 287.259 93.2793C287.467 93.2793 287.637 93.4492 287.634 93.6543C287.637 93.8623 287.467 94.0322 287.259 94.0352ZM289.506 94.0586C288.565 94.0586 288.021 93.2676 288.023 91.8789C288.021 90.502 288.571 89.6992 289.506 89.6992C290.438 89.6992 290.988 90.502 290.988 91.8789C290.988 93.2676 290.446 94.0586 289.506 94.0586ZM288.533 91.8789C288.536 92.9775 288.891 93.5898 289.506 93.5898C290.118 93.5898 290.476 92.9775 290.473 91.8789C290.476 90.7803 290.115 90.1592 289.506 90.1562C288.896 90.1592 288.536 90.7803 288.533 91.8789ZM291.541 94L291.536 93.6133L292.983 92.0898C293.484 91.5566 293.724 91.2695 293.727 90.877C293.724 90.4404 293.361 90.1592 292.883 90.1562C292.376 90.1592 292.06 90.4785 292.057 90.9531H291.559C291.553 90.2031 292.133 89.6992 292.901 89.6992C293.671 89.6992 294.216 90.2178 294.219 90.877C294.216 91.3516 293.996 91.7207 293.246 92.4941L292.274 93.4961V93.5312H294.295V94H291.541ZM295.276 94.0352C295.071 94.0322 294.895 93.8623 294.901 93.6543C294.895 93.4492 295.071 93.2793 295.276 93.2793C295.484 93.2793 295.654 93.4492 295.651 93.6543C295.654 93.8623 295.484 94.0322 295.276 94.0352ZM297.523 94.0586C296.582 94.0586 296.037 93.2676 296.04 91.8789C296.037 90.502 296.588 89.6992 297.523 89.6992C298.454 89.6992 299.005 90.502 299.005 91.8789C299.005 93.2676 298.463 94.0586 297.523 94.0586ZM296.55 91.8789C296.553 92.9775 296.907 93.5898 297.523 93.5898C298.135 93.5898 298.492 92.9775 298.489 91.8789C298.492 90.7803 298.132 90.1592 297.523 90.1562C296.913 90.1592 296.553 90.7803 296.55 91.8789ZM300.941 94.0586C300.176 94.0586 299.596 93.5869 299.564 92.9336H300.074C300.112 93.3115 300.481 93.5928 300.941 93.5957C301.492 93.5928 301.89 93.1914 301.89 92.6582C301.89 92.1074 301.477 91.7002 300.906 91.6973C300.548 91.6914 300.27 91.8027 300.115 92.0781H299.605L299.904 89.7578H302.201V90.2266H300.343L300.185 91.4688H300.226C300.417 91.3223 300.701 91.2227 301 91.2227C301.808 91.2227 302.403 91.8203 302.406 92.6465C302.403 93.4668 301.788 94.0586 300.941 94.0586Z" fill="#4B4D51"/>
<rect x="358" y="10" width="85" height="90" rx="6" fill="#E6EEFE"/>
<path d="M366.006 21H364.387V16.4043H366.025C367.409 16.4043 368.256 17.2644 368.253 18.6958C368.256 20.1335 367.409 21 366.006 21ZM365.339 20.1812H365.968C366.844 20.1812 367.301 19.7273 367.301 18.6958C367.301 17.6738 366.844 17.2231 365.974 17.2231H365.339V20.1812ZM368.763 21V17.5532H369.671V18.1499H369.709C369.833 17.7278 370.153 17.5024 370.541 17.5024C370.636 17.5024 370.756 17.5151 370.839 17.5342V18.3721C370.75 18.3435 370.569 18.3213 370.439 18.3213C370.014 18.3213 369.7 18.6165 369.703 19.0386V21H368.763ZM372.574 21.0698C371.533 21.0667 370.883 20.3525 370.886 19.2861C370.883 18.2229 371.533 17.5088 372.574 17.5088C373.619 17.5088 374.266 18.2229 374.269 19.2861C374.266 20.3525 373.619 21.0667 372.574 21.0698ZM371.838 19.2861C371.838 19.8892 372.089 20.3367 372.581 20.3398C373.06 20.3367 373.314 19.8892 373.311 19.2861C373.314 18.6799 373.06 18.2261 372.581 18.2261C372.089 18.2261 371.838 18.6799 371.838 19.2861ZM375.637 19.0068V21H374.697V17.5532H375.592V18.1562H375.63C375.786 17.7595 376.154 17.5088 376.665 17.5088C377.385 17.5088 377.855 18.0007 377.852 18.8037V21H376.919V18.9688C376.916 18.5435 376.687 18.2896 376.297 18.2896C375.906 18.2896 375.637 18.553 375.637 19.0068ZM379.981 21.0698C378.924 21.0667 378.277 20.3843 378.28 19.2925C378.277 18.2292 378.933 17.5088 379.943 17.5088C380.847 17.5088 381.561 18.0801 381.561 19.2544V19.521H379.206C379.206 20.0415 379.514 20.3621 380 20.3652C380.32 20.3621 380.549 20.2224 380.641 20.0161H381.536C381.403 20.6541 380.831 21.0667 379.981 21.0698ZM379.206 18.9307H380.673C380.67 18.5117 380.381 18.2102 379.962 18.2134C379.53 18.2102 379.225 18.5339 379.206 18.9307Z" fill="#236BF6"/>
<path d="M429.917 18.9998C429.917 19.2209 429.829 19.4328 429.673 19.5891C429.516 19.7454 429.304 19.8332 429.083 19.8332C428.862 19.8332 428.65 19.7454 428.494 19.5891C428.338 19.4328 428.25 19.2209 428.25 18.9998C428.25 18.7788 428.338 18.5669 428.494 18.4106C428.65 18.2543 428.862 18.1665 429.083 18.1665C429.304 18.1665 429.516 18.2543 429.673 18.4106C429.829 18.5669 429.917 18.7788 429.917 18.9998ZM432.833 18.9998C432.833 19.2209 432.746 19.4328 432.589 19.5891C432.433 19.7454 432.221 19.8332 432 19.8332C431.779 19.8332 431.567 19.7454 431.411 19.5891C431.254 19.4328 431.167 19.2209 431.167 18.9998C431.167 18.7788 431.254 18.5669 431.411 18.4106C431.567 18.2543 431.779 18.1665 432 18.1665C432.221 18.1665 432.433 18.2543 432.589 18.4106C432.746 18.5669 432.833 18.7788 432.833 18.9998ZM435.75 18.9998C435.75 19.2209 435.662 19.4328 435.506 19.5891C435.35 19.7454 435.138 19.8332 434.917 19.8332C434.696 19.8332 434.484 19.7454 434.327 19.5891C434.171 19.4328 434.083 19.2209 434.083 18.9998C434.083 18.7788 434.171 18.5669 434.327 18.4106C434.484 18.2543 434.696 18.1665 434.917 18.1665C435.138 18.1665 435.35 18.2543 435.506 18.4106C435.662 18.5669 435.75 18.7788 435.75 18.9998Z" fill="#4B4D51"/>
<path d="M366.996 28.8438V30.543H367.984V28.2212H368.534V34.2637H367.984V31.019H366.996V32.8428H364.505V28.8438H366.996ZM365.047 32.3813H366.454V29.3052H365.047V32.3813ZM369.288 34.5933V28.082H369.845V34.5933H369.288ZM376.52 33.2749V33.7583H370.558V33.2749H373.239V31.6855H371.261V28.6313H375.78V31.6855H373.803V33.2749H376.52ZM371.825 31.2241H375.224V29.0928H371.825V31.2241ZM379.584 28.8438V30.543H380.573V28.2212H381.123V34.2637H380.573V31.019H379.584V32.8428H377.094V28.8438H379.584ZM377.636 32.3813H379.042V29.3052H377.636V32.3813ZM381.877 34.5933V28.082H382.434V34.5933H381.877ZM389.109 33.2749V33.7583H383.147V33.2749H385.828V31.6855H383.85V28.6313H388.369V31.6855H386.392V33.2749H389.109ZM384.414 31.2241H387.812V29.0928H384.414V31.2241ZM392.173 28.8438V30.543H393.162V28.2212H393.711V34.2637H393.162V31.019H392.173V32.8428H389.683V28.8438H392.173ZM390.225 32.3813H391.631V29.3052H390.225V32.3813ZM394.466 34.5933V28.082H395.022V34.5933H394.466ZM401.698 33.2749V33.7583H395.736V33.2749H398.417V31.6855H396.439V28.6313H400.958V31.6855H398.98V33.2749H401.698ZM397.003 31.2241H400.401V29.0928H397.003V31.2241ZM404.762 28.8438V30.543H405.751V28.2212H406.3V34.2637H405.751V31.019H404.762V32.8428H402.272V28.8438H404.762ZM402.814 32.3813H404.22V29.3052H402.814V32.3813ZM407.055 34.5933V28.082H407.611V34.5933H407.055ZM414.287 33.2749V33.7583H408.325V33.2749H411.005V31.6855H409.028V28.6313H413.547V31.6855H411.569V33.2749H414.287ZM409.592 31.2241H412.99V29.0928H409.592V31.2241ZM417.351 28.8438V30.543H418.34V28.2212H418.889V34.2637H418.34V31.019H417.351V32.8428H414.861V28.8438H417.351ZM415.403 32.3813H416.809V29.3052H415.403V32.3813ZM419.644 34.5933V28.082H420.2V34.5933H419.644ZM426.875 33.2749V33.7583H420.914V33.2749H423.594V31.6855H421.617V28.6313H426.136V31.6855H424.158V33.2749H426.875ZM422.181 31.2241H425.579V29.0928H422.181V31.2241ZM429.94 28.8438V30.543H430.929V28.2212H431.478V34.2637H430.929V31.019H429.94V32.8428H427.45V28.8438H429.94ZM427.992 32.3813H429.398V29.3052H427.992V32.3813ZM432.232 34.5933V28.082H432.789V34.5933H432.232ZM370.226 44.2749V44.7583H364.264V44.2749H366.944V42.6855H364.967V39.6313H369.486V42.6855H367.508V44.2749H370.226ZM365.531 42.2241H368.929V40.0928H365.531V42.2241ZM373.29 39.8438V41.543H374.279V39.2212H374.828V45.2637H374.279V42.019H373.29V43.8428H370.8V39.8438H373.29ZM371.342 43.3813H372.748V40.3052H371.342V43.3813ZM375.583 45.5933V39.082H376.139V45.5933H375.583ZM382.814 44.2749V44.7583H376.853V44.2749H379.533V42.6855H377.556V39.6313H382.075V42.6855H380.097V44.2749H382.814ZM378.12 42.2241H381.518V40.0928H378.12V42.2241ZM385.879 39.8438V41.543H386.868V39.2212H387.417V45.2637H386.868V42.019H385.879V43.8428H383.389V39.8438H385.879ZM383.931 43.3813H385.337V40.3052H383.931V43.3813ZM388.171 45.5933V39.082H388.728V45.5933H388.171ZM395.403 44.2749V44.7583H389.441V44.2749H392.122V42.6855H390.145V39.6313H394.664V42.6855H392.686V44.2749H395.403ZM390.708 42.2241H394.107V40.0928H390.708V42.2241ZM398.468 39.8438V41.543H399.457V39.2212H400.006V45.2637H399.457V42.019H398.468V43.8428H395.978V39.8438H398.468ZM396.52 43.3813H397.926V40.3052H396.52V43.3813ZM400.76 45.5933V39.082H401.317V45.5933H400.76ZM407.992 44.2749V44.7583H402.03V44.2749H404.711V42.6855H402.733V39.6313H407.252V42.6855H405.275V44.2749H407.992ZM403.297 42.2241H406.696V40.0928H403.297V42.2241ZM411.057 39.8438V41.543H412.045V39.2212H412.595V45.2637H412.045V42.019H411.057V43.8428H408.566V39.8438H411.057ZM409.108 43.3813H410.515V40.3052H409.108V43.3813ZM413.349 45.5933V39.082H413.906V45.5933H413.349ZM420.581 44.2749V44.7583H414.619V44.2749H417.3V42.6855H415.322V39.6313H419.841V42.6855H417.864V44.2749H420.581ZM415.886 42.2241H419.285V40.0928H415.886V42.2241ZM423.646 39.8438V41.543H424.634V39.2212H425.184V45.2637H424.634V42.019H423.646V43.8428H421.155V39.8438H423.646ZM421.697 43.3813H423.104V40.3052H421.697V43.3813ZM425.938 45.5933V39.082H426.495V45.5933H425.938ZM433.17 44.2749V44.7583H427.208V44.2749H429.889V42.6855H427.911V39.6313H432.43V42.6855H430.453V44.2749H433.17ZM428.475 42.2241H431.874V40.0928H428.475V42.2241ZM366.996 50.8438V52.543H367.984V50.2212H368.534V56.2637H367.984V53.019H366.996V54.8428H364.505V50.8438H366.996ZM365.047 54.3813H366.454V51.3052H365.047V54.3813ZM369.288 56.5933V50.082H369.845V56.5933H369.288ZM376.52 55.2749V55.7583H370.558V55.2749H373.239V53.6855H371.261V50.6313H375.78V53.6855H373.803V55.2749H376.52ZM371.825 53.2241H375.224V51.0928H371.825V53.2241ZM379.584 50.8438V52.543H380.573V50.2212H381.123V56.2637H380.573V53.019H379.584V54.8428H377.094V50.8438H379.584ZM377.636 54.3813H379.042V51.3052H377.636V54.3813ZM381.877 56.5933V50.082H382.434V56.5933H381.877ZM389.109 55.2749V55.7583H383.147V55.2749H385.828V53.6855H383.85V50.6313H388.369V53.6855H386.392V55.2749H389.109ZM384.414 53.2241H387.812V51.0928H384.414V53.2241ZM392.173 50.8438V52.543H393.162V50.2212H393.711V56.2637H393.162V53.019H392.173V54.8428H389.683V50.8438H392.173ZM390.225 54.3813H391.631V51.3052H390.225V54.3813ZM394.466 56.5933V50.082H395.022V56.5933H394.466ZM401.698 55.2749V55.7583H395.736V55.2749H398.417V53.6855H396.439V50.6313H400.958V53.6855H398.98V55.2749H401.698ZM397.003 53.2241H400.401V51.0928H397.003V53.2241ZM404.762 50.8438V52.543H405.751V50.2212H406.3V56.2637H405.751V53.019H404.762V54.8428H402.272V50.8438H404.762ZM402.814 54.3813H404.22V51.3052H402.814V54.3813ZM407.055 56.5933V50.082H407.611V56.5933H407.055ZM414.287 55.2749V55.7583H408.325V55.2749H411.005V53.6855H409.028V50.6313H413.547V53.6855H411.569V55.2749H414.287ZM409.592 53.2241H412.99V51.0928H409.592V53.2241ZM417.351 50.8438V52.543H418.34V50.2212H418.889V56.2637H418.34V53.019H417.351V54.8428H414.861V50.8438H417.351ZM415.403 54.3813H416.809V51.3052H415.403V54.3813ZM419.644 56.5933V50.082H420.2V56.5933H419.644ZM426.875 55.2749V55.7583H420.914V55.2749H423.594V53.6855H421.617V50.6313H426.136V53.6855H424.158V55.2749H426.875ZM422.181 53.2241H425.579V51.0928H422.181V53.2241ZM429.94 50.8438V52.543H430.929V50.2212H431.478V56.2637H430.929V53.019H429.94V54.8428H427.45V50.8438H429.94ZM427.992 54.3813H429.398V51.3052H427.992V54.3813ZM432.232 56.5933V50.082H432.789V56.5933H432.232ZM370.226 66.2749V66.7583H364.264V66.2749H366.944V64.6855H364.967V61.6313H369.486V64.6855H367.508V66.2749H370.226ZM365.531 64.2241H368.929V62.0928H365.531V64.2241ZM373.29 61.8438V63.543H374.279V61.2212H374.828V67.2637H374.279V64.019H373.29V65.8428H370.8V61.8438H373.29ZM371.342 65.3813H372.748V62.3052H371.342V65.3813ZM375.583 67.5933V61.082H376.139V67.5933H375.583ZM382.814 66.2749V66.7583H376.853V66.2749H379.533V64.6855H377.556V61.6313H382.075V64.6855H380.097V66.2749H382.814ZM378.12 64.2241H381.518V62.0928H378.12V64.2241ZM385.879 61.8438V63.543H386.868V61.2212H387.417V67.2637H386.868V64.019H385.879V65.8428H383.389V61.8438H385.879ZM383.931 65.3813H385.337V62.3052H383.931V65.3813ZM388.171 67.5933V61.082H388.728V67.5933H388.171ZM395.403 66.2749V66.7583H389.441V66.2749H392.122V64.6855H390.145V61.6313H394.664V64.6855H392.686V66.2749H395.403ZM390.708 64.2241H394.107V62.0928H390.708V64.2241Z" fill="#18191A"/>
<path d="M364.398 94L364.393 93.6133L365.84 92.0898C366.341 91.5566 366.581 91.2695 366.584 90.877C366.581 90.4404 366.218 90.1592 365.74 90.1562C365.233 90.1592 364.917 90.4785 364.914 90.9531H364.416C364.41 90.2031 364.99 89.6992 365.758 89.6992C366.528 89.6992 367.073 90.2178 367.076 90.877C367.073 91.3516 366.854 91.7207 366.104 92.4941L365.131 93.4961V93.5312H367.152V94H364.398ZM369.159 94.0586C368.218 94.0586 367.673 93.2676 367.676 91.8789C367.673 90.502 368.224 89.6992 369.159 89.6992C370.09 89.6992 370.641 90.502 370.641 91.8789C370.641 93.2676 370.099 94.0586 369.159 94.0586ZM368.186 91.8789C368.189 92.9775 368.543 93.5898 369.159 93.5898C369.771 93.5898 370.128 92.9775 370.125 91.8789C370.128 90.7803 369.768 90.1592 369.159 90.1562C368.549 90.1592 368.189 90.7803 368.186 91.8789ZM371.194 94L371.188 93.6133L372.636 92.0898C373.137 91.5566 373.377 91.2695 373.38 90.877C373.377 90.4404 373.013 90.1592 372.536 90.1562C372.029 90.1592 371.713 90.4785 371.71 90.9531H371.212C371.206 90.2031 371.786 89.6992 372.554 89.6992C373.324 89.6992 373.869 90.2178 373.872 90.877C373.869 91.3516 373.649 91.7207 372.899 92.4941L371.927 93.4961V93.5312H373.948V94H371.194ZM376.042 94.0586C375.307 94.0498 374.495 93.6133 374.495 92.043C374.495 90.54 375.111 89.6992 376.107 89.6992C376.854 89.6992 377.375 90.1592 377.484 90.8242H376.962C376.865 90.4492 376.578 90.168 376.107 90.168C375.409 90.168 374.99 90.7627 374.993 91.7852H375.046C375.289 91.4307 375.679 91.2227 376.136 91.2227C376.889 91.2227 377.519 91.8086 377.519 92.6289C377.519 93.4287 376.936 94.0674 376.042 94.0586ZM375.064 92.6406C375.067 93.1387 375.474 93.5928 376.042 93.5957C376.59 93.5928 377.006 93.1621 377.009 92.6348C377.006 92.1133 376.608 91.6885 376.054 91.6855C375.497 91.6885 375.07 92.1396 375.064 92.6406ZM378.259 94.0352C378.054 94.0322 377.879 93.8623 377.884 93.6543C377.879 93.4492 378.054 93.2793 378.259 93.2793C378.467 93.2793 378.637 93.4492 378.634 93.6543C378.637 93.8623 378.467 94.0322 378.259 94.0352ZM380.506 94.0586C379.565 94.0586 379.021 93.2676 379.023 91.8789C379.021 90.502 379.571 89.6992 380.506 89.6992C381.438 89.6992 381.988 90.502 381.988 91.8789C381.988 93.2676 381.446 94.0586 380.506 94.0586ZM379.533 91.8789C379.536 92.9775 379.891 93.5898 380.506 93.5898C381.118 93.5898 381.476 92.9775 381.473 91.8789C381.476 90.7803 381.115 90.1592 380.506 90.1562C379.896 90.1592 379.536 90.7803 379.533 91.8789ZM382.541 94L382.536 93.6133L383.983 92.0898C384.484 91.5566 384.724 91.2695 384.727 90.877C384.724 90.4404 384.361 90.1592 383.883 90.1562C383.376 90.1592 383.06 90.4785 383.057 90.9531H382.559C382.553 90.2031 383.133 89.6992 383.901 89.6992C384.671 89.6992 385.216 90.2178 385.219 90.877C385.216 91.3516 384.996 91.7207 384.246 92.4941L383.274 93.4961V93.5312H385.295V94H382.541ZM386.276 94.0352C386.071 94.0322 385.895 93.8623 385.901 93.6543C385.895 93.4492 386.071 93.2793 386.276 93.2793C386.484 93.2793 386.654 93.4492 386.651 93.6543C386.654 93.8623 386.484 94.0322 386.276 94.0352ZM388.523 94.0586C387.582 94.0586 387.037 93.2676 387.04 91.8789C387.037 90.502 387.588 89.6992 388.523 89.6992C389.454 89.6992 390.005 90.502 390.005 91.8789C390.005 93.2676 389.463 94.0586 388.523 94.0586ZM387.55 91.8789C387.553 92.9775 387.907 93.5898 388.523 93.5898C389.135 93.5898 389.492 92.9775 389.489 91.8789C389.492 90.7803 389.132 90.1592 388.523 90.1562C387.913 90.1592 387.553 90.7803 387.55 91.8789ZM391.941 94.0586C391.176 94.0586 390.596 93.5869 390.564 92.9336H391.074C391.112 93.3115 391.481 93.5928 391.941 93.5957C392.492 93.5928 392.89 93.1914 392.89 92.6582C392.89 92.1074 392.477 91.7002 391.906 91.6973C391.548 91.6914 391.27 91.8027 391.115 92.0781H390.605L390.904 89.7578H393.201V90.2266H391.343L391.185 91.4688H391.226C391.417 91.3223 391.701 91.2227 392 91.2227C392.808 91.2227 393.403 91.8203 393.406 92.6465C393.403 93.4668 392.788 94.0586 391.941 94.0586Z" fill="#4B4D51"/>
<rect x="449" y="10" width="85" height="90" rx="6" fill="#E6EEFE"/>
<path d="M457.006 21H455.387V16.4043H457.025C458.409 16.4043 459.256 17.2644 459.253 18.6958C459.256 20.1335 458.409 21 457.006 21ZM456.339 20.1812H456.968C457.844 20.1812 458.301 19.7273 458.301 18.6958C458.301 17.6738 457.844 17.2231 456.974 17.2231H456.339V20.1812ZM459.763 21V17.5532H460.671V18.1499H460.709C460.833 17.7278 461.153 17.5024 461.541 17.5024C461.636 17.5024 461.756 17.5151 461.839 17.5342V18.3721C461.75 18.3435 461.569 18.3213 461.439 18.3213C461.014 18.3213 460.7 18.6165 460.703 19.0386V21H459.763ZM463.574 21.0698C462.533 21.0667 461.883 20.3525 461.886 19.2861C461.883 18.2229 462.533 17.5088 463.574 17.5088C464.619 17.5088 465.266 18.2229 465.269 19.2861C465.266 20.3525 464.619 21.0667 463.574 21.0698ZM462.838 19.2861C462.838 19.8892 463.089 20.3367 463.581 20.3398C464.06 20.3367 464.314 19.8892 464.311 19.2861C464.314 18.6799 464.06 18.2261 463.581 18.2261C463.089 18.2261 462.838 18.6799 462.838 19.2861ZM466.637 19.0068V21H465.697V17.5532H466.592V18.1562H466.63C466.786 17.7595 467.154 17.5088 467.665 17.5088C468.385 17.5088 468.855 18.0007 468.852 18.8037V21H467.919V18.9688C467.916 18.5435 467.687 18.2896 467.297 18.2896C466.906 18.2896 466.637 18.553 466.637 19.0068ZM470.981 21.0698C469.924 21.0667 469.277 20.3843 469.28 19.2925C469.277 18.2292 469.933 17.5088 470.943 17.5088C471.847 17.5088 472.561 18.0801 472.561 19.2544V19.521H470.206C470.206 20.0415 470.514 20.3621 471 20.3652C471.32 20.3621 471.549 20.2224 471.641 20.0161H472.536C472.403 20.6541 471.831 21.0667 470.981 21.0698ZM470.206 18.9307H471.673C471.67 18.5117 471.381 18.2102 470.962 18.2134C470.53 18.2102 470.225 18.5339 470.206 18.9307Z" fill="#236BF6"/>
<path d="M457.996 28.8438V30.543H458.984V28.2212H459.534V34.2637H458.984V31.019H457.996V32.8428H455.505V28.8438H457.996ZM456.047 32.3813H457.454V29.3052H456.047V32.3813ZM460.288 34.5933V28.082H460.845V34.5933H460.288ZM467.52 33.2749V33.7583H461.558V33.2749H464.239V31.6855H462.261V28.6313H466.78V31.6855H464.803V33.2749H467.52ZM462.825 31.2241H466.224V29.0928H462.825V31.2241ZM470.584 28.8438V30.543H471.573V28.2212H472.123V34.2637H471.573V31.019H470.584V32.8428H468.094V28.8438H470.584ZM468.636 32.3813H470.042V29.3052H468.636V32.3813ZM472.877 34.5933V28.082H473.434V34.5933H472.877ZM480.109 33.2749V33.7583H474.147V33.2749H476.828V31.6855H474.85V28.6313H479.369V31.6855H477.392V33.2749H480.109ZM475.414 31.2241H478.812V29.0928H475.414V31.2241ZM483.173 28.8438V30.543H484.162V28.2212H484.711V34.2637H484.162V31.019H483.173V32.8428H480.683V28.8438H483.173ZM481.225 32.3813H482.631V29.3052H481.225V32.3813ZM485.466 34.5933V28.082H486.022V34.5933H485.466ZM492.698 33.2749V33.7583H486.736V33.2749H489.417V31.6855H487.439V28.6313H491.958V31.6855H489.98V33.2749H492.698ZM488.003 31.2241H491.401V29.0928H488.003V31.2241ZM495.762 28.8438V30.543H496.751V28.2212H497.3V34.2637H496.751V31.019H495.762V32.8428H493.272V28.8438H495.762ZM493.814 32.3813H495.22V29.3052H493.814V32.3813ZM498.055 34.5933V28.082H498.611V34.5933H498.055ZM505.287 33.2749V33.7583H499.325V33.2749H502.005V31.6855H500.028V28.6313H504.547V31.6855H502.569V33.2749H505.287ZM500.592 31.2241H503.99V29.0928H500.592V31.2241ZM508.351 28.8438V30.543H509.34V28.2212H509.889V34.2637H509.34V31.019H508.351V32.8428H505.861V28.8438H508.351ZM506.403 32.3813H507.809V29.3052H506.403V32.3813ZM510.644 34.5933V28.082H511.2V34.5933H510.644ZM517.875 33.2749V33.7583H511.914V33.2749H514.594V31.6855H512.617V28.6313H517.136V31.6855H515.158V33.2749H517.875ZM513.181 31.2241H516.579V29.0928H513.181V31.2241ZM520.94 28.8438V30.543H521.929V28.2212H522.478V34.2637H521.929V31.019H520.94V32.8428H518.45V28.8438H520.94ZM518.992 32.3813H520.398V29.3052H518.992V32.3813ZM523.232 34.5933V28.082H523.789V34.5933H523.232ZM461.226 44.2749V44.7583H455.264V44.2749H457.944V42.6855H455.967V39.6313H460.486V42.6855H458.508V44.2749H461.226ZM456.531 42.2241H459.929V40.0928H456.531V42.2241ZM464.29 39.8438V41.543H465.279V39.2212H465.828V45.2637H465.279V42.019H464.29V43.8428H461.8V39.8438H464.29ZM462.342 43.3813H463.748V40.3052H462.342V43.3813ZM466.583 45.5933V39.082H467.139V45.5933H466.583ZM473.814 44.2749V44.7583H467.853V44.2749H470.533V42.6855H468.556V39.6313H473.075V42.6855H471.097V44.2749H473.814ZM469.12 42.2241H472.518V40.0928H469.12V42.2241ZM476.879 39.8438V41.543H477.868V39.2212H478.417V45.2637H477.868V42.019H476.879V43.8428H474.389V39.8438H476.879ZM474.931 43.3813H476.337V40.3052H474.931V43.3813ZM479.171 45.5933V39.082H479.728V45.5933H479.171ZM486.403 44.2749V44.7583H480.441V44.2749H483.122V42.6855H481.145V39.6313H485.664V42.6855H483.686V44.2749H486.403ZM481.708 42.2241H485.107V40.0928H481.708V42.2241ZM489.468 39.8438V41.543H490.457V39.2212H491.006V45.2637H490.457V42.019H489.468V43.8428H486.978V39.8438H489.468ZM487.52 43.3813H488.926V40.3052H487.52V43.3813ZM491.76 45.5933V39.082H492.317V45.5933H491.76ZM498.992 44.2749V44.7583H493.03V44.2749H495.711V42.6855H493.733V39.6313H498.252V42.6855H496.275V44.2749H498.992ZM494.297 42.2241H497.696V40.0928H494.297V42.2241ZM502.057 39.8438V41.543H503.045V39.2212H503.595V45.2637H503.045V42.019H502.057V43.8428H499.566V39.8438H502.057ZM500.108 43.3813H501.515V40.3052H500.108V43.3813ZM504.349 45.5933V39.082H504.906V45.5933H504.349ZM511.581 44.2749V44.7583H505.619V44.2749H508.3V42.6855H506.322V39.6313H510.841V42.6855H508.864V44.2749H511.581ZM506.886 42.2241H510.285V40.0928H506.886V42.2241ZM514.646 39.8438V41.543H515.634V39.2212H516.184V45.2637H515.634V42.019H514.646V43.8428H512.155V39.8438H514.646ZM512.697 43.3813H514.104V40.3052H512.697V43.3813ZM516.938 45.5933V39.082H517.495V45.5933H516.938ZM524.17 44.2749V44.7583H518.208V44.2749H520.889V42.6855H518.911V39.6313H523.43V42.6855H521.453V44.2749H524.17ZM519.475 42.2241H522.874V40.0928H519.475V42.2241ZM457.996 50.8438V52.543H458.984V50.2212H459.534V56.2637H458.984V53.019H457.996V54.8428H455.505V50.8438H457.996ZM456.047 54.3813H457.454V51.3052H456.047V54.3813ZM460.288 56.5933V50.082H460.845V56.5933H460.288ZM467.52 55.2749V55.7583H461.558V55.2749H464.239V53.6855H462.261V50.6313H466.78V53.6855H464.803V55.2749H467.52ZM462.825 53.2241H466.224V51.0928H462.825V53.2241ZM470.584 50.8438V52.543H471.573V50.2212H472.123V56.2637H471.573V53.019H470.584V54.8428H468.094V50.8438H470.584ZM468.636 54.3813H470.042V51.3052H468.636V54.3813ZM472.877 56.5933V50.082H473.434V56.5933H472.877ZM480.109 55.2749V55.7583H474.147V55.2749H476.828V53.6855H474.85V50.6313H479.369V53.6855H477.392V55.2749H480.109ZM475.414 53.2241H478.812V51.0928H475.414V53.2241ZM483.173 50.8438V52.543H484.162V50.2212H484.711V56.2637H484.162V53.019H483.173V54.8428H480.683V50.8438H483.173ZM481.225 54.3813H482.631V51.3052H481.225V54.3813ZM485.466 56.5933V50.082H486.022V56.5933H485.466ZM492.698 55.2749V55.7583H486.736V55.2749H489.417V53.6855H487.439V50.6313H491.958V53.6855H489.98V55.2749H492.698ZM488.003 53.2241H491.401V51.0928H488.003V53.2241ZM495.762 50.8438V52.543H496.751V50.2212H497.3V56.2637H496.751V53.019H495.762V54.8428H493.272V50.8438H495.762ZM493.814 54.3813H495.22V51.3052H493.814V54.3813ZM498.055 56.5933V50.082H498.611V56.5933H498.055ZM505.287 55.2749V55.7583H499.325V55.2749H502.005V53.6855H500.028V50.6313H504.547V53.6855H502.569V55.2749H505.287ZM500.592 53.2241H503.99V51.0928H500.592V53.2241ZM508.351 50.8438V52.543H509.34V50.2212H509.889V56.2637H509.34V53.019H508.351V54.8428H505.861V50.8438H508.351ZM506.403 54.3813H507.809V51.3052H506.403V54.3813ZM510.644 56.5933V50.082H511.2V56.5933H510.644ZM517.875 55.2749V55.7583H511.914V55.2749H514.594V53.6855H512.617V50.6313H517.136V53.6855H515.158V55.2749H517.875ZM513.181 53.2241H516.579V51.0928H513.181V53.2241ZM520.94 50.8438V52.543H521.929V50.2212H522.478V56.2637H521.929V53.019H520.94V54.8428H518.45V50.8438H520.94ZM518.992 54.3813H520.398V51.3052H518.992V54.3813ZM523.232 56.5933V50.082H523.789V56.5933H523.232ZM461.226 66.2749V66.7583H455.264V66.2749H457.944V64.6855H455.967V61.6313H460.486V64.6855H458.508V66.2749H461.226ZM456.531 64.2241H459.929V62.0928H456.531V64.2241ZM464.29 61.8438V63.543H465.279V61.2212H465.828V67.2637H465.279V64.019H464.29V65.8428H461.8V61.8438H464.29ZM462.342 65.3813H463.748V62.3052H462.342V65.3813ZM466.583 67.5933V61.082H467.139V67.5933H466.583ZM473.814 66.2749V66.7583H467.853V66.2749H470.533V64.6855H468.556V61.6313H473.075V64.6855H471.097V66.2749H473.814ZM469.12 64.2241H472.518V62.0928H469.12V64.2241ZM476.879 61.8438V63.543H477.868V61.2212H478.417V67.2637H477.868V64.019H476.879V65.8428H474.389V61.8438H476.879ZM474.931 65.3813H476.337V62.3052H474.931V65.3813ZM479.171 67.5933V61.082H479.728V67.5933H479.171ZM486.403 66.2749V66.7583H480.441V66.2749H483.122V64.6855H481.145V61.6313H485.664V64.6855H483.686V66.2749H486.403ZM481.708 64.2241H485.107V62.0928H481.708V64.2241Z" fill="#18191A"/>
<path d="M455.398 94L455.393 93.6133L456.84 92.0898C457.341 91.5566 457.581 91.2695 457.584 90.877C457.581 90.4404 457.218 90.1592 456.74 90.1562C456.233 90.1592 455.917 90.4785 455.914 90.9531H455.416C455.41 90.2031 455.99 89.6992 456.758 89.6992C457.528 89.6992 458.073 90.2178 458.076 90.877C458.073 91.3516 457.854 91.7207 457.104 92.4941L456.131 93.4961V93.5312H458.152V94H455.398ZM460.159 94.0586C459.218 94.0586 458.673 93.2676 458.676 91.8789C458.673 90.502 459.224 89.6992 460.159 89.6992C461.09 89.6992 461.641 90.502 461.641 91.8789C461.641 93.2676 461.099 94.0586 460.159 94.0586ZM459.186 91.8789C459.189 92.9775 459.543 93.5898 460.159 93.5898C460.771 93.5898 461.128 92.9775 461.125 91.8789C461.128 90.7803 460.768 90.1592 460.159 90.1562C459.549 90.1592 459.189 90.7803 459.186 91.8789ZM462.194 94L462.188 93.6133L463.636 92.0898C464.137 91.5566 464.377 91.2695 464.38 90.877C464.377 90.4404 464.013 90.1592 463.536 90.1562C463.029 90.1592 462.713 90.4785 462.71 90.9531H462.212C462.206 90.2031 462.786 89.6992 463.554 89.6992C464.324 89.6992 464.869 90.2178 464.872 90.877C464.869 91.3516 464.649 91.7207 463.899 92.4941L462.927 93.4961V93.5312H464.948V94H462.194ZM467.042 94.0586C466.307 94.0498 465.495 93.6133 465.495 92.043C465.495 90.54 466.111 89.6992 467.107 89.6992C467.854 89.6992 468.375 90.1592 468.484 90.8242H467.962C467.865 90.4492 467.578 90.168 467.107 90.168C466.409 90.168 465.99 90.7627 465.993 91.7852H466.046C466.289 91.4307 466.679 91.2227 467.136 91.2227C467.889 91.2227 468.519 91.8086 468.519 92.6289C468.519 93.4287 467.936 94.0674 467.042 94.0586ZM466.064 92.6406C466.067 93.1387 466.474 93.5928 467.042 93.5957C467.59 93.5928 468.006 93.1621 468.009 92.6348C468.006 92.1133 467.608 91.6885 467.054 91.6855C466.497 91.6885 466.07 92.1396 466.064 92.6406ZM469.259 94.0352C469.054 94.0322 468.879 93.8623 468.884 93.6543C468.879 93.4492 469.054 93.2793 469.259 93.2793C469.467 93.2793 469.637 93.4492 469.634 93.6543C469.637 93.8623 469.467 94.0322 469.259 94.0352ZM471.506 94.0586C470.565 94.0586 470.021 93.2676 470.023 91.8789C470.021 90.502 470.571 89.6992 471.506 89.6992C472.438 89.6992 472.988 90.502 472.988 91.8789C472.988 93.2676 472.446 94.0586 471.506 94.0586ZM470.533 91.8789C470.536 92.9775 470.891 93.5898 471.506 93.5898C472.118 93.5898 472.476 92.9775 472.473 91.8789C472.476 90.7803 472.115 90.1592 471.506 90.1562C470.896 90.1592 470.536 90.7803 470.533 91.8789ZM473.541 94L473.536 93.6133L474.983 92.0898C475.484 91.5566 475.724 91.2695 475.727 90.877C475.724 90.4404 475.361 90.1592 474.883 90.1562C474.376 90.1592 474.06 90.4785 474.057 90.9531H473.559C473.553 90.2031 474.133 89.6992 474.901 89.6992C475.671 89.6992 476.216 90.2178 476.219 90.877C476.216 91.3516 475.996 91.7207 475.246 92.4941L474.274 93.4961V93.5312H476.295V94H473.541ZM477.276 94.0352C477.071 94.0322 476.895 93.8623 476.901 93.6543C476.895 93.4492 477.071 93.2793 477.276 93.2793C477.484 93.2793 477.654 93.4492 477.651 93.6543C477.654 93.8623 477.484 94.0322 477.276 94.0352ZM479.523 94.0586C478.582 94.0586 478.037 93.2676 478.04 91.8789C478.037 90.502 478.588 89.6992 479.523 89.6992C480.454 89.6992 481.005 90.502 481.005 91.8789C481.005 93.2676 480.463 94.0586 479.523 94.0586ZM478.55 91.8789C478.553 92.9775 478.907 93.5898 479.523 93.5898C480.135 93.5898 480.492 92.9775 480.489 91.8789C480.492 90.7803 480.132 90.1592 479.523 90.1562C478.913 90.1592 478.553 90.7803 478.55 91.8789ZM482.941 94.0586C482.176 94.0586 481.596 93.5869 481.564 92.9336H482.074C482.112 93.3115 482.481 93.5928 482.941 93.5957C483.492 93.5928 483.89 93.1914 483.89 92.6582C483.89 92.1074 483.477 91.7002 482.906 91.6973C482.548 91.6914 482.27 91.8027 482.115 92.0781H481.605L481.904 89.7578H484.201V90.2266H482.343L482.185 91.4688H482.226C482.417 91.3223 482.701 91.2227 483 91.2227C483.808 91.2227 484.403 91.8203 484.406 92.6465C484.403 93.4668 483.788 94.0586 482.941 94.0586Z" fill="#4B4D51"/>
</g>
<g filter="url(#filter1_d_433_8029)">
<path d="M50 88C50 76.9543 58.9543 68 70 68H323C334.046 68 343 76.9543 343 88V118H50V88Z" fill="#242528"/>
<path d="M78.1055 85.8594V90.4883H79.8828V84.2773H82.2266V100.977H79.8828V92.4805H78.1055V97.3242H71.0352V85.8594H78.1055ZM73.3594 95.3711H75.7812V87.832H73.3594V95.3711ZM83.5547 101.797V84.0234H85.9375V101.797H83.5547ZM103.582 97.6758V99.7266H87.3125V97.6758H94.168V94.043H89.0312V85.332H101.766V94.043H96.6484V97.6758H103.582ZM91.4922 92.0898H99.3047V87.3242H91.4922V92.0898ZM114.195 85.2148V87.207H110.66C110.67 89.2773 111.93 91.2793 114.762 92.1094L113.57 94.0625C111.607 93.4668 110.24 92.2656 109.459 90.752C108.668 92.5391 107.223 93.9648 105.094 94.668L103.824 92.6953C106.773 91.7676 108.111 89.4629 108.141 87.207H104.508V85.2148H114.195ZM106.285 98.3398C106.275 96.1719 108.619 94.9121 112.379 94.9219C116.08 94.9121 118.365 96.1719 118.375 98.3398C118.365 100.518 116.08 101.807 112.379 101.797C108.619 101.807 106.275 100.518 106.285 98.3398ZM108.785 98.3398C108.766 99.3555 110.045 99.8633 112.379 99.8633C114.684 99.8633 115.914 99.3555 115.914 98.3398C115.914 97.3438 114.684 96.8457 112.379 96.8555C110.045 96.8457 108.766 97.3438 108.785 98.3398ZM115.699 94.5703V84.0234H118.199V88.1445H120.602V90.1758H118.199V94.5703H115.699Z" fill="white"/>
<g clip-path="url(#clip1_433_8029)">
<path d="M343 86H617C628.046 86 637 94.9543 637 106V118H343V86Z" fill="#242528"/>
<path d="M343 86H637V118H359C350.163 118 343 110.837 343 102V86Z" fill="#303134"/>
<path d="M374.426 95.6348V105.244H373.034V100.308H370.529V99.1797H373.034V95.6348H374.426ZM363.498 102.505C365.512 101.824 366.772 100.095 366.765 98.2861V97.7734H363.923V96.6309H370.998V97.7734H368.186V98.2861C368.178 99.9194 369.365 101.567 371.35 102.227L370.632 103.34C369.16 102.827 368.068 101.772 367.497 100.469C366.926 101.919 365.776 103.076 364.216 103.633L363.498 102.505ZM365.9 108.467V104.38H367.292V107.339H374.777V108.467H365.9ZM379.998 99.6484C379.998 101.714 380.958 103.816 382.767 104.79L381.99 105.815C380.716 105.142 379.837 103.889 379.361 102.402C378.892 103.992 378.013 105.361 376.746 106.123L375.926 105.068C377.742 104.014 378.68 101.765 378.694 99.6484V99.1211H376.321V97.9785H378.694V96.0889H379.998V97.9785H382.327V99.1211H379.998V99.6484ZM381.463 101.89V100.732H383.353V95.8984H384.671V108.086H383.353V101.89H381.463ZM386.004 108.745V95.6201H387.337V108.745H386.004ZM394.198 97.0996V100.513H395.956V95.8691H397.289V108.101H395.956V101.655H394.198V105.288H389.101V97.0996H394.198ZM390.419 104.175H392.895V98.1982H390.419V104.175ZM398.622 108.745V95.6201H399.955V108.745H398.622ZM413.262 105.947V107.104H401.25V105.947H406.538V102.915H402.627V96.6748H411.826V102.915H407.915V105.947H413.262ZM403.975 101.816H410.464V97.7881H403.975V101.816Z" fill="#CECFD2"/>
</g>
<g clip-path="url(#clip2_433_8029)">
<path d="M50 118H637V336C637 353.673 622.673 368 605 368H82C64.3269 368 50 353.673 50 336V118Z" fill="#303134"/>
<path d="M50 118H605C622.673 118 637 132.327 637 150V368H50V118Z" fill="#242528"/>
<rect x="72.5" y="143.5" width="544" height="141" rx="11.5" stroke="#3D3F43"/>
<path d="M92.3203 157.57V158.508H84.5566V157.57H87.8672V156.105H89.0098V157.57H92.3203ZM85.3037 161.54C85.2964 160.104 86.5562 159.196 88.4385 159.182C90.3062 159.196 91.5586 160.104 91.5732 161.54C91.5586 162.954 90.3062 163.876 88.4385 163.884C86.5562 163.876 85.2964 162.954 85.3037 161.54ZM86.1826 165.964V165.026H94.708V169.187H93.5654V165.964H86.1826ZM86.4023 161.54C86.395 162.404 87.208 162.968 88.4385 162.961C89.6543 162.968 90.4746 162.404 90.4893 161.54C90.4746 160.654 89.6543 160.083 88.4385 160.075C87.208 160.083 86.395 160.654 86.4023 161.54ZM93.5654 164.309V156.164H94.708V159.782H96.6709V160.749H94.708V164.309H93.5654ZM99.7676 163.986V165.51H106.271V163.986H107.429V169.011H98.625V163.986H99.7676ZM97.1162 163.063V162.111H108.981V163.063H97.1162ZM97.79 160.266C100.112 159.951 102.463 158.581 102.463 156.926V156.311H103.649V156.926C103.642 158.53 106.015 159.973 108.308 160.266L107.883 161.188C105.869 160.888 103.884 159.863 103.056 158.405C102.229 159.87 100.236 160.888 98.2295 161.188L97.79 160.266ZM99.7676 168.088H106.271V166.418H99.7676V168.088ZM120.823 156.164V169.187H119.695V162.448H117.82V168.513H116.736V156.457H117.82V161.467H119.695V156.164H120.823ZM110.364 165.817V157.761H111.507V164.792C112.796 164.785 114.188 164.689 115.77 164.367L115.916 165.393C114.1 165.722 112.605 165.817 111.17 165.817H110.364ZM134.159 162.609V163.562H122.294V162.609H125.238V160.771C124.198 160.368 123.612 159.709 123.612 158.83C123.612 157.299 125.37 156.42 128.227 156.413C131.061 156.42 132.819 157.299 132.826 158.83C132.819 159.702 132.24 160.361 131.215 160.771V162.609H134.159ZM123.729 166.857C123.722 165.371 125.399 164.55 128.227 164.558C131.017 164.55 132.694 165.371 132.709 166.857C132.694 168.344 131.017 169.157 128.227 169.157C125.399 169.157 123.722 168.344 123.729 166.857ZM124.799 158.83C124.792 159.782 126.095 160.332 128.227 160.339C130.336 160.332 131.647 159.782 131.654 158.83C131.647 157.893 130.336 157.321 128.227 157.321C126.095 157.321 124.792 157.893 124.799 158.83ZM124.901 166.857C124.887 167.744 126.139 168.271 128.227 168.264C130.292 168.271 131.544 167.744 131.552 166.857C131.544 165.971 130.292 165.451 128.227 165.437C126.139 165.451 124.887 165.971 124.901 166.857ZM126.381 162.609H130.072V161.079C129.523 161.181 128.908 161.232 128.227 161.232C127.545 161.232 126.93 161.181 126.381 161.086V162.609ZM145.62 156.164V169.216H144.463V156.164H145.62ZM135.366 161.716C135.374 158.947 136.75 157.182 138.691 157.175C140.625 157.182 142.024 158.947 142.017 161.716C142.024 164.492 140.625 166.25 138.691 166.242C136.75 166.25 135.374 164.492 135.366 161.716ZM136.479 161.716C136.479 163.833 137.388 165.224 138.691 165.217C140.002 165.224 140.903 163.833 140.903 161.716C140.903 159.599 140.002 158.208 138.691 158.2C137.388 158.208 136.479 159.599 136.479 161.716ZM159.659 161.364V162.331H157.55V169.187H156.407V156.164H157.55V161.364H159.659ZM148.014 165.876V157.453H149.156V164.909C151.061 164.909 153.001 164.763 155.147 164.309L155.294 165.29C153.045 165.744 151.024 165.876 149.054 165.876H148.014ZM166.937 157.175C168.855 157.182 170.218 158.947 170.232 161.716C170.218 164.492 168.855 166.25 166.937 166.242C165.003 166.25 163.648 164.492 163.655 161.716C163.648 158.947 165.003 157.182 166.937 157.175ZM164.739 161.716C164.747 163.833 165.647 165.224 166.937 165.217C168.24 165.224 169.119 163.833 169.119 161.716C169.119 159.599 168.24 158.208 166.937 158.2C165.647 158.208 164.747 159.599 164.739 161.716ZM172.386 169.187V156.164H173.528V161.364H175.711V162.36H173.528V169.187H172.386ZM186.776 156.164V169.216H185.619V156.164H186.776ZM176.522 161.716C176.53 158.947 177.907 157.182 179.848 157.175C181.781 157.182 183.18 158.947 183.173 161.716C183.18 164.492 181.781 166.25 179.848 166.242C177.907 166.25 176.53 164.492 176.522 161.716ZM177.636 161.716C177.636 163.833 178.544 165.224 179.848 165.217C181.159 165.224 182.06 163.833 182.06 161.716C182.06 159.599 181.159 158.208 179.848 158.2C178.544 158.208 177.636 159.599 177.636 161.716ZM199.365 156.164V169.216H198.208V156.164H199.365ZM189.478 165.979V157.409H195.674V158.376H190.635V164.982C193.169 164.982 194.832 164.909 196.787 164.558L196.904 165.524C194.883 165.883 193.169 165.971 190.532 165.979H189.478ZM204.718 157.175C206.49 157.182 207.772 158.706 207.948 161.145H210.87V156.164H212.013V169.216H210.87V162.097H207.962C207.838 164.653 206.534 166.25 204.718 166.242C202.792 166.25 201.444 164.492 201.451 161.716C201.444 158.947 202.792 157.182 204.718 157.175ZM202.55 161.716C202.557 163.833 203.436 165.224 204.718 165.217C205.992 165.224 206.886 163.833 206.886 161.716C206.886 159.599 205.992 158.208 204.718 158.2C203.436 158.208 202.557 159.599 202.55 161.716ZM225.715 162.214V163.122H213.791V162.214H225.715ZM215.227 165.026V164.162H224.221V166.931H216.398V168.176H224.646V169.011H215.241V166.14H223.078V165.026H215.227ZM215.3 157.395V156.56H224.177V159.255H216.486V160.397H224.411V161.232H215.344V158.464H223.02V157.395H215.3ZM239.965 156.179V159.167H241.942V160.134H239.965V163.532H238.822V156.179H239.965ZM230.414 162.536V156.838H231.571V161.569C233.432 161.562 235.343 161.416 237.445 160.983L237.592 161.95C235.38 162.397 233.41 162.529 231.454 162.536H230.414ZM231.718 169.011V164.25H239.965V169.011H231.718ZM232.846 168.073H238.852V165.158H232.846V168.073ZM248.979 157.585C248.979 158.325 248.914 159.05 248.767 159.753H252.012V156.149H253.154V169.187H252.012V164.177H248.335V163.225H252.012V160.69H248.533C247.786 163.107 246.064 165.231 242.988 166.726L242.388 165.788C245.852 164.111 247.581 161.599 247.822 158.522H242.959V157.585H248.979ZM266.886 166.564V167.517H254.962V166.564H260.323V163.752H256.368V157.087H257.525V159.445H264.293V157.087H265.421V163.752H261.451V166.564H266.886ZM257.525 162.814H264.293V160.383H257.525V162.814ZM271.418 159.87C271.418 161.943 272.429 164.177 274.157 165.202L273.498 166.096C272.238 165.334 271.337 163.942 270.883 162.353C270.407 164.089 269.44 165.583 268.137 166.374L267.404 165.51C269.206 164.455 270.305 162.148 270.305 159.914V157.395H271.418V159.87ZM272.722 161.818V160.837H274.934V156.442H276.018V168.527H274.934V161.818H272.722ZM277.6 169.187V156.164H278.713V169.187H277.6ZM292.063 166.55V167.517H280.14V166.55H283.099V163.042C281.985 162.463 281.312 161.525 281.312 160.339C281.312 158.325 283.289 156.999 286.072 156.984C288.855 156.999 290.833 158.325 290.833 160.339C290.833 161.503 290.181 162.426 289.104 163.005V166.55H292.063ZM282.425 160.339C282.417 161.796 283.934 162.771 286.072 162.771C288.189 162.771 289.72 161.796 289.72 160.339C289.72 158.881 288.189 157.922 286.072 157.937C283.934 157.922 282.417 158.881 282.425 160.339ZM284.227 166.55H287.947V163.452C287.383 163.598 286.753 163.679 286.072 163.679C285.406 163.679 284.783 163.605 284.227 163.459V166.55Z" fill="#A9ABAF"/>
</g>
</g>
</g>
<defs>
<filter id="filter0_f_433_8029" x="-7.25" y="8.75" width="542.5" height="92.5" filterUnits="userSpaceOnUse" color-interpolation-filters="sRGB">
<feFlood flood-opacity="0" result="BackgroundImageFix"/>
<feBlend mode="normal" in="SourceGraphic" in2="BackgroundImageFix" result="shape"/>
<feGaussianBlur stdDeviation="0.625" result="effect1_foregroundBlur_433_8029"/>
</filter>
<filter id="filter1_d_433_8029" x="30" y="48" width="627" height="340" filterUnits="userSpaceOnUse" color-interpolation-filters="sRGB">
<feFlood flood-opacity="0" result="BackgroundImageFix"/>
<feColorMatrix in="SourceAlpha" type="matrix" values="0 0 0 0 0 0 0 0 0 0 0 0 0 0 0 0 0 0 127 0" result="hardAlpha"/>
<feOffset/>
<feGaussianBlur stdDeviation="10"/>
<feComposite in2="hardAlpha" operator="out"/>
<feColorMatrix type="matrix" values="0 0 0 0 0.0941176 0 0 0 0 0.0980392 0 0 0 0 0.101961 0 0 0 0.3 0"/>
<feBlend mode="normal" in2="BackgroundImageFix" result="effect1_dropShadow_433_8029"/>
<feBlend mode="normal" in="SourceGraphic" in2="effect1_dropShadow_433_8029" result="shape"/>
</filter>
<clipPath id="clip0_433_8029">
<rect width="466" height="300" rx="8" fill="white"/>
</clipPath>
<clipPath id="clip1_433_8029">
<path d="M343 86H617C628.046 86 637 94.9543 637 106V118H343V86Z" fill="white"/>
</clipPath>
<clipPath id="clip2_433_8029">
<path d="M50 118H637V336C637 353.673 622.673 368 605 368H82C64.3269 368 50 353.673 50 336V118Z" fill="white"/>
</clipPath>
</defs>
</svg>
