<svg width="466" height="300" viewBox="0 0 466 300" fill="none" xmlns="http://www.w3.org/2000/svg">
<g clip-path="url(#clip0_433_8002)">
<rect width="466" height="300" rx="8" fill="#242528"/>
<path d="M20 3.40018C20 -2.78541 25.0144 -7.7998 31.2 -7.7998H279C285.186 -7.7998 290.2 -2.78539 290.2 3.4002V102.6C290.2 108.786 285.186 113.8 279 113.8H20V3.40018Z" fill="#303134"/>
<path d="M41.9953 3.7626V6.23447H43.4609V6.96729H41.9953V9.47197H41.1422V3.7626H41.9953ZM34.3828 8.69541C36.7672 8.0501 38.2383 6.74854 38.4133 5.09697H34.8203V4.38604H39.3266C39.3211 6.84697 37.6039 8.60244 34.7328 9.3626L34.3828 8.69541ZM35.6297 10.6204V9.92041H41.9953V13.486H41.1422V10.6204H35.6297ZM51.7166 4.51729V5.03135C51.7111 5.67119 51.7111 6.63916 51.465 7.90791L50.6009 7.84229C50.8361 6.68291 50.858 5.85713 50.8689 5.23916H46.8712V4.51729H51.7166ZM46.2697 8.81572C46.8986 8.81572 47.6095 8.81025 48.3587 8.78838V6.67197H49.2119V8.76104C50.2892 8.71729 51.4048 8.64072 52.4166 8.49854L52.4712 9.13291C50.4314 9.48291 48.0908 9.52119 46.3572 9.52666L46.2697 8.81572ZM47.7681 13.2782V10.4235H48.6322V12.5563H54.265V13.2782H47.7681ZM53.0728 11.0798V3.7626H53.9478V6.93447H55.3697V7.66729H53.9478V11.0798H53.0728ZM59.0928 5.27197C59.0873 6.42588 60.0717 7.54697 61.4772 7.99541L61.0506 8.67354C59.9459 8.3126 59.0873 7.55791 58.6663 6.61182C58.2342 7.65635 57.3319 8.50947 56.1944 8.90322L55.7678 8.2251C57.1842 7.73291 58.2288 6.51885 58.2288 5.26104V4.9876H56.0303V4.27666H61.2694V4.9876H59.0928V5.27197ZM57.4741 9.9751V9.2751H63.7741V11.6048H58.3491V12.6876H64.1459V13.3767H57.4959V10.9485H62.9209V9.9751H57.4741ZM60.9631 6.6501V5.93916H62.9209V3.7626H63.7741V8.79385H62.9209V6.6501H60.9631ZM73.4581 3.7626V13.486H72.6269V3.7626H73.4581ZM65.2441 7.9626C65.2495 5.89541 66.0698 4.58838 67.3331 4.58291C68.5144 4.58838 69.3128 5.72588 69.4222 7.55791H70.68V3.97041H71.5003V12.9938H70.68V8.26885H69.4277C69.3456 10.161 68.5308 11.3478 67.3331 11.3423C66.0698 11.3478 65.2495 10.0298 65.2441 7.9626ZM66.0534 7.9626C66.0425 9.5376 66.5456 10.5329 67.3331 10.522C68.1261 10.5329 68.6292 9.5376 68.6237 7.9626C68.6292 6.38213 68.1261 5.39229 67.3331 5.39229C66.5456 5.39229 66.0425 6.38213 66.0534 7.9626ZM85.1153 3.77354V10.9595H84.2513V8.33447H81.7356C81.2872 8.90869 80.5653 9.25322 79.7341 9.25322C78.2794 9.25322 77.202 8.24697 77.2075 6.8251C77.202 5.39775 78.2794 4.3915 79.7341 4.38604C80.5598 4.3915 81.2708 4.73057 81.7247 5.29385H84.2513V3.77354H85.1153ZM78.0278 6.8251C78.0278 7.79854 78.7388 8.49307 79.7341 8.4876C80.6911 8.49307 81.4184 7.79854 81.4184 6.8251C81.4184 5.85713 80.6911 5.15713 79.7341 5.15166C78.7388 5.15713 78.0278 5.85713 78.0278 6.8251ZM78.87 13.2782V10.2048H79.7341V12.5563H85.3888V13.2782H78.87ZM82.113 6.00479C82.2005 6.25635 82.2497 6.52979 82.2497 6.8251C82.2497 7.10947 82.2005 7.37744 82.1184 7.62354H84.2513V6.00479H82.113ZM94.515 3.7626V8.73916H93.6509V7.72197H91.0588V7.04385H93.6509V5.87354H91.2009C90.5939 7.40479 89.0845 8.43838 86.9244 8.95791L86.6181 8.24697C89.0025 7.69463 90.3861 6.53525 90.5502 4.96572H87.1103V4.25479H91.4963C91.4963 4.57744 91.4634 4.88916 91.4033 5.18447H93.6509V3.7626H94.515ZM88.215 9.87666V9.17666H94.515V11.5501H89.09V12.6876H94.8431V13.3985H88.2369V10.8938H93.6509V9.87666H88.215ZM101.508 6.95635V7.65635H99.5397V9.0126C100.447 8.97432 101.355 8.90869 102.197 8.81572L102.263 9.4501C100.169 9.73994 97.8553 9.8001 96.0287 9.8001L95.8975 9.1001C96.7506 9.09463 97.7077 9.08369 98.6866 9.05088V7.65635H96.7834V4.39697H101.432V5.10791H97.6475V6.95635H101.508ZM97.56 13.2782V10.5438H98.4131V12.5563H104.188V13.2782H97.56ZM103.007 11.047V3.77354H103.871V11.047H103.007ZM116.687 11.5173V12.2392H107.784V11.5173H111.787V9.14385H108.834V4.58291H115.583V9.14385H112.63V11.5173H116.687ZM109.677 8.45479H114.752V5.27197H109.677V8.45479ZM125.245 3.7626V13.5079H124.392V8.14854H122.336V7.4376H124.392V3.7626H125.245ZM117.633 11.1563V4.65947H122.172V5.37041H118.497V7.39385H121.745V8.09385H118.497V10.4454C120.279 10.4399 121.428 10.3907 122.762 10.1501L122.861 10.861C121.444 11.0907 120.258 11.1563 118.376 11.1563H117.633ZM134.109 3.7626V7.72197H135.684V8.44385H134.109V13.486H133.256V3.7626H134.109ZM126.649 10.9595C129.16 9.7126 130.527 7.83682 130.724 5.53447H127.098V4.8126H131.593C131.588 7.56338 130.297 10.0735 127.131 11.6376L126.649 10.9595ZM146.488 3.7626V13.486H145.635V3.7626H146.488ZM138.569 10.8938C139.4 10.8884 140.352 10.8829 141.336 10.8501V9.78916C140.166 9.66885 139.411 9.00166 139.422 8.02822C139.411 6.929 140.346 6.21807 141.752 6.22354C143.157 6.21807 144.109 6.929 144.103 8.02822C144.109 8.99072 143.354 9.65791 142.2 9.78916V10.8173C143.141 10.7735 144.093 10.7079 144.989 10.5876L145.055 11.2438C142.884 11.5938 140.505 11.6267 138.7 11.6267L138.569 10.8938ZM138.777 5.66572V4.96572H141.336V3.77354H142.2V4.96572H144.738V5.66572H138.777ZM140.221 8.02822C140.215 8.70088 140.85 9.14385 141.752 9.13291C142.66 9.14385 143.289 8.70088 143.283 8.02822C143.289 7.3501 142.66 6.89072 141.752 6.89072C140.85 6.89072 140.215 7.3501 140.221 8.02822ZM155.975 3.77354V10.9048H155.111V7.1751H153.109V6.46416H155.111V3.77354H155.975ZM147.958 8.95791C149.391 8.45479 150.43 7.16963 150.43 5.7751V5.27197H148.231V4.56104H153.47V5.27197H151.294V5.7751C151.294 7.03291 152.267 8.25244 153.689 8.73916L153.241 9.42822C152.147 9.029 151.299 8.21416 150.878 7.20791C150.457 8.33447 149.56 9.22588 148.406 9.65791L147.958 8.95791ZM149.73 13.2782V10.2595H150.594V12.5563H156.248V13.2782H149.73ZM164.839 3.7626V7.77666H166.468V8.4876H164.839V13.486H163.986V3.7626H164.839ZM157.259 6.0376V5.32666H159.764V3.88291H160.617V5.32666H163.045V6.0376H157.259ZM157.817 9.07822C157.811 7.76572 158.818 6.84697 160.201 6.84697C161.574 6.84697 162.575 7.76572 162.586 9.07822C162.575 10.3962 161.574 11.3095 160.201 11.3095C158.818 11.3095 157.811 10.3962 157.817 9.07822ZM158.637 9.07822C158.632 9.96416 159.293 10.5876 160.201 10.5767C161.098 10.5876 161.754 9.96416 161.765 9.07822C161.754 8.19775 161.098 7.56338 160.201 7.56885C159.293 7.56338 158.632 8.19775 158.637 9.07822ZM171.635 4.61572V5.47979H173.91V3.77354H174.774V10.872H173.91V8.27979H171.635V9.15479H167.173V4.61572H171.635ZM168.026 8.46572H170.793V5.32666H168.026V8.46572ZM168.485 13.2782V10.2376H169.349V12.5563H174.993V13.2782H168.485ZM171.635 7.56885H173.91V6.20166H171.635V7.56885ZM183.5 5.44697V6.14697H178.622V5.44697H180.646V4.05791H181.499V5.44697H183.5ZM178.972 9.0126C178.972 7.72197 179.853 6.80869 181.061 6.80322C182.286 6.80869 183.161 7.72197 183.172 9.0126C183.161 10.3196 182.286 11.2384 181.061 11.2438C179.853 11.2384 178.972 10.3196 178.972 9.0126ZM179.738 9.0126C179.738 9.87666 180.29 10.4946 181.061 10.4892C181.838 10.4946 182.407 9.87666 182.407 9.0126C182.407 8.15947 181.838 7.53604 181.061 7.5251C180.29 7.53604 179.738 8.15947 179.738 9.0126ZM184.003 13.0048V4.00322H184.813V7.86416H186.103V3.7626H186.924V13.486H186.103V8.5751H184.813V13.0048H184.003ZM195.656 3.7626V6.3001H197.111V7.02197H195.656V9.57041H194.792V3.7626H195.656ZM188.492 8.77197V4.50635H192.812V5.21729H189.334V8.07197C191.303 8.06104 192.435 8.00088 193.742 7.73291L193.83 8.44385C192.468 8.71729 191.303 8.77197 189.247 8.77197H188.492ZM189.302 11.6048C189.307 10.4399 190.543 9.76182 192.528 9.75635C194.513 9.76182 195.733 10.4399 195.733 11.6048C195.733 12.786 194.513 13.4642 192.528 13.4642C190.543 13.4642 189.307 12.786 189.302 11.6048ZM190.144 11.6048C190.149 12.3267 191.062 12.7696 192.528 12.7751C193.983 12.7696 194.907 12.3267 194.902 11.6048C194.907 10.8884 193.983 10.4563 192.528 10.4673C191.062 10.4563 190.149 10.8884 190.144 11.6048ZM208.003 3.77354V9.75635H207.149V3.77354H208.003ZM200.467 5.10791V4.38604H204.907V7.05479H201.32V8.43291C203.059 8.43291 204.355 8.38369 205.935 8.12666L206.034 8.8376C204.399 9.10557 203.07 9.14932 201.276 9.15479H200.488V6.37666H204.054V5.10791H200.467ZM201.495 11.7142C201.489 10.5985 202.731 9.95322 204.776 9.95322C206.821 9.95322 208.068 10.5985 208.068 11.7142C208.068 12.8243 206.821 13.4642 204.776 13.4642C202.731 13.4642 201.489 12.8243 201.495 11.7142ZM202.337 11.7142C202.342 12.3813 203.261 12.7806 204.776 12.7751C206.285 12.7806 207.21 12.3813 207.204 11.7142C207.21 11.047 206.285 10.6423 204.776 10.6423C203.261 10.6423 202.342 11.047 202.337 11.7142ZM217.129 4.75791V5.96104C217.134 7.39385 217.134 8.71729 216.724 10.686L215.86 10.6095C216.079 9.67432 216.183 8.86494 216.237 8.11025L210.304 8.43291L210.183 7.72197L216.276 7.47041C216.292 6.95635 216.298 6.45869 216.298 5.96104V5.47979H210.446V4.75791H217.129ZM209.374 12.1188V11.397H218.233V12.1188H209.374ZM226.299 3.7626V7.72197H227.874V8.44385H226.299V13.486H225.446V3.7626H226.299ZM218.839 10.9595C221.35 9.7126 222.717 7.83682 222.914 5.53447H219.288V4.8126H223.783C223.778 7.56338 222.487 10.0735 219.321 11.6376L218.839 10.9595ZM238.306 3.7626V6.35479H239.772V7.0876H238.306V9.6251H237.453V3.7626H238.306ZM230.726 5.5126V4.80166H233.198V3.68604H234.051V4.80166H236.523V5.5126H230.726ZM231.284 7.72197C231.279 6.68291 232.214 5.99385 233.625 5.99385C235.019 5.99385 235.954 6.68291 235.965 7.72197C235.954 8.77744 235.019 9.46104 233.625 9.46104C232.214 9.46104 231.279 8.77744 231.284 7.72197ZM232.104 7.72197C232.099 8.38369 232.706 8.79385 233.625 8.80479C234.532 8.79385 235.145 8.38369 235.156 7.72197C235.145 7.0876 234.532 6.66104 233.625 6.66104C232.706 6.66104 232.099 7.0876 232.104 7.72197ZM232.17 13.3548V10.1829H238.306V13.3548H232.17ZM233.012 12.6548H237.453V10.872H233.012V12.6548ZM242.521 4.94385C242.51 6.98369 242.226 9.28057 240.804 11.1673L240.126 10.7735C241.34 9.25322 241.701 7.44307 241.772 5.65479H240.323V4.94385H242.521ZM242.313 11.4079C243.653 9.69072 243.888 7.47041 243.927 5.65479H242.827V4.94385H244.676C244.676 5.73682 244.654 6.6501 244.534 7.59072H245.824V4.0251H246.645V12.9938H245.824V8.30166H244.419C244.195 9.51572 243.774 10.7462 242.981 11.8126L242.313 11.4079ZM247.64 13.486V3.7626H248.471V13.486H247.64ZM256.464 3.94854C258.581 3.954 259.893 4.62666 259.899 5.78604C259.893 6.92354 258.581 7.59619 256.464 7.59072C254.348 7.59619 253.019 6.92354 253.019 5.78604C253.019 4.62666 254.348 3.954 256.464 3.94854ZM252.035 9.04541V8.33447H260.894V9.04541H256.88V10.161H259.811V13.3548H253.117V10.161H256.038V9.04541H252.035ZM253.905 5.78604C253.9 6.49697 254.889 6.9126 256.464 6.9126C258.023 6.9126 259.018 6.49697 259.024 5.78604C259.018 5.05869 258.023 4.62666 256.464 4.62666C254.889 4.62666 253.9 5.05869 253.905 5.78604ZM253.971 12.6548H258.969V10.8501H253.971V12.6548ZM264.934 5.56729C264.94 6.87432 265.973 8.0665 267.428 8.54229L266.991 9.20947C265.859 8.82666 264.962 8.02822 264.519 7.0001C264.092 8.10479 263.184 8.97979 262.025 9.39541L261.577 8.72822C263.037 8.21416 264.065 6.94541 264.07 5.56729V5.15166H261.795V4.45166H267.177V5.15166H264.934V5.56729ZM262.922 10.872V10.161H269.462V13.486H268.609V10.872H262.922ZM268.609 9.64697V3.7626H269.462V9.64697H268.609ZM42.4109 20.7626V30.5079H41.5469V20.7626H42.4109ZM34.7547 24.9079C34.7602 22.8407 35.7883 21.5228 37.2375 21.5173C38.6812 21.5228 39.7258 22.8407 39.7203 24.9079C39.7258 26.9806 38.6812 28.2931 37.2375 28.2876C35.7883 28.2931 34.7602 26.9806 34.7547 24.9079ZM35.5859 24.9079C35.5859 26.4884 36.2641 27.5274 37.2375 27.522C38.2164 27.5274 38.8891 26.4884 38.8891 24.9079C38.8891 23.3274 38.2164 22.2884 37.2375 22.2829C36.2641 22.2884 35.5859 23.3274 35.5859 24.9079ZM48.6169 21.736V23.1032H51.0013V20.7626H51.8544V30.5079H51.0013V26.4938H48.6169V28.0251H44.1872V21.736H48.6169ZM45.0403 27.336H47.7856V22.4142H45.0403V27.336ZM48.6169 25.7829H51.0013V23.8142H48.6169V25.7829ZM54.79 28.8673L53.9369 31.8423H53.1275L53.7291 28.8673H54.79ZM66.3269 20.7626V30.5079H65.4628V20.7626H66.3269ZM58.6706 24.9079C58.6761 22.8407 59.7042 21.5228 61.1534 21.5173C62.5972 21.5228 63.6417 22.8407 63.6362 24.9079C63.6417 26.9806 62.5972 28.2931 61.1534 28.2876C59.7042 28.2931 58.6761 26.9806 58.6706 24.9079ZM59.5019 24.9079C59.5019 26.4884 60.18 27.5274 61.1534 27.522C62.1323 27.5274 62.805 26.4884 62.805 24.9079C62.805 23.3274 62.1323 22.2884 61.1534 22.2829C60.18 22.2884 59.5019 23.3274 59.5019 24.9079ZM74.67 20.9485C76.7864 20.954 78.0989 21.6267 78.1044 22.786C78.0989 23.9235 76.7864 24.5962 74.67 24.5907C72.5536 24.5962 71.2247 23.9235 71.2247 22.786C71.2247 21.6267 72.5536 20.954 74.67 20.9485ZM70.2403 26.0454V25.3345H79.0997V26.0454H75.0856V27.161H78.0169V30.3548H71.3231V27.161H74.2434V26.0454H70.2403ZM72.1106 22.786C72.1052 23.497 73.095 23.9126 74.67 23.9126C76.2286 23.9126 77.2239 23.497 77.2294 22.786C77.2239 22.0587 76.2286 21.6267 74.67 21.6267C73.095 21.6267 72.1052 22.0587 72.1106 22.786ZM72.1762 29.6548H77.1747V27.8501H72.1762V29.6548ZM83.14 22.5673C83.1455 23.8743 84.1791 25.0665 85.6338 25.5423L85.1963 26.2095C84.0642 25.8267 83.1673 25.0282 82.7244 24.0001C82.2978 25.1048 81.39 25.9798 80.2306 26.3954L79.7822 25.7282C81.2423 25.2142 82.2705 23.9454 82.2759 22.5673V22.1517H80.0009V21.4517H85.3822V22.1517H83.14V22.5673ZM81.1275 27.872V27.161H87.6681V30.486H86.815V27.872H81.1275ZM86.815 26.647V20.7626H87.6681V26.647H86.815ZM97.0678 20.7735V26.3298H96.2147V20.7735H97.0678ZM89.2694 23.5626C89.2639 22.2063 90.3413 21.2876 91.8178 21.2876C93.2944 21.2876 94.3608 22.2063 94.3663 23.5626C94.3608 24.897 93.2944 25.8267 91.8178 25.8267C90.3413 25.8267 89.2639 24.897 89.2694 23.5626ZM90.1116 23.5626C90.1006 24.4649 90.817 25.0993 91.8178 25.0938C92.8077 25.0993 93.5241 24.4649 93.5241 23.5626C93.5241 22.6548 92.8077 22.0149 91.8178 22.0204C90.817 22.0149 90.1006 22.6548 90.1116 23.5626ZM90.7459 30.3548V26.8548H97.0678V30.3548H90.7459ZM91.5881 29.6548H96.2256V27.5548H91.5881V29.6548ZM106.457 20.7626V30.5079H105.592V20.7626H106.457ZM98.8003 24.9079C98.8058 22.8407 99.8339 21.5228 101.283 21.5173C102.727 21.5228 103.771 22.8407 103.766 24.9079C103.771 26.9806 102.727 28.2931 101.283 28.2876C99.8339 28.2931 98.8058 26.9806 98.8003 24.9079ZM99.6316 24.9079C99.6316 26.4884 100.31 27.5274 101.283 27.522C102.262 27.5274 102.935 26.4884 102.935 24.9079C102.935 23.3274 102.262 22.2884 101.283 22.2829C100.31 22.2884 99.6316 23.3274 99.6316 24.9079ZM117.895 20.7626V24.6126H119.525V25.3345H117.895V30.5079H117.042V20.7626H117.895ZM110.797 28.0688V21.7142H115.336V22.4251H111.65V27.347C113.411 27.3415 114.652 27.2649 116.101 26.997L116.211 27.7407C114.685 28.0142 113.411 28.0688 111.562 28.0688H110.797ZM124.199 20.9813C126.316 20.9813 127.628 21.6649 127.634 22.8298C127.628 23.9782 126.316 24.6509 124.199 24.6454C122.083 24.6509 120.754 23.9782 120.754 22.8298C120.754 21.6649 122.083 20.9813 124.199 20.9813ZM119.77 26.1985V25.4876H128.629V26.1985H119.77ZM120.853 30.3548V27.161H127.546V30.3548H120.853ZM121.64 22.8298C121.635 23.5353 122.624 23.9618 124.199 23.9673C125.758 23.9618 126.753 23.5353 126.759 22.8298C126.753 22.1024 125.758 21.6704 124.199 21.6704C122.624 21.6704 121.635 22.1024 121.64 22.8298ZM121.706 29.6548H126.704V27.8501H121.706V29.6548ZM139.728 20.7735V26.7563H138.875V20.7735H139.728ZM132.193 22.1079V21.386H136.633V24.0548H133.046V25.4329C134.785 25.4329 136.081 25.3837 137.661 25.1267L137.76 25.8376C136.125 26.1056 134.796 26.1493 133.002 26.1548H132.214V23.3767H135.78V22.1079H132.193ZM133.221 28.7142C133.215 27.5985 134.457 26.9532 136.502 26.9532C138.547 26.9532 139.794 27.5985 139.794 28.7142C139.794 29.8243 138.547 30.4642 136.502 30.4642C134.457 30.4642 133.215 29.8243 133.221 28.7142ZM134.063 28.7142C134.068 29.3813 134.987 29.7806 136.502 29.7751C138.011 29.7806 138.935 29.3813 138.93 28.7142C138.935 28.047 138.011 27.6423 136.502 27.6423C134.987 27.6423 134.068 28.047 134.063 28.7142ZM148.855 21.7579V22.961C148.86 24.3938 148.86 25.7173 148.45 27.686L147.586 27.6095C147.805 26.6743 147.909 25.8649 147.963 25.1103L142.03 25.4329L141.909 24.722L148.002 24.4704C148.018 23.9563 148.023 23.4587 148.023 22.961V22.4798H142.172V21.7579H148.855ZM141.1 29.1188V28.397H149.959V29.1188H141.1ZM159.403 28.561V29.2829H150.5V28.561H154.503V26.7235H151.615V23.7267H157.434V22.1954H151.593V21.4845H158.276V24.4267H152.468V26.0126H158.506V26.7235H155.345V28.561H159.403ZM170.491 20.7735V27.9048H169.627V24.1751H167.626V23.4642H169.627V20.7735H170.491ZM162.474 25.9579C163.907 25.4548 164.946 24.1696 164.946 22.7751V22.272H162.747V21.561H167.987V22.272H165.81V22.7751C165.81 24.0329 166.783 25.2524 168.205 25.7392L167.757 26.4282C166.663 26.029 165.815 25.2142 165.394 24.2079C164.973 25.3345 164.076 26.2259 162.922 26.6579L162.474 25.9579ZM164.246 30.2782V27.2595H165.11V29.5563H170.765V30.2782H164.246ZM176.599 21.3313V22.0313H173.121V24.5907C175.029 24.6017 176.178 24.5306 177.507 24.2626L177.616 24.9517C176.221 25.247 175.035 25.3017 173.033 25.2907H172.278V21.3313H176.599ZM173.23 26.8548V26.1548H179.432V28.5501H174.094V29.6548H179.792V30.3548H173.252V27.872H178.578V26.8548H173.23ZM178.578 25.6735V20.7626H179.432V22.8298H180.897V23.5407H179.432V25.6735H178.578ZM189.258 20.7735V26.3626H188.394V20.7735H189.258ZM181.262 25.411C182.088 25.411 183.051 25.411 184.052 25.3782V24.3282H182.148V21.2548H186.764V21.9657H183.012V23.6392H186.852V24.3282H184.916V25.3399C185.818 25.2962 186.731 25.2251 187.584 25.1048L187.639 25.7282C185.506 26.0892 183.149 26.122 181.394 26.122L181.262 25.411ZM182.848 30.3548V26.8001H183.702V27.8392H188.416V26.8001H189.258V30.3548H182.848ZM183.702 29.6548H188.416V28.5063H183.702V29.6548ZM198.647 20.7626V30.486H197.793V20.7626H198.647ZM191.264 27.9813V21.7251H192.106V27.2376C193.593 27.2267 195.125 27.1118 196.754 26.7673L196.875 27.5001C195.147 27.861 193.61 27.9813 192.051 27.9813H191.264ZM207.554 20.7626V24.6126H209.184V25.3345H207.554V30.5079H206.701V20.7626H207.554ZM200.456 28.0688V21.7142H204.995V22.4251H201.309V27.347C203.07 27.3415 204.311 27.2649 205.76 26.997L205.87 27.7407C204.344 28.0142 203.07 28.0688 201.221 28.0688H200.456ZM210.457 29.6657C210.074 29.6603 209.746 29.3431 209.757 28.9548C209.746 28.572 210.074 28.2548 210.457 28.2548C210.845 28.2548 211.162 28.572 211.157 28.9548C211.162 29.3431 210.845 29.6603 210.457 29.6657ZM37.0078 55.5173C37.8992 55.5228 38.6266 56.0423 39.0477 56.9392H41.6016V54.7626H42.4547V64.5079H41.6016V60.7345H39.1078C38.7031 61.7188 37.9484 62.2931 37.0078 62.2876C35.5695 62.2931 34.5633 60.9806 34.5687 58.9079C34.5633 56.8407 35.5695 55.5228 37.0078 55.5173ZM35.3891 58.9079C35.3945 60.4884 36.0508 61.5274 37.0078 61.522C37.9594 61.5274 38.6266 60.4884 38.6266 58.9079C38.6266 57.3274 37.9594 56.2884 37.0078 56.2829C36.0508 56.2884 35.3945 57.3274 35.3891 58.9079ZM39.2937 57.661C39.3867 58.0384 39.4359 58.454 39.4359 58.9079C39.4359 59.3071 39.3977 59.6845 39.3266 60.0235H41.6016V57.661H39.2937ZM51.8434 54.7626V64.5079H50.9903V59.2251H49.0981V58.5032H50.9903V54.7626H51.8434ZM44.1325 56.3813V55.6704H48.5075V59.072H45.0184V61.4345C46.6973 61.4345 47.9114 61.3798 49.3278 61.1173L49.3934 61.8392C47.9333 62.1017 46.67 62.1618 44.9091 62.1673H44.1653V58.361H47.6763V56.3813H44.1325ZM61.1163 55.5173V56.0313C61.1108 56.6712 61.1108 57.6392 60.8647 58.9079L60.0006 58.8423C60.2358 57.6829 60.2577 56.8571 60.2686 56.2392H56.2709V55.5173H61.1163ZM55.6694 59.8157C56.2983 59.8157 57.0092 59.8103 57.7584 59.7884V57.672H58.6116V59.761C59.6889 59.7173 60.8045 59.6407 61.8163 59.4985L61.8709 60.1329C59.8311 60.4829 57.4905 60.5212 55.7569 60.5267L55.6694 59.8157ZM57.1678 64.2782V61.4235H58.0319V63.5563H63.6647V64.2782H57.1678ZM62.4725 62.0798V54.7626H63.3475V57.9345H64.7694V58.6673H63.3475V62.0798H62.4725ZM68.4925 56.272C68.487 57.4259 69.4714 58.547 70.8769 58.9954L70.4503 59.6735C69.3456 59.3126 68.487 58.5579 68.0659 57.6118C67.6339 58.6563 66.7316 59.5095 65.5941 59.9032L65.1675 59.2251C66.5839 58.7329 67.6284 57.5188 67.6284 56.261V55.9876H65.43V55.2767H70.6691V55.9876H68.4925V56.272ZM66.8737 60.9751V60.2751H73.1737V62.6048H67.7487V63.6876H73.5456V64.3767H66.8956V61.9485H72.3206V60.9751H66.8737ZM70.3628 57.6501V56.9392H72.3206V54.7626H73.1737V59.7938H72.3206V57.6501H70.3628ZM77.7063 55.4735C79.232 55.479 80.3148 56.4087 80.3203 57.7595C80.3148 59.1157 79.232 60.0399 77.7063 60.0454C76.1695 60.0399 75.0758 59.1157 75.0813 57.7595C75.0758 56.4087 76.1695 55.479 77.7063 55.4735ZM74.5781 61.6313C76.3719 61.6368 78.8492 61.6204 80.9984 61.3032L81.0641 61.9376C78.8383 62.3532 76.4484 62.3642 74.6984 62.3642L74.5781 61.6313ZM75.9234 57.7595C75.918 58.6673 76.6672 59.2907 77.7063 59.2907C78.7344 59.2907 79.4836 58.6673 79.4781 57.7595C79.4836 56.8571 78.7344 56.2282 77.7063 56.2282C76.6672 56.2282 75.918 56.8571 75.9234 57.7595ZM81.6438 64.5079V54.7626H82.4969V64.5079H81.6438ZM94.4275 54.7626V64.486H93.5744V54.7626H94.4275ZM86.5088 61.8938C87.34 61.8884 88.2916 61.8829 89.2759 61.8501V60.7892C88.1056 60.6688 87.3509 60.0017 87.3619 59.0282C87.3509 57.929 88.2861 57.2181 89.6916 57.2235C91.097 57.2181 92.0486 57.929 92.0431 59.0282C92.0486 59.9907 91.2939 60.6579 90.14 60.7892V61.8173C91.0806 61.7735 92.0322 61.7079 92.9291 61.5876L92.9947 62.2438C90.8236 62.5938 88.4447 62.6267 86.64 62.6267L86.5088 61.8938ZM86.7166 56.6657V55.9657H89.2759V54.7735H90.14V55.9657H92.6775V56.6657H86.7166ZM88.1603 59.0282C88.1548 59.7009 88.7892 60.1438 89.6916 60.1329C90.5994 60.1438 91.2283 59.7009 91.2228 59.0282C91.2283 58.3501 90.5994 57.8907 89.6916 57.8907C88.7892 57.8907 88.1548 58.3501 88.1603 59.0282ZM103.915 54.7735V61.9048H103.051V58.1751H101.049V57.4642H103.051V54.7735H103.915ZM95.8975 59.9579C97.3303 59.4548 98.3694 58.1696 98.3694 56.7751V56.272H96.1709V55.561H101.41V56.272H99.2334V56.7751C99.2334 58.0329 100.207 59.2524 101.629 59.7392L101.18 60.4282C100.087 60.029 99.2389 59.2142 98.8178 58.2079C98.3967 59.3345 97.4998 60.2259 96.3459 60.6579L95.8975 59.9579ZM97.6694 64.2782V61.2595H98.5334V63.5563H104.188V64.2782H97.6694ZM113.271 54.7626V64.5079H112.407V54.7626H113.271ZM105.614 58.9079C105.62 56.8407 106.648 55.5228 108.097 55.5173C109.541 55.5228 110.585 56.8407 110.58 58.9079C110.585 60.9806 109.541 62.2931 108.097 62.2876C106.648 62.2931 105.62 60.9806 105.614 58.9079ZM106.446 58.9079C106.446 60.4884 107.124 61.5274 108.097 61.522C109.076 61.5274 109.749 60.4884 109.749 58.9079C109.749 57.3274 109.076 56.2884 108.097 56.2829C107.124 56.2884 106.446 57.3274 106.446 58.9079ZM126.087 62.5173V63.2392H117.184V62.5173H121.198V60.1548H122.062V62.5173H126.087ZM117.622 59.8048C119.268 59.5259 121.176 58.1642 121.176 56.611V56.3704H117.917V55.6485H125.322V56.3704H122.062V56.611C122.068 58.1642 123.982 59.4985 125.661 59.772L125.311 60.4501C123.823 60.1548 122.254 59.2087 121.63 57.8634C121.007 59.2251 119.443 60.1931 117.983 60.4938L117.622 59.8048ZM134.185 54.7626V57.2563H135.651V57.9892H134.185V60.4173H133.332V54.7626H134.185ZM126.606 56.4798V55.7688H129.078V54.6751H129.931V55.7688H132.403V56.4798H126.606ZM127.163 58.6345C127.158 57.5954 128.093 56.9337 129.504 56.9282C130.899 56.9337 131.834 57.5954 131.845 58.6345C131.834 59.6735 130.899 60.3462 129.504 60.3407C128.093 60.3462 127.158 59.6735 127.163 58.6345ZM127.984 58.6345C127.978 59.2688 128.585 59.6845 129.504 59.6845C130.412 59.6845 131.024 59.2688 131.035 58.6345C131.024 58.0056 130.412 57.5845 129.504 57.5954C128.585 57.5845 127.978 58.0056 127.984 58.6345ZM128.038 64.3548V60.8438H128.892V61.8829H133.332V60.8438H134.185V64.3548H128.038ZM128.892 63.6657H133.332V62.561H128.892V63.6657ZM141.78 58.9626V59.6735H139.647V61.5876C140.599 61.5493 141.556 61.4837 142.458 61.3798L142.524 62.0251C140.369 62.3368 138.018 62.3806 136.158 62.3751L136.038 61.6532C136.886 61.6532 137.826 61.6478 138.794 61.6204V59.6735H136.782V55.6923H141.737V56.3923H137.624V58.9626H141.78ZM143.104 64.5079V54.7626H143.957V64.5079H143.104ZM150.305 55.6157V56.4798H152.58V54.7735H153.444V61.872H152.58V59.2798H150.305V60.1548H145.842V55.6157H150.305ZM146.696 59.4657H149.463V56.3267H146.696V59.4657ZM147.155 64.2782V61.2376H148.019V63.5563H153.663V64.2782H147.155ZM150.305 58.5688H152.58V57.2017H150.305V58.5688ZM166.217 62.561V63.2829H157.314V62.561H161.317V60.7235H158.429V57.7267H164.248V56.1954H158.407V55.4845H165.09V58.4267H159.282V60.0126H165.32V60.7235H162.159V62.561H166.217ZM168.748 55.0251V56.1188H173.56V55.0251H174.413V58.5907H171.57V59.7063H175.573V60.3954H166.713V59.7063H170.727V58.5907H167.895V55.0251H168.748ZM167.402 63.7751C169.152 63.529 170.706 62.5774 170.706 61.3142V61.0407H171.57V61.3142C171.57 62.5774 173.117 63.529 174.895 63.7751L174.567 64.4423C173.074 64.2017 171.723 63.5235 171.143 62.479C170.558 63.5235 169.207 64.2017 167.731 64.4423L167.402 63.7751ZM168.748 57.9126H173.56V56.797H168.748V57.9126ZM184.2 55.4298V56.1188H183.205V58.6345C183.703 58.6017 184.195 58.5579 184.66 58.5032L184.703 59.1485C182.729 59.4438 180.454 59.4712 178.775 59.4657L178.677 58.7548C179.071 58.7548 179.492 58.7548 179.935 58.7493V56.1188H178.95V55.4298H184.2ZM180.044 60.9751V60.286H186.246V62.6048H180.908V63.6767H186.607V64.3767H180.066V61.9485H185.392V60.9751H180.044ZM180.777 58.7384C181.296 58.7274 181.827 58.711 182.363 58.6837V56.1188H180.777V58.7384ZM185.392 59.8157V54.7626H186.246V56.9063H187.711V57.6282H186.246V59.8157H185.392ZM198.636 54.7735V61.9048H197.772V58.1751H195.77V57.4642H197.772V54.7735H198.636ZM190.618 59.9579C192.051 59.4548 193.09 58.1696 193.09 56.7751V56.272H190.892V55.561H196.131V56.272H193.954V56.7751C193.954 58.0329 194.928 59.2524 196.35 59.7392L195.901 60.4282C194.808 60.029 193.96 59.2142 193.539 58.2079C193.118 59.3345 192.221 60.2259 191.067 60.6579L190.618 59.9579ZM192.39 64.2782V61.2595H193.254V63.5563H198.909V64.2782H192.39ZM202.818 57.7595C202.824 59.3235 203.617 60.9259 204.94 61.6313L204.448 62.2767C203.48 61.7462 202.78 60.7399 202.424 59.5696C202.08 60.8165 201.385 61.9103 200.412 62.4954L199.898 61.8392C201.221 61.0735 202.003 59.3673 202.009 57.7595V57.2782H200.16V56.5673H202.009V55.1235H202.829V56.5673H204.645V57.2782H202.818V57.7595ZM203.978 59.3345V58.6017H205.509V55.0032H206.318V63.9829H205.509V59.3345H203.978ZM207.467 64.486V54.7626H208.287V64.486H207.467ZM216.899 54.7626V58.722H218.474V59.4438H216.899V64.486H216.046V54.7626H216.899ZM209.44 61.9595C211.95 60.7126 213.317 58.8368 213.514 56.5345H209.888V55.8126H214.383C214.378 58.5634 213.087 61.0735 209.921 62.6376L209.44 61.9595ZM228.83 54.7626V58.7767H230.459V59.4876H228.83V64.486H227.977V54.7626H228.83ZM221.25 57.0376V56.3267H223.755V54.8829H224.608V56.3267H227.036V57.0376H221.25ZM221.808 60.0782C221.802 58.7657 222.809 57.847 224.192 57.847C225.565 57.847 226.566 58.7657 226.577 60.0782C226.566 61.3962 225.565 62.3095 224.192 62.3095C222.809 62.3095 221.802 61.3962 221.808 60.0782ZM222.628 60.0782C222.623 60.9642 223.284 61.5876 224.192 61.5767C225.089 61.5876 225.745 60.9642 225.756 60.0782C225.745 59.1978 225.089 58.5634 224.192 58.5688C223.284 58.5634 222.623 59.1978 222.628 60.0782ZM239.804 58.6454V59.3673H238.229V64.486H237.376V54.7626H238.229V58.6454H239.804ZM231.109 62.0142V55.7251H231.962V61.2923C233.384 61.2923 234.833 61.1829 236.436 60.8438L236.545 61.5767C234.866 61.9157 233.357 62.0142 231.886 62.0142H231.109ZM243.287 55.4735C244.813 55.479 245.895 56.4087 245.901 57.7595C245.895 59.1157 244.813 60.0399 243.287 60.0454C241.75 60.0399 240.656 59.1157 240.662 57.7595C240.656 56.4087 241.75 55.479 243.287 55.4735ZM240.159 61.6313C241.952 61.6368 244.43 61.6204 246.579 61.3032L246.645 61.9376C244.419 62.3532 242.029 62.3642 240.279 62.3642L240.159 61.6313ZM241.504 57.7595C241.499 58.6673 242.248 59.2907 243.287 59.2907C244.315 59.2907 245.064 58.6673 245.059 57.7595C245.064 56.8571 244.315 56.2282 243.287 56.2282C242.248 56.2282 241.499 56.8571 241.504 57.7595ZM247.224 64.5079V54.7626H248.077V64.5079H247.224ZM260.096 54.7735V61.9595H259.232V59.3345H256.716C256.267 59.9087 255.546 60.2532 254.714 60.2532C253.26 60.2532 252.182 59.247 252.188 57.8251C252.182 56.3978 253.26 55.3915 254.714 55.386C255.54 55.3915 256.251 55.7306 256.705 56.2938H259.232V54.7735H260.096ZM253.008 57.8251C253.008 58.7985 253.719 59.4931 254.714 59.4876C255.671 59.4931 256.399 58.7985 256.399 57.8251C256.399 56.8571 255.671 56.1571 254.714 56.1517C253.719 56.1571 253.008 56.8571 253.008 57.8251ZM253.85 64.2782V61.2048H254.714V63.5563H260.369V64.2782H253.85ZM257.093 57.0048C257.181 57.2563 257.23 57.5298 257.23 57.8251C257.23 58.1095 257.181 58.3774 257.099 58.6235H259.232V57.0048H257.093ZM270.327 59.6517V60.3626H261.434V59.6517H265.437V58.1532H266.28V59.6517H270.327ZM261.97 57.9892C263.687 57.754 265.427 56.6712 265.427 55.3751V54.9157H266.291V55.3751C266.291 56.6712 268.041 57.754 269.758 57.9892L269.408 58.6782C267.937 58.4212 266.471 57.6392 265.864 56.5181C265.252 57.6501 263.791 58.4212 262.298 58.6782L261.97 57.9892ZM262.419 62.0032V61.3142H269.2V64.486H268.336V62.0032H262.419ZM40.0484 74.9563V75.6563H38.0797V77.0126C38.9875 76.9743 39.8953 76.9087 40.7375 76.8157L40.8031 77.4501C38.7086 77.7399 36.3953 77.8001 34.5687 77.8001L34.4375 77.1001C35.2906 77.0946 36.2477 77.0837 37.2266 77.0509V75.6563H35.3234V72.397H39.9719V73.1079H36.1875V74.9563H40.0484ZM36.1 81.2782V78.5438H36.9531V80.5563H42.7281V81.2782H36.1ZM41.5469 79.047V71.7735H42.4109V79.047H41.5469ZM55.1947 76.5751V77.2642H46.3244V76.5751H50.3384V75.4376H47.4509V72.222H54.09V72.911H48.2931V74.7376H54.1556V75.4376H51.1697V76.5751H55.1947ZM47.3962 79.7251C47.3908 78.6149 48.6541 77.9806 50.7541 77.9751C52.8377 77.9806 54.09 78.6149 54.1009 79.7251C54.09 80.8462 52.8377 81.4751 50.7541 81.486C48.6541 81.4751 47.3908 80.8462 47.3962 79.7251ZM48.2712 79.7251C48.2603 80.4087 49.1955 80.8024 50.7541 80.797C52.2962 80.8024 53.2314 80.4087 53.2369 79.7251C53.2314 79.0524 52.2962 78.6532 50.7541 78.6532C49.1955 78.6532 48.2603 79.0524 48.2712 79.7251ZM59.0163 73.5673C59.0217 74.8634 59.9733 76.0446 61.4116 76.5423L60.9741 77.2095C59.8639 76.8157 59.0163 76.0228 58.6006 75.0165C58.185 76.1212 57.2936 76.9798 56.1506 77.3954L55.6913 76.7282C57.1459 76.2142 58.1631 74.9618 58.1741 73.5673V73.1517H55.9538V72.4517H61.2038V73.1517H59.0163V73.5673ZM56.96 78.8392V78.1392H63.3256V81.486H62.4725V78.8392H56.96ZM62.4725 77.6251V71.7626H63.3256V74.3329H64.7913V75.0657H63.3256V77.6251H62.4725ZM69.5534 71.9376C71.7136 71.9376 72.9823 72.5337 72.9878 73.611C72.9823 74.7157 71.7136 75.3118 69.5534 75.3173C67.3823 75.3118 66.1081 74.7157 66.1081 73.611C66.1081 72.5337 67.3823 71.9376 69.5534 71.9376ZM65.1237 76.6735V75.9735H73.9831V76.6735H65.1237ZM66.1956 78.172V77.5157H72.8456V79.6923H67.0706V80.6985H73.1409V81.3767H66.2175V79.0579H72.0034V78.172H66.1956ZM67.005 73.611C66.9941 74.2892 67.9402 74.661 69.5534 74.661C71.1667 74.661 72.1073 74.2892 72.1128 73.611C72.1073 72.9712 71.1667 72.5884 69.5534 72.5829C67.9402 72.5884 66.9941 72.9712 67.005 73.611ZM81.9653 72.6485V77.122H77.47V72.6485H81.9653ZM78.3122 76.4329H81.1341V73.3485H78.3122V76.4329ZM78.5747 81.2782V78.2157H79.4169V80.5563H85.1044V81.2782H78.5747ZM83.8028 78.8938V71.7626H84.6559V74.7267H86.1216V75.4485H84.6559V78.8938H83.8028ZM95.3244 75.8532V76.5423H86.4541V75.8532H95.3244ZM87.5259 78.0845V77.4173H94.1759V79.6704H88.4009V80.6767H94.4713V81.3767H87.5478V79.0251H93.3338V78.0845H87.5259ZM87.6353 75.0548V72.1017H94.165V72.7907H88.4994V74.3548H94.2634V75.0548H87.6353ZM98.4678 72.5173C99.7912 72.5228 100.748 73.6603 100.88 75.4813H103.062V71.7626H103.915V81.5079H103.062V76.1923H100.89C100.797 78.1009 99.8241 79.2931 98.4678 79.2876C97.0295 79.2931 96.0233 77.9806 96.0287 75.9079C96.0233 73.8407 97.0295 72.5228 98.4678 72.5173ZM96.8491 75.9079C96.8545 77.4884 97.5108 78.5274 98.4678 78.522C99.4194 78.5274 100.087 77.4884 100.087 75.9079C100.087 74.3274 99.4194 73.2884 98.4678 73.2829C97.5108 73.2884 96.8545 74.3274 96.8491 75.9079ZM113.555 71.7626V81.486H112.713V76.4548H111.313V80.9829H110.503V71.9813H111.313V75.722H112.713V71.7626H113.555ZM105.746 78.9704V72.9548H106.599V78.2048C107.561 78.1993 108.6 78.1282 109.782 77.8876L109.891 78.6532C108.535 78.8993 107.419 78.9704 106.347 78.9704H105.746ZM119.477 72.736V74.1032H121.861V71.7626H122.714V81.5079H121.861V77.4938H119.477V79.0251H115.047V72.736H119.477ZM115.9 78.336H118.645V73.4142H115.9V78.336ZM119.477 76.7829H121.861V74.8142H119.477V76.7829ZM125.65 79.8673L124.797 82.8423H123.987L124.589 79.8673H125.65ZM137.187 71.7626V81.5079H136.323V71.7626H137.187ZM129.53 75.9079C129.536 73.8407 130.564 72.5228 132.013 72.5173C133.457 72.5228 134.501 73.8407 134.496 75.9079C134.501 77.9806 133.457 79.2931 132.013 79.2876C130.564 79.2931 129.536 77.9806 129.53 75.9079ZM130.362 75.9079C130.362 77.4884 131.04 78.5274 132.013 78.522C132.992 78.5274 133.665 77.4884 133.665 75.9079C133.665 74.3274 132.992 73.2884 132.013 73.2829C131.04 73.2884 130.362 74.3274 130.362 75.9079ZM147.461 76.2798V76.9579H138.558V76.2798H147.461ZM139.63 78.3798V77.7345H146.346V79.8017H140.505V80.7313H146.663V81.3548H139.641V79.211H145.493V78.3798H139.63ZM139.685 72.6813V72.0579H146.313V74.0704H140.571V74.9235H146.488V75.547H139.718V73.4798H145.449V72.6813H139.685ZM159.359 76.9251V77.6251H150.489V76.9251H154.492V75.9626H151.67V72.047H158.254V72.747H152.534V73.6548H157.992V74.311H152.534V75.2735H158.309V75.9626H155.345V76.9251H159.359ZM151.572 79.911C151.566 78.8993 152.775 78.347 154.929 78.3579C157.062 78.347 158.265 78.8993 158.276 79.911C158.265 80.9337 157.062 81.4642 154.929 81.4642C152.775 81.4642 151.566 80.9337 151.572 79.911ZM152.436 79.911C152.425 80.5017 153.322 80.8079 154.929 80.797C156.521 80.8079 157.407 80.5017 157.412 79.911C157.407 79.3313 156.521 79.0087 154.929 79.0032C153.322 79.0087 152.425 79.3313 152.436 79.911ZM164.756 73.447V74.147H159.877V73.447H161.901V72.0579H162.754V73.447H164.756ZM160.227 77.0126C160.227 75.722 161.108 74.8087 162.317 74.8032C163.542 74.8087 164.417 75.722 164.427 77.0126C164.417 78.3196 163.542 79.2384 162.317 79.2438C161.108 79.2384 160.227 78.3196 160.227 77.0126ZM160.993 77.0126C160.993 77.8767 161.545 78.4946 162.317 78.4892C163.093 78.4946 163.662 77.8767 163.662 77.0126C163.662 76.1595 163.093 75.536 162.317 75.5251C161.545 75.536 160.993 76.1595 160.993 77.0126ZM165.259 81.0048V72.0032H166.068V75.8642H167.359V71.7626H168.179V81.486H167.359V76.5751H166.068V81.0048H165.259ZM174.16 72.5282C175.341 72.5337 176.227 73.3376 176.369 74.5517H177.419V71.9595H178.228V78.7626H177.419V75.2735H176.364C176.205 76.4493 175.325 77.2423 174.16 77.2313C172.858 77.2423 171.934 76.2743 171.939 74.8907C171.934 73.4907 172.858 72.5337 174.16 72.5282ZM172.716 74.8907C172.705 75.8368 173.323 76.4985 174.16 76.4985C174.985 76.4985 175.603 75.8368 175.614 74.8907C175.603 73.9501 174.985 73.2665 174.16 73.272C173.323 73.2665 172.705 73.9501 172.716 74.8907ZM173.711 81.2782V78.1063H174.564V80.5563H180.383V81.2782H173.711ZM179.267 79.047V71.7626H180.088V79.047H179.267ZM189.083 76.4438V77.1548H182.367V72.6704H188.984V73.3813H183.22V76.4438H189.083ZM181.23 80.1626V79.4407H190.133V80.1626H181.23ZM198.647 71.7626V81.5079H197.783V71.7626H198.647ZM190.99 75.9079C190.996 73.8407 192.024 72.5228 193.473 72.5173C194.917 72.5228 195.961 73.8407 195.956 75.9079C195.961 77.9806 194.917 79.2931 193.473 79.2876C192.024 79.2931 190.996 77.9806 190.99 75.9079ZM191.822 75.9079C191.822 77.4884 192.5 78.5274 193.473 78.522C194.452 78.5274 195.125 77.4884 195.125 75.9079C195.125 74.3274 194.452 73.2884 193.473 73.2829C192.5 73.2884 191.822 74.3274 191.822 75.9079ZM204.732 72.572V73.2829H203.879V76.3181C204.256 76.2907 204.623 76.2579 204.962 76.2142L204.995 76.8704C203.425 77.1329 201.385 77.1493 200.084 77.1548L199.985 76.422C200.286 76.422 200.631 76.422 201.003 76.4165V73.2829H200.16V72.572H204.732ZM201.67 78.861V78.161H208.309V81.486H207.467V78.861H201.67ZM201.812 76.4056C202.228 76.3946 202.654 76.3837 203.081 76.3618V73.2829H201.812V76.4056ZM204.393 75.0876V74.3767H205.695V71.9485H206.504V77.6251H205.695V75.0876H204.393ZM207.488 77.6798V71.7626H208.309V77.6798H207.488ZM217.49 71.7626V81.5079H216.637V76.1485H214.58V75.4376H216.637V71.7626H217.49ZM209.877 79.1563V72.6595H214.416V73.3704H210.741V75.3938H213.99V76.0938H210.741V78.4454C212.524 78.4399 213.673 78.3907 215.007 78.1501L215.105 78.861C213.689 79.0907 212.502 79.1563 210.621 79.1563H209.877ZM227.721 76.2798V76.9579H218.818V76.2798H227.721ZM219.889 78.3798V77.7345H226.605V79.8017H220.764V80.7313H226.922V81.3548H219.9V79.211H225.752V78.3798H219.889ZM219.944 72.6813V72.0579H226.572V74.0704H220.83V74.9235H226.747V75.547H219.977V73.4798H225.708V72.6813H219.944ZM238.776 71.7735V79.1563H237.912V78.1501H235.9V77.5267H237.912V71.7735H238.776ZM230.704 76.2798C232.515 76.2688 234.954 76.2524 237.037 75.9954L237.092 76.6188C236.228 76.7556 235.315 76.8431 234.423 76.8978V78.8173H233.559V76.9415C232.575 76.9798 231.64 76.9798 230.825 76.9798L230.704 76.2798ZM231.492 73.8626C231.486 72.8399 232.46 72.1673 233.898 72.1673C235.325 72.1673 236.299 72.8399 236.304 73.8626C236.299 74.9017 235.325 75.547 233.898 75.547C232.46 75.547 231.486 74.9017 231.492 73.8626ZM232.104 81.2782V78.4345H232.968V80.5563H239.017V81.2782H232.104ZM232.312 73.8626C232.301 74.497 232.947 74.9071 233.898 74.9126C234.822 74.9071 235.479 74.497 235.484 73.8626C235.479 73.2392 234.822 72.8126 233.898 72.8235C232.947 72.8126 232.301 73.2392 232.312 73.8626ZM247.684 71.7626V75.7767H249.313V76.4876H247.684V81.486H246.831V71.7626H247.684ZM240.104 74.0376V73.3267H242.609V71.8829H243.462V73.3267H245.89V74.0376H240.104ZM240.662 77.0782C240.656 75.7657 241.663 74.847 243.046 74.847C244.419 74.847 245.42 75.7657 245.431 77.0782C245.42 78.3962 244.419 79.3095 243.046 79.3095C241.663 79.3095 240.656 78.3962 240.662 77.0782ZM241.482 77.0782C241.477 77.9642 242.138 78.5876 243.046 78.5767C243.943 78.5876 244.599 77.9642 244.61 77.0782C244.599 76.1978 243.943 75.5634 243.046 75.5688C242.138 75.5634 241.477 76.1978 241.482 77.0782ZM257.423 74.7157V75.4048H250.762V72.1235H251.615V74.7157H257.423ZM249.548 77.4282V76.7282H258.451V77.4282H249.548ZM250.707 81.2454V78.4235H251.56V80.5345H257.477V81.2454H250.707ZM264.694 72.2438C266.148 72.2329 267.193 73.0368 267.187 74.2235C267.193 75.4103 266.148 76.2196 264.694 76.2142C263.239 76.2196 262.2 75.4103 262.2 74.2235C262.2 73.0368 263.239 72.2329 264.694 72.2438ZM261.467 77.0454C263.294 77.0509 265.793 77.0126 267.953 76.6954L268.008 77.3407C267.078 77.5103 266.116 77.6142 265.175 77.6743V81.1907H264.322V77.7235C263.332 77.7673 262.397 77.7728 261.587 77.7782L261.467 77.0454ZM263.042 74.2235C263.031 74.9837 263.726 75.5087 264.694 75.5032C265.673 75.5087 266.373 74.9837 266.367 74.2235C266.373 73.4688 265.673 72.9329 264.694 72.9438C263.726 72.9329 263.031 73.4688 263.042 74.2235ZM268.664 81.497V71.7735H269.506V81.497H268.664ZM42.4109 88.7626V98.486H41.5469V88.7626H42.4109ZM34.5906 95.9376C36.0344 95.2813 37.1391 93.6407 37.1391 91.9345V91.1579H34.8531V90.4579H37.1281V88.9485H37.9812V90.4579H40.2453V91.1579H37.9812V91.9345C37.9812 93.5642 39.1187 95.1392 40.5844 95.7626L40.1031 96.4298C38.9766 95.9321 38.0305 94.8821 37.5766 93.597C37.1391 94.9532 36.1984 96.0743 35.0719 96.6048L34.5906 95.9376ZM52.6966 96.561V97.2829H43.7934V96.561H47.7966V94.7235H44.9091V91.7267H50.7278V90.1954H44.8872V89.4845H51.57V92.4267H45.7622V94.0126H51.7997V94.7235H48.6388V96.561H52.6966ZM63.7413 88.7626V98.5079H62.8772V88.7626H63.7413ZM56.085 92.9079C56.0905 90.8407 57.1186 89.5228 58.5678 89.5173C60.0116 89.5228 61.0561 90.8407 61.0506 92.9079C61.0561 94.9806 60.0116 96.2931 58.5678 96.2876C57.1186 96.2931 56.0905 94.9806 56.085 92.9079ZM56.9163 92.9079C56.9163 94.4884 57.5944 95.5274 58.5678 95.522C59.5467 95.5274 60.2194 94.4884 60.2194 92.9079C60.2194 91.3274 59.5467 90.2884 58.5678 90.2829C57.5944 90.2884 56.9163 91.3274 56.9163 92.9079ZM73.9941 93.5751V94.2642H65.1237V93.5751H69.1378V92.4376H66.2503V89.222H72.8894V89.911H67.0925V91.7376H72.955V92.4376H69.9691V93.5751H73.9941ZM66.1956 96.7251C66.1902 95.6149 67.4534 94.9806 69.5534 94.9751C71.637 94.9806 72.8894 95.6149 72.9003 96.7251C72.8894 97.8462 71.637 98.4751 69.5534 98.486C67.4534 98.4751 66.1902 97.8462 66.1956 96.7251ZM67.0706 96.7251C67.0597 97.4087 67.9948 97.8024 69.5534 97.797C71.0956 97.8024 72.0308 97.4087 72.0362 96.7251C72.0308 96.0524 71.0956 95.6532 69.5534 95.6532C67.9948 95.6532 67.0597 96.0524 67.0706 96.7251ZM77.9797 91.3767C77.9742 93.154 79.1828 94.9368 80.6156 95.5876L80.0906 96.2657C78.9805 95.7298 78.0234 94.5759 77.5586 93.1923C77.1102 94.6579 76.1531 95.8884 75.0156 96.4626L74.4688 95.7407C75.918 95.079 77.1156 93.2196 77.1266 91.3767V89.6048H77.9797V91.3767ZM81.6766 98.5079V88.7626H82.5406V98.5079H81.6766ZM91.9403 88.7626V93.8485H91.0981V88.7626H91.9403ZM84.1419 91.0376L87.9153 90.879C88.052 90.5673 88.1341 90.2337 88.1669 89.8892H84.6231V89.2001H89.0856C89.0856 91.6282 87.527 93.329 84.5247 94.0892L84.2075 93.411C85.8208 93.0063 86.9255 92.3446 87.5489 91.5024L84.2841 91.7485L84.1419 91.0376ZM85.6294 95.0188V94.3407H91.9403V96.6048H86.4934V97.6876H92.2903V98.3767H85.6403V95.9704H91.0981V95.0188H85.6294ZM100.732 89.6704C100.737 91.0431 102.52 92.2243 104.276 92.4704L103.926 93.1704C102.416 92.9188 100.918 92.0821 100.294 90.8899C99.6709 92.0931 98.178 92.9188 96.6631 93.1704L96.3131 92.4704C98.0686 92.2243 99.8459 91.0649 99.8459 89.6704V89.1126H100.732V89.6704ZM95.8537 94.9642V94.2423H104.713V94.9642H100.688V98.486H99.8459V94.9642H95.8537ZM111.077 95.2923C111.071 96.1509 111.536 97.0642 112.46 97.5892C113.39 97.0149 113.882 96.0415 113.877 95.2923V94.7563H114.719V95.2923C114.713 96.2931 115.452 97.2884 116.698 97.7204L116.272 98.3548C115.298 98.0103 114.62 97.3321 114.281 96.5173C113.98 97.3048 113.384 98.054 112.487 98.4313C111.541 98.0704 110.94 97.3595 110.65 96.5446C110.3 97.3267 109.633 98.0048 108.703 98.3548L108.266 97.7204C109.496 97.261 110.234 96.222 110.245 95.2923V94.7563H111.077V95.2923ZM108.014 91.6173C108.009 90.261 109.086 89.3368 110.562 89.3423C112.039 89.3368 113.105 90.261 113.111 91.6173C113.105 92.9517 112.039 93.8704 110.562 93.8704C109.086 93.8704 108.009 92.9517 108.014 91.6173ZM108.856 91.6173C108.845 92.5196 109.562 93.154 110.562 93.1595C111.552 93.154 112.269 92.5196 112.269 91.6173C112.269 90.7095 111.552 90.0642 110.562 90.0751C109.562 90.0642 108.845 90.7095 108.856 91.6173ZM114.959 94.3298V88.7735H115.812V94.3298H114.959ZM119.164 94.6032V95.7407H124.02V94.6032H124.884V98.3548H118.311V94.6032H119.164ZM117.184 93.9142V93.2032H126.043V93.9142H117.184ZM117.687 91.8251C119.421 91.5899 121.176 90.5673 121.176 89.3313V88.872H122.062V89.3313C122.057 90.529 123.829 91.6063 125.54 91.8251L125.223 92.5142C123.719 92.2899 122.237 91.5243 121.619 90.436C121.001 91.5298 119.514 92.2899 118.015 92.5142L117.687 91.8251ZM119.164 97.6657H124.02V96.4188H119.164V97.6657ZM134.601 88.7626V98.486H133.748V88.7626H134.601ZM127.218 95.9813V89.7251H128.06V95.2376C129.548 95.2267 131.079 95.1118 132.709 94.7673L132.829 95.5001C131.101 95.861 129.564 95.9813 128.006 95.9813H127.218ZM143.508 88.7626V92.6126H145.138V93.3345H143.508V98.5079H142.655V88.7626H143.508ZM136.41 96.0688V89.7142H140.949V90.4251H137.263V95.347C139.024 95.3415 140.265 95.2649 141.715 94.997L141.824 95.7407C140.298 96.0142 139.024 96.0688 137.176 96.0688H136.41ZM146.411 97.6657C146.028 97.6603 145.7 97.3431 145.711 96.9548C145.7 96.572 146.028 96.2548 146.411 96.2548C146.8 96.2548 147.117 96.572 147.111 96.9548C147.117 97.3431 146.8 97.6603 146.411 97.6657Z" fill="white"/>
<rect width="270" height="80" transform="translate(20 -10)" fill="url(#paint0_linear_433_8002)"/>
<path d="M206.2 134.2C206.2 129.561 209.961 125.8 214.6 125.8H435.6C440.239 125.8 444 129.561 444 134.2V154H214.6C209.961 154 206.2 150.239 206.2 145.6V134.2Z" fill="#A6C3FC"/>
<path d="M222.661 134.541V137.691H224.083V138.555H222.661V141.869H221.622V134.541H222.661ZM214.972 136.52V135.678H217.378V134.53H218.417V135.678H220.813V136.52H214.972ZM215.508 138.839C215.502 137.718 216.47 136.985 217.892 136.991C219.298 136.985 220.266 137.718 220.266 138.839C220.266 139.949 219.298 140.671 217.892 140.676C216.47 140.671 215.502 139.949 215.508 138.839ZM216.449 144.122V141.289H217.488V143.28H223.077V144.122H216.449ZM216.514 138.839C216.503 139.479 217.061 139.873 217.892 139.867C218.724 139.873 219.281 139.479 219.292 138.839C219.281 138.194 218.724 137.794 217.892 137.789C217.061 137.794 216.503 138.194 216.514 138.839ZM232.273 135.273V135.82C232.262 136.476 232.262 137.45 232.021 138.719L230.993 138.62C231.207 137.537 231.239 136.744 231.25 136.126H227.329V135.273H232.273ZM226.739 139.561C227.34 139.561 228.024 139.555 228.74 139.539V137.472H229.768V139.506C230.818 139.462 231.901 139.386 232.885 139.244L232.951 139.998C230.906 140.359 228.565 140.398 226.837 140.403L226.739 139.561ZM228.226 144.122V141.223H229.265V143.28H234.887V144.122H228.226ZM233.509 141.891V134.53H234.57V137.647H235.915V138.522H234.57V141.891H233.509ZM239.693 136.006C239.693 137.116 240.59 138.226 242.044 138.664L241.552 139.484C240.437 139.14 239.611 138.418 239.184 137.516C238.741 138.511 237.877 139.337 236.729 139.714L236.215 138.894C237.697 138.401 238.654 137.193 238.654 135.995V135.842H236.521V135H241.804V135.842H239.693V136.006ZM237.965 140.851V140.02H244.374V142.47H239.026V143.4H244.724V144.22H237.987V141.683H243.346V140.851H237.965ZM241.519 137.505V136.662H243.346V134.53H244.374V139.572H243.346V137.505H241.519ZM250.58 135.394V139.966H245.997V135.394H250.58ZM247.014 139.145H249.563V136.236H247.014V139.145ZM247.102 144.122V141.016H248.141V143.28H253.73V144.122H247.102ZM252.275 141.705V134.519H253.314V137.45H254.736V138.325H253.314V141.705H252.275ZM261.931 134.694C264.08 134.699 265.426 135.388 265.431 136.564C265.426 137.718 264.08 138.401 261.931 138.401C259.787 138.401 258.426 137.718 258.431 136.564C258.426 135.388 259.787 134.699 261.931 134.694ZM257.469 139.911V139.069H266.404V139.911H262.445V140.939H265.311V144.209H258.54V140.939H261.417V139.911H257.469ZM259.503 136.564C259.497 137.22 260.422 137.592 261.931 137.592C263.429 137.592 264.365 137.22 264.359 136.564C264.365 135.886 263.429 135.503 261.931 135.503C260.422 135.503 259.497 135.886 259.503 136.564ZM259.569 143.367H264.304V141.77H259.569V143.367ZM270.499 136.291C270.499 137.548 271.435 138.757 272.949 139.233L272.414 140.042C271.287 139.67 270.434 138.899 269.991 137.915C269.548 138.976 268.678 139.818 267.514 140.228L266.978 139.43C268.503 138.899 269.444 137.619 269.449 136.291V136.017H267.251V135.175H272.654V136.017H270.499V136.291ZM268.356 141.781V140.939H274.995V144.33H273.956V141.781H268.356ZM273.956 140.447V134.53H274.995V140.447H273.956ZM284.384 134.53V144.351H283.344V134.53H284.384ZM276.607 138.697C276.607 136.602 277.662 135.268 279.144 135.262C280.599 135.268 281.671 136.602 281.671 138.697C281.671 140.813 280.599 142.148 279.144 142.142C277.662 142.148 276.607 140.813 276.607 138.697ZM277.613 138.697C277.608 140.255 278.231 141.212 279.144 141.212C280.041 141.212 280.665 140.255 280.665 138.697C280.665 137.16 280.041 136.198 279.144 136.192C278.231 136.198 277.608 137.16 277.613 138.697ZM290.666 135.361V136.192H292.799V134.541H293.838V141.683H292.799V139.145H290.666V139.998H286.116V135.361H290.666ZM287.144 139.178H289.649V136.203H287.144V139.178ZM287.439 144.122V141.026H288.489V143.28H294.057V144.122H287.439ZM290.666 138.292H292.799V137.045H290.666V138.292ZM306.49 142.284V143.159H297.522V142.284H301.47V140.567H298.615V137.45H304.369V136.072H298.594V135.219H305.397V138.281H299.644V139.714H305.626V140.567H302.498V142.284H306.49ZM309.12 134.792V135.809H313.659V134.792H314.698V138.423H311.898V139.43H315.857V140.261H306.921V139.43H310.881V138.423H308.092V134.792H309.12ZM307.589 143.476C309.475 143.241 310.853 142.279 310.859 141.103V140.862H311.909V141.103C311.903 142.279 313.282 143.241 315.19 143.476L314.818 144.286C313.265 144.051 311.985 143.389 311.384 142.405C310.782 143.389 309.508 144.051 307.971 144.286L307.589 143.476ZM309.12 137.603H313.659V136.608H309.12V137.603ZM324.343 135.175V135.995H323.413V138.336C323.878 138.308 324.332 138.265 324.769 138.216L324.813 138.981C322.844 139.276 320.58 139.304 318.896 139.298L318.775 138.467C319.153 138.467 319.557 138.462 319.979 138.462V135.995H319.049V135.175H324.343ZM320.143 140.862V140.042H326.475V142.47H321.182V143.4H326.814V144.231H320.164V141.716H325.447V140.862H320.143ZM320.985 138.445C321.45 138.434 321.92 138.418 322.396 138.396V135.995H320.985V138.445ZM325.436 139.594V134.53H326.475V136.608H327.897V137.472H326.475V139.594H325.436ZM338.8 134.541V141.716H337.761V138.03H335.89V137.187H337.761V134.541H338.8ZM330.64 139.67C332.144 139.162 333.085 137.871 333.079 136.52V136.137H330.958V135.284H336.24V136.137H334.14V136.52C334.135 137.74 335.021 138.97 336.503 139.462L335.967 140.294C334.868 139.911 334.053 139.123 333.626 138.15C333.2 139.233 332.341 140.097 331.176 140.512L330.64 139.67ZM332.434 144.122V141.07H333.473V143.28H339.062V144.122H332.434ZM342.96 137.537C342.96 139.08 343.677 140.649 345.028 141.376L344.448 142.142C343.496 141.639 342.84 140.704 342.485 139.594C342.135 140.78 341.478 141.803 340.532 142.372L339.92 141.584C341.276 140.797 341.976 139.118 341.987 137.537V137.144H340.215V136.291H341.987V134.88H342.96V136.291H344.699V137.144H342.96V137.537ZM344.054 139.211V138.347H345.465V134.737H346.449V143.837H345.465V139.211H344.054ZM347.445 144.33V134.53H348.44V144.33H347.445ZM357.369 139.047V139.878H354.405V142.273H358.398V143.126H349.429V142.273H353.377V139.878H350.544V135.284H357.282V136.126H351.584V139.047H357.369ZM368.983 134.53V136.739H370.405V137.581H368.983V139.736H367.944V134.53H368.983ZM361.294 139.08C363.76 138.582 365.045 137.428 365.188 136.039H361.731V135.208H366.336C366.336 137.707 364.646 139.298 361.731 139.922L361.294 139.08ZM362.694 144.209V140.151H369.027V140.939H363.733V141.781H368.917V142.536H363.733V143.422H369.245V144.209H362.694ZM378.798 134.53V144.351H377.759V134.53H378.798ZM371.022 138.697C371.022 136.602 372.077 135.268 373.559 135.262C375.014 135.268 376.086 136.602 376.086 138.697C376.086 140.813 375.014 142.148 373.559 142.142C372.077 142.148 371.022 140.813 371.022 138.697ZM372.028 138.697C372.022 140.255 372.646 141.212 373.559 141.212C374.456 141.212 375.079 140.255 375.079 138.697C375.079 137.16 374.456 136.198 373.559 136.192C372.646 136.198 372.022 137.16 372.028 138.697ZM386.999 134.694C389.148 134.699 390.494 135.388 390.499 136.564C390.494 137.718 389.148 138.401 386.999 138.401C384.855 138.401 383.494 137.718 383.499 136.564C383.494 135.388 384.855 134.699 386.999 134.694ZM382.537 139.911V139.069H391.473V139.911H387.513V140.939H390.379V144.209H383.609V140.939H386.485V139.911H382.537ZM384.571 136.564C384.566 137.22 385.49 137.592 386.999 137.592C388.498 137.592 389.433 137.22 389.427 136.564C389.433 135.886 388.498 135.503 386.999 135.503C385.49 135.503 384.566 135.886 384.571 136.564ZM384.637 143.367H389.373V141.77H384.637V143.367ZM395.568 136.291C395.568 137.548 396.503 138.757 398.018 139.233L397.482 140.042C396.355 139.67 395.502 138.899 395.059 137.915C394.616 138.976 393.747 139.818 392.582 140.228L392.046 139.43C393.572 138.899 394.512 137.619 394.518 136.291V136.017H392.319V135.175H397.722V136.017H395.568V136.291ZM393.424 141.781V140.939H400.063V144.33H399.024V141.781H393.424ZM399.024 140.447V134.53H400.063V140.447H399.024ZM409.452 134.53V144.351H408.413V134.53H409.452ZM401.675 138.697C401.675 136.602 402.731 135.268 404.213 135.262C405.667 135.268 406.739 136.602 406.739 138.697C406.739 140.813 405.667 142.148 404.213 142.142C402.731 142.148 401.675 140.813 401.675 138.697ZM402.681 138.697C402.676 140.255 403.299 141.212 404.213 141.212C405.109 141.212 405.733 140.255 405.733 138.697C405.733 137.16 405.109 136.198 404.213 136.192C403.299 136.198 402.676 137.16 402.681 138.697ZM419.89 138.38V139.233H418.37V144.319H417.331V134.53H418.37V138.38H419.89ZM411.108 141.858V135.481H412.136V140.994C413.503 140.988 414.93 140.873 416.489 140.556L416.609 141.431C414.93 141.765 413.388 141.863 411.917 141.858H411.108ZM429.104 142.241V143.105H420.135V142.241H422.279V139.681C421.475 139.238 420.983 138.538 420.989 137.658C420.983 136.116 422.498 135.104 424.598 135.098C426.703 135.104 428.218 136.116 428.218 137.658C428.218 138.522 427.748 139.216 426.96 139.659V142.241H429.104ZM421.995 137.658C421.995 138.708 423.061 139.391 424.598 139.397C426.124 139.391 427.207 138.708 427.212 137.658C427.207 136.602 426.124 135.93 424.598 135.93C423.061 135.93 421.995 136.602 421.995 137.658ZM423.307 142.241H425.91V140.064C425.511 140.157 425.068 140.206 424.598 140.206C424.139 140.206 423.701 140.157 423.307 140.064V142.241ZM431.143 141.048C431.159 139.616 431.58 139.178 432.302 138.73C432.762 138.451 433.112 138.046 433.112 137.472C433.112 136.788 432.587 136.356 431.93 136.356C431.34 136.356 430.766 136.717 430.716 137.526H429.535C429.579 136.132 430.629 135.372 431.93 135.372C433.352 135.372 434.304 136.225 434.304 137.472C434.304 138.352 433.883 138.937 433.188 139.364C432.532 139.763 432.275 140.157 432.259 141.048V141.114H431.143V141.048ZM430.968 142.7C430.962 142.273 431.318 141.923 431.744 141.923C432.166 141.923 432.516 142.273 432.521 142.7C432.516 143.126 432.166 143.471 431.744 143.476C431.318 143.471 430.962 143.126 430.968 142.7Z" fill="black"/>
<path d="M20 177.2C20 171.014 25.0144 166 31.2 166H56.4C62.5856 166 67.6 171.014 67.6 177.2V182.8C67.6 188.986 62.5856 194 56.4 194H20V177.2Z" fill="#303134"/>
<rect x="34" y="177.9" width="4.2" height="4.2" rx="2.1" fill="#CECFD2"/>
<rect x="41" y="177.9" width="4.2" height="4.2" rx="2.1" fill="#CECFD2"/>
<rect x="48" y="177.2" width="5.6" height="5.6" rx="2.8" fill="white"/>
<g filter="url(#filter0_d_433_8002)">
<rect x="20" y="218" width="426" height="58" rx="29" fill="#303134"/>
<rect x="20.5" y="218.5" width="425" height="57" rx="28.5" stroke="#236BF6"/>
<path d="M53.3125 248.359V249.562H47.5938V254.312H46.1406V249.562H40.5V248.359H53.3125ZM42.1094 246.578V241.078H51.7031V246.578H42.1094ZM43.5625 245.422H50.2188V242.266H43.5625V245.422ZM65.6156 240.328V249.875H64.1313V245.297H61.4047C61.1 246.945 59.6703 248.078 57.8188 248.062C55.7094 248.078 54.1391 246.648 54.1469 244.656C54.1391 242.648 55.7094 241.258 57.8188 241.266C59.6938 241.258 61.1469 242.391 61.4125 244.094H64.1313V240.328H65.6156ZM55.5688 244.656C55.5609 245.938 56.5063 246.805 57.8188 246.797C59.0766 246.805 60.0375 245.938 60.0375 244.656C60.0375 243.406 59.0766 242.516 57.8188 242.516C56.5063 242.516 55.5609 243.406 55.5688 244.656ZM55.6156 253.078C58.2172 252.656 60.2641 251.078 60.2719 249.344V248.844H61.7875V249.344C61.7797 251.148 63.7875 252.672 66.4594 253.078L65.8656 254.25C63.6781 253.883 61.8578 252.805 61.0219 251.273C60.1625 252.781 58.3422 253.883 56.1469 254.25L55.6156 253.078ZM78.9656 240.328V254.359H77.4813V240.328H78.9656ZM67.8563 246.281C67.8563 243.289 69.3641 241.383 71.4813 241.375C73.5594 241.383 75.0906 243.289 75.0906 246.281C75.0906 249.305 73.5594 251.211 71.4813 251.203C69.3641 251.211 67.8563 249.305 67.8563 246.281ZM69.2938 246.281C69.2859 248.508 70.1766 249.875 71.4813 249.875C72.7625 249.875 73.6531 248.508 73.6531 246.281C73.6531 244.086 72.7625 242.711 71.4813 242.703C70.1766 242.711 69.2859 244.086 69.2938 246.281ZM95.4938 240.906V241.922C95.5016 242.977 95.5016 244.25 95.1656 245.859H97.1188V247.047H91.4156V249.086C94.025 249.234 95.5797 250.164 95.5875 251.672C95.5797 253.367 93.7281 254.305 90.6813 254.297C87.6109 254.305 85.7594 253.367 85.7594 251.672C85.7594 250.156 87.3219 249.234 89.9469 249.086V247.047H84.3063V245.859H93.6734C94.0094 244.289 94.025 243.133 94.025 242.094H85.9156V240.906H95.4938ZM87.2594 251.672C87.2438 252.609 88.5094 253.117 90.6813 253.109C92.8219 253.117 94.0875 252.609 94.1031 251.672C94.0875 250.766 92.8219 250.266 90.6813 250.266C88.5094 250.266 87.2438 250.766 87.2594 251.672ZM108.922 241.031V242.094C108.93 243.188 108.93 244.453 108.562 246.141H110.547V247.359H97.7344V246.141H107.062C107.438 244.508 107.453 243.312 107.453 242.25H99.3438V241.031H108.922ZM99.2969 254.156V249.141H108.938V254.156H99.2969ZM100.75 252.953H107.469V250.312H100.75V252.953ZM122.069 240.328V246H124.319V247.234H122.069V254.328H120.6V240.328H122.069ZM111.084 243.734V242.516H114.537V240.516H116.022V242.516H119.381V243.734H111.084ZM111.803 248.016C111.803 246.109 113.272 244.766 115.287 244.766C117.295 244.766 118.764 246.109 118.772 248.016C118.764 249.938 117.295 251.273 115.287 251.281C113.272 251.273 111.803 249.938 111.803 248.016ZM113.225 248.016C113.217 249.234 114.092 250.047 115.287 250.031C116.475 250.047 117.342 249.234 117.35 248.016C117.342 246.82 116.475 245.992 115.287 245.984C114.092 245.992 113.217 246.82 113.225 248.016ZM136.2 240.344V250.594H134.716V240.344H136.2ZM124.669 247.438C126.864 246.625 128.161 244.609 128.169 242.5V241.109H129.684V242.5C129.677 244.547 130.973 246.422 133.137 247.172L132.372 248.359C130.755 247.758 129.559 246.57 128.934 245.055C128.317 246.68 127.106 247.977 125.466 248.609L124.669 247.438ZM127.044 254.031V249.625H128.544V252.828H136.622V254.031H127.044ZM148.925 240.328V245.906H151.097V247.141H148.925V254.312H147.441V240.328H148.925ZM138.034 250.578C141.542 248.828 143.448 246.297 143.753 243.031H138.738V241.797H145.269C145.253 245.844 143.472 249.461 138.863 251.734L138.034 250.578ZM164.259 251.344V252.578H151.447V251.344H154.509V247.688C153.361 247.055 152.658 246.055 152.666 244.797C152.658 242.594 154.822 241.148 157.822 241.141C160.83 241.148 162.994 242.594 162.994 244.797C162.994 246.031 162.322 247.023 161.197 247.656V251.344H164.259ZM154.103 244.797C154.103 246.297 155.627 247.273 157.822 247.281C160.002 247.273 161.548 246.297 161.556 244.797C161.548 243.289 160.002 242.328 157.822 242.328C155.627 242.328 154.103 243.289 154.103 244.797ZM155.978 251.344H159.697V248.234C159.127 248.367 158.494 248.438 157.822 248.438C157.166 248.438 156.541 248.367 155.978 248.234V251.344ZM167.172 249.641C167.195 247.594 167.797 246.969 168.828 246.328C169.484 245.93 169.984 245.352 169.984 244.531C169.984 243.555 169.234 242.938 168.297 242.938C167.453 242.938 166.633 243.453 166.562 244.609H164.875C164.938 242.617 166.438 241.531 168.297 241.531C170.328 241.531 171.688 242.75 171.688 244.531C171.688 245.789 171.086 246.625 170.094 247.234C169.156 247.805 168.789 248.367 168.766 249.641V249.734H167.172V249.641ZM166.922 252C166.914 251.391 167.422 250.891 168.031 250.891C168.633 250.891 169.133 251.391 169.141 252C169.133 252.609 168.633 253.102 168.031 253.109C167.422 253.102 166.914 252.609 166.922 252Z" fill="#E2E3E4"/>
<rect x="396" y="226" width="42" height="42" rx="21" fill="#236BF6"/>
<path d="M415.95 243.399L411.802 247.547C411.604 247.738 411.339 247.844 411.064 247.841C410.788 247.839 410.525 247.729 410.33 247.534C410.136 247.339 410.025 247.076 410.023 246.801C410.02 246.525 410.126 246.26 410.318 246.062L416.257 240.122C416.355 240.024 416.47 239.947 416.598 239.894C416.725 239.841 416.862 239.813 417 239.813C417.138 239.813 417.274 239.841 417.402 239.894C417.529 239.947 417.645 240.024 417.742 240.122L423.682 246.062C423.869 246.261 423.97 246.525 423.966 246.797C423.961 247.07 423.851 247.33 423.658 247.523C423.465 247.716 423.205 247.826 422.932 247.83C422.66 247.834 422.396 247.732 422.197 247.546L418.05 243.398V253.464C418.05 253.742 417.939 254.009 417.742 254.206C417.545 254.403 417.278 254.514 417 254.514C416.721 254.514 416.454 254.403 416.257 254.206C416.06 254.009 415.95 253.742 415.95 253.464V243.399Z" fill="white"/>
</g>
</g>
<defs>
<filter id="filter0_d_433_8002" x="0" y="198" width="466" height="98" filterUnits="userSpaceOnUse" color-interpolation-filters="sRGB">
<feFlood flood-opacity="0" result="BackgroundImageFix"/>
<feColorMatrix in="SourceAlpha" type="matrix" values="0 0 0 0 0 0 0 0 0 0 0 0 0 0 0 0 0 0 127 0" result="hardAlpha"/>
<feOffset/>
<feGaussianBlur stdDeviation="10"/>
<feComposite in2="hardAlpha" operator="out"/>
<feColorMatrix type="matrix" values="0 0 0 0 0.137255 0 0 0 0 0.419608 0 0 0 0 0.964706 0 0 0 0.5 0"/>
<feBlend mode="normal" in2="BackgroundImageFix" result="effect1_dropShadow_433_8002"/>
<feBlend mode="normal" in="SourceGraphic" in2="effect1_dropShadow_433_8002" result="shape"/>
</filter>
<linearGradient id="paint0_linear_433_8002" x1="135" y1="-22.4138" x2="135" y2="44.5833" gradientUnits="userSpaceOnUse">
<stop offset="0.26243" stop-color="#18191A"/>
<stop offset="1" stop-color="#18191A" stop-opacity="0"/>
</linearGradient>
<clipPath id="clip0_433_8002">
<rect width="466" height="300" rx="8" fill="white"/>
</clipPath>
</defs>
</svg>
