<svg width="40" height="40" viewBox="0 0 40 40" fill="none" xmlns="http://www.w3.org/2000/svg">
<rect width="40" height="40" rx="20" fill="#236BF6"/>
<path d="M19.667 11.6742C20.4216 10.4145 22.3325 10.7515 22.6107 12.1932L23.0359 14.3972C23.1794 15.1405 23.8242 15.6816 24.5812 15.6938L26.8255 15.7299C28.2937 15.7535 28.9573 17.5769 27.8478 18.5387L26.1518 20.0089C25.5797 20.5049 25.4336 21.3339 25.8015 21.9955L26.8924 23.9572C27.606 25.2405 26.3588 26.7269 24.9711 26.2469L22.8498 25.5133C22.1343 25.2658 21.3433 25.5537 20.9542 26.2032L19.8008 28.1288C19.0463 29.3884 17.1354 29.0515 16.8572 27.6097L16.4319 25.4058C16.2885 24.6624 15.6436 24.1213 14.8866 24.1091L12.6423 24.073C11.1741 24.0494 10.5105 22.2261 11.62 21.2643L13.316 19.794C13.8881 19.2981 14.0343 18.4691 13.6663 17.8074L12.5754 15.8457C11.8618 14.5625 13.109 13.0761 14.4967 13.556L16.618 14.2897C17.3336 14.5371 18.1246 14.2492 18.5136 13.5998L19.667 11.6742Z" fill="url(#paint0_linear_224_168)"/>
<defs>
<linearGradient id="paint0_linear_224_168" x1="23.4328" y1="15.6" x2="13.4328" y2="27.6" gradientUnits="userSpaceOnUse">
<stop stop-color="#FF7B61"/>
<stop offset="0.564035" stop-color="#FDB66F"/>
<stop offset="1" stop-color="#FFF9EA"/>
</linearGradient>
</defs>
</svg>
