<svg width="20" height="20" viewBox="0 0 20 20" fill="none" xmlns="http://www.w3.org/2000/svg">
<path d="M8.75065 14.1668C11.7422 14.1668 14.1673 11.7417 14.1673 8.75016C14.1673 5.75862 11.7422 3.3335 8.75065 3.3335C5.75911 3.3335 3.33398 5.75862 3.33398 8.75016C3.33398 11.7417 5.75911 14.1668 8.75065 14.1668Z" stroke="white" stroke-width="1.66667" stroke-miterlimit="10"/>
<path d="M16.0774 17.2559C16.4028 17.5814 16.9305 17.5814 17.2559 17.2559C17.5814 16.9305 17.5814 16.4028 17.2559 16.0774L16.6667 16.6667L16.0774 17.2559ZM12.5 12.5L11.9107 13.0893L16.0774 17.2559L16.6667 16.6667L17.2559 16.0774L13.0893 11.9107L12.5 12.5Z" fill="white"/>
</svg>
