<svg width="40" height="40" viewBox="0 0 40 40" fill="none" xmlns="http://www.w3.org/2000/svg">
<rect width="40" height="40" rx="20" fill="#303134"/>
<path d="M18.4991 22.5441L12.0606 28.9826C11.9221 29.1209 11.7497 29.1885 11.5434 29.1853C11.337 29.1822 11.1646 29.1113 11.0261 28.9728C10.8876 28.8343 10.8184 28.6597 10.8184 28.4491C10.8184 28.2384 10.8876 28.0649 11.0261 27.9286L17.4549 21.4998H13.2491C13.0366 21.4998 12.8585 21.4279 12.7149 21.2841C12.571 21.1402 12.4991 20.9621 12.4991 20.7496C12.4991 20.5369 12.571 20.3588 12.7149 20.2153C12.8585 20.0717 13.0366 19.9998 13.2491 19.9998H19.0954C19.3514 19.9998 19.566 20.0864 19.7394 20.2596C19.9125 20.4329 19.9991 20.6476 19.9991 20.9036V26.7498C19.9991 26.9623 19.9272 27.1404 19.7834 27.2841C19.6395 27.4279 19.4614 27.4998 19.2489 27.4998C19.0362 27.4998 18.8581 27.4279 18.7146 27.2841C18.5709 27.1404 18.4991 26.9623 18.4991 26.7498V22.5441ZM22.5434 18.4998H26.7491C26.9616 18.4998 27.1397 18.5717 27.2834 18.7156C27.4272 18.8594 27.4991 19.0376 27.4991 19.2501C27.4991 19.4627 27.4272 19.6408 27.2834 19.7843C27.1397 19.928 26.9616 19.9998 26.7491 19.9998H20.9029C20.6469 19.9998 20.4322 19.9132 20.2589 19.7401C20.0857 19.5667 19.9991 19.3521 19.9991 19.0961V13.2498C19.9991 13.0373 20.071 12.8592 20.2149 12.7156C20.3587 12.5717 20.5369 12.4998 20.7494 12.4998C20.962 12.4998 21.1401 12.5717 21.2836 12.7156C21.4273 12.8592 21.4991 13.0373 21.4991 13.2498V17.4556L27.9376 11.0171C28.0739 10.8787 28.2474 10.8096 28.4581 10.8096C28.6688 10.8096 28.8434 10.8787 28.9819 11.0171C29.1202 11.1556 29.1894 11.3302 29.1894 11.5408C29.1894 11.7515 29.1202 11.925 28.9819 12.0613L22.5434 18.4998Z" fill="white"/>
</svg>
