<svg width="40" height="40" viewBox="0 0 40 40" fill="none" xmlns="http://www.w3.org/2000/svg">
<rect width="40" height="40" rx="20" fill="#303134"/>
<path d="M12.404 28.5C12.1478 28.5 11.9332 28.4133 11.76 28.24C11.5867 28.0668 11.5 27.8522 11.5 27.596V21.75C11.5 21.5375 11.5719 21.3593 11.7158 21.2155C11.8596 21.0718 12.0377 21 12.2502 21C12.4629 21 12.641 21.0718 12.7845 21.2155C12.9282 21.3593 13 21.5375 13 21.75V25.9557L25.9557 13H21.75C21.5375 13 21.3593 12.9281 21.2155 12.7842C21.0718 12.6404 21 12.4622 21 12.2497C21 12.0371 21.0718 11.859 21.2155 11.7155C21.3593 11.5718 21.5375 11.5 21.75 11.5H27.596C27.8522 11.5 28.0668 11.5867 28.24 11.76C28.4133 11.9332 28.5 12.1478 28.5 12.404V18.25C28.5 18.4625 28.4281 18.6407 28.2843 18.7845C28.1404 18.9282 27.9622 19 27.7498 19C27.5371 19 27.359 18.9282 27.2155 18.7845C27.0718 18.6407 27 18.4625 27 18.25V14.0443L14.0443 27H18.25C18.4625 27 18.6407 27.0719 18.7845 27.2158C18.9282 27.3596 19 27.5378 19 27.7502C19 27.9629 18.9282 28.141 18.7845 28.2845C18.6407 28.4282 18.4625 28.5 18.25 28.5H12.404Z" fill="white"/>
</svg>
